<?xml version="1.0" standalone="no"?>
<!DOCTYPE svg PUBLIC "-//W3C//DTD SVG 1.1//EN" "http://www.w3.org/Graphics/SVG/1.1/DTD/svg11.dtd" >
<svg>
<metadata>
Created by FontForge 20120731 at Tue Dec  9 12:03:31 2014
 By Orthosie Webhosting
Copyright 2006 - 2007 Monotype Imaging Inc. All rights reserved.
</metadata>
<defs>
<font id="SlateProMedium" horiz-adv-x="546" >
  <font-face 
    font-family="SlateProMedium"
    font-weight="500"
    font-stretch="normal"
    units-per-em="1000"
    panose-1="2 0 6 3 4 0 0 2 0 4"
    ascent="655"
    descent="-345"
    x-height="469"
    cap-height="635"
    bbox="-160 -201 1120 858"
    underline-thickness="50"
    underline-position="-50"
    unicode-range="U+0020-FE6A"
  />
<missing-glyph horiz-adv-x="500" 
d="M12 0v665h475v-665h-475zM88 618l162 -243l161 243h-323zM60 575v-484l161 242zM440 575l-162 -242l162 -243v485zM411 48l-161 242l-162 -242h323z" />
    <glyph glyph-name="IJ" unicode="IJ" horiz-adv-x="548" 
d="M199 0h-126v635h126v-635zM475 635v-627q0 -87 -45 -135q-45 -47 -125 -47q-25 0 -48 4.5t-33 9.5l-11 4l17 89q22 -11 57 -11q28 0 45 19.5t17 60.5v633h126z" />
    <glyph glyph-name="ij" unicode="ij" horiz-adv-x="500" 
d="M196 608q0 -31 -20 -50.5t-51 -19.5t-52 19.5t-21 49.5t20.5 49.5t51.5 19.5t51.5 -19t20.5 -49zM185 0h-122v469h122v-469zM448 608q0 -31 -20.5 -50.5t-51.5 -19.5t-51.5 19.5t-20.5 49.5t20.5 49.5t50.5 19.5q31 0 52 -19t21 -49zM437 469v-471q0 -87 -32 -125
q-41 -47 -113 -47q-49 0 -84 16l12 87q19 -7 41 -7q26 0 38 12q16 16 16 73v462h122z" />
    <glyph glyph-name="napostrophe" unicode="&#x27;n" horiz-adv-x="631" 
d="M52 664l102 -31q0 -61 -37 -126.5t-87 -100.5l-75 37q97 97 97 221zM572 0h-121v272q0 50 -18 77t-63 27q-42 0 -70 -32t-35 -69v-275h-122v469h114l8 -79q57 88 151 88q156 0 156 -178v-300z" />
    <glyph glyph-name="f_f" unicode="ff" horiz-adv-x="600" 
d="M335 644l-15 -79q-33 11 -57 11q-37 0 -52 -21q-12 -17 -12 -59v-27h179v46q0 66 38 104q43 43 119 43q51 0 100 -18l-15 -79q-33 11 -57 11q-37 0 -52 -21q-12 -17 -12 -59v-27h112v-89h-111v-380h-122v380h-178v-380h-122v380h-62v89h62v46q0 66 38 104q43 43 119 43
q51 0 100 -18z" />
    <glyph glyph-name="fi" unicode="fi" horiz-adv-x="549" 
d="M496 607q0 -30 -20 -49t-51 -19t-51.5 19t-20.5 49t20.5 49.5t50.5 19.5q31 0 51.5 -19.5t20.5 -49.5zM485 0h-121v469h121v-469zM335 644l-15 -79q-33 11 -57 11q-37 0 -52 -21q-12 -17 -12 -59v-27h112v-89h-111v-380h-122v380h-62v89h62v46q0 66 38 104q43 43 119 43
q51 0 100 -18z" />
    <glyph glyph-name="fl" unicode="fl" horiz-adv-x="549" 
d="M485 0h-122v655h122v-655zM335 644l-15 -79q-33 11 -57 11q-37 0 -52 -21q-12 -17 -12 -59v-27h112v-89h-111v-380h-122v380h-62v89h62v46q0 66 38 104q43 43 119 43q51 0 100 -18z" />
    <glyph glyph-name="f_f_i" unicode="ffi" horiz-adv-x="849" 
d="M335 644l-15 -79q-33 11 -57 11q-37 0 -52 -21q-12 -17 -12 -59v-27h179v46q0 66 38 104q43 43 119 43q51 0 100 -18l-15 -79q-33 11 -57 11q-37 0 -52 -21q-12 -17 -12 -59v-27h112v-89h-111v-380h-122v380h-178v-380h-122v380h-62v89h62v46q0 66 38 104q43 43 119 43
q51 0 100 -18zM796 607q0 -30 -20 -49t-51 -19t-51.5 19t-20.5 49t20.5 49.5t50.5 19.5q31 0 51.5 -19.5t20.5 -49.5zM785 0h-121v469h121v-469z" />
    <glyph glyph-name="f_f_l" unicode="ffl" horiz-adv-x="849" 
d="M335 644l-15 -79q-33 11 -57 11q-37 0 -52 -21q-12 -17 -12 -59v-27h179v46q0 66 38 104q43 43 119 43q51 0 100 -18l-15 -79q-33 11 -57 11q-37 0 -52 -21q-12 -17 -12 -59v-27h112v-89h-111v-380h-122v380h-178v-380h-122v380h-62v89h62v46q0 66 38 104q43 43 119 43
q51 0 100 -18zM785 0h-122v655h122v-655z" />
    <glyph glyph-name=".notdef" horiz-adv-x="500" 
d="M12 0v665h475v-665h-475zM88 618l162 -243l161 243h-323zM60 575v-484l161 242zM440 575l-162 -242l162 -243v485zM411 48l-161 242l-162 -242h323z" />
    <glyph glyph-name=".null" horiz-adv-x="0" 
 />
    <glyph glyph-name="nonmarkingreturn" horiz-adv-x="333" 
 />
    <glyph glyph-name="space" unicode=" " horiz-adv-x="172" 
 />
    <glyph glyph-name="exclam" unicode="!" horiz-adv-x="302" 
d="M218 635l-19 -438h-95l-20 438h134zM224 60q0 -30 -20.5 -50t-52.5 -20q-31 0 -52 20t-21 50t20.5 50t52.5 20t52.5 -20t20.5 -50z" />
    <glyph glyph-name="quotedbl" unicode="&#x22;" horiz-adv-x="470" 
d="M388 650l-20 -244h-80l-20 244h120zM202 650l-19 -244h-81l-20 244h120z" />
    <glyph glyph-name="numbersign" unicode="#" 
d="M527 399h-107l-32 -153h98v-72h-113l-35 -172h-75l35 172h-112l-35 -172h-76l36 172h-92v72h107l32 153h-98v72h113l35 171h75l-35 -171h112l35 171h76l-36 -171h92v-72zM345 399h-112l-32 -153h112z" />
    <glyph glyph-name="dollar" unicode="$" 
d="M500 189q0 -84 -67 -137q-48 -40 -121 -46l-1 -87h-71l2 86q-53 2 -110 27t-90 63l58 82q27 -30 66 -50.5t78 -23.5l2 171l-41 16q-49 19 -76 39q-64 47 -64 130t70 134q50 36 118 39v65h70v-66q46 -3 92.5 -23.5t72.5 -50.5l-51 -78q-51 51 -117 60l-1 -165l37 -15
q144 -59 144 -170zM252 544q-29 0 -54 -18t-25 -53q0 -24 14 -41t27 -23t38 -15v150zM390 172q0 52 -57 76l-20 9l-2 -157q33 0 56 20.5t23 51.5z" />
    <glyph glyph-name="percent" unicode="%" horiz-adv-x="820" 
d="M778 177q0 -85 -43.5 -136t-114.5 -51t-114 51t-43 136q0 84 43 135t114 51t114.5 -51t43.5 -135zM627 625l-379 -637l-55 34l379 637zM357 470q0 -84 -43 -135t-114 -51t-114.5 51t-43.5 135q0 85 43.5 136t114.5 51t114 -51t43 -136zM688 176q0 51 -17.5 83t-50.5 32
t-50.5 -31.5t-17.5 -82.5t17.5 -83t50.5 -32t50.5 31.5t17.5 82.5zM268 470q0 51 -17.5 83t-50.5 32t-50.5 -31.5t-17.5 -82.5t17.5 -83t50.5 -32t50.5 31.5t17.5 82.5z" />
    <glyph glyph-name="ampersand" unicode="&#x26;" horiz-adv-x="670" 
d="M663 0h-146l-58 64q-1 -1 -10.5 -8.5t-13.5 -10t-15 -10t-19.5 -11.5t-21.5 -10t-26 -9.5t-29 -7.5t-34.5 -5.5t-38.5 -1.5q-92 0 -152 48.5t-60 124.5q0 36 11.5 66.5t33.5 51.5t39.5 33.5t41.5 25.5l24 13l-11 11l-10 10q-9 10 -13.5 16t-14 19.5t-14.5 25t-9 28
t-4 33.5q0 67 52.5 108t131.5 41q78 0 130 -40.5t52 -103.5q0 -30 -9.5 -55.5t-28 -44.5t-34 -30.5t-37.5 -24.5l-18 -11l114 -125q19 23 37.5 64.5t26.5 75.5l95 -35q-7 -40 -35.5 -95t-54.5 -83zM372 499q0 31 -20.5 50.5t-52.5 19.5t-52.5 -20t-20.5 -48q0 -8 1.5 -15
t5 -14t6 -12.5t8 -12t8 -9.5t8 -8.5l6.5 -6.5l24 -27l19 12q60 39 60 91zM390 137l-142 154l-18 -10q-69 -42 -69 -103q0 -41 30 -67t79 -26q72 0 120 52z" />
    <glyph glyph-name="quotesingle" unicode="'" horiz-adv-x="283" 
d="M201 650l-19 -244h-81l-19 244h119z" />
    <glyph glyph-name="parenleft" unicode="(" horiz-adv-x="340" 
d="M303 -103l-60 -51q-32 26 -62 61t-64 89t-54.5 127.5t-20.5 154.5t20.5 155t54 127.5t63.5 89t62 61.5l61 -51q-154 -159 -154 -381q0 -223 154 -382z" />
    <glyph glyph-name="parenright" unicode=")" horiz-adv-x="340" 
d="M298 279q0 -81 -20.5 -155t-54 -127.5t-63.5 -89t-62 -61.5l-61 51q154 159 154 381q0 223 -154 382l60 51q32 -26 62 -61t64 -89t54.5 -127.5t20.5 -154.5z" />
    <glyph glyph-name="asterisk" unicode="*" horiz-adv-x="425" 
d="M379 497l-120 -32l80 -96l-57 -42l-69 101l-70 -101l-57 41l80 97l-120 31l22 68l114 -41l-5 120h71l-5 -120l113 41z" />
    <glyph glyph-name="plus" unicode="+" 
d="M496 272h-177v-177h-92v177h-177v92h177v177h92v-177h177v-92z" />
    <glyph glyph-name="comma" unicode="," horiz-adv-x="273" 
d="M113 143l101 -31q0 -61 -37 -126.5t-87 -100.5l-75 37q98 98 98 221z" />
    <glyph glyph-name="hyphen" unicode="-" horiz-adv-x="315" 
d="M283 191h-251v92h251v-92z" />
    <glyph glyph-name="period" unicode="." horiz-adv-x="273" 
d="M209 63q0 -30 -20.5 -50.5t-51.5 -20.5q-32 0 -52.5 20t-20.5 50t20.5 50.5t51.5 20.5q32 0 52.5 -20t20.5 -50z" />
    <glyph glyph-name="slash" unicode="/" horiz-adv-x="541" 
d="M492 670l-374 -776l-69 34l374 776z" />
    <glyph glyph-name="zero" unicode="0" 
d="M512 318q0 -147 -62.5 -237.5t-176.5 -90.5t-176.5 90.5t-62.5 237.5t62.5 237t176.5 90t176.5 -90t62.5 -237zM389 318q0 100 -29 165t-87 65t-87 -65t-29 -165q0 -99 29 -164.5t87 -65.5t87 65t29 165z" />
    <glyph glyph-name="one" unicode="1" 
d="M367 0h-123v497q-9 -8 -46 -25q-26 -11 -58 -20l-27 87q39 6 90 35q52 31 63 63h101v-637z" />
    <glyph glyph-name="two" unicode="2" 
d="M501 0h-464q3 28 11 55t16 47.5t24.5 43.5t26 36t30.5 33t28 26.5t29 24.5t23 19q5 4 24.5 20t27 22.5t23 21.5t22.5 24.5t16.5 23t13 27t3.5 26.5q0 47 -31.5 71t-81.5 24q-80 0 -143 -74l-59 79q17 20 41 38.5t74 37.5t107 19q94 0 154 -51.5t60 -135.5q0 -23 -5 -45
t-16 -41.5t-20.5 -34t-27 -31t-26 -24t-26.5 -22t-20 -16.5t-27.5 -22t-36 -29.5t-30 -27.5t-30.5 -34t-17 -31h307v-100z" />
    <glyph glyph-name="three" unicode="3" 
d="M482 179q0 -87 -66.5 -138t-164.5 -51q-57 0 -107.5 20.5t-73.5 39.5t-40 40l65 75q72 -75 155 -75q45 0 78.5 25.5t33.5 72.5t-34.5 72t-84.5 25h-68v93h70q46 0 75 23.5t29 63.5t-31 61t-78 21q-75 0 -136 -61l-54 79q17 17 40 32.5t69 31.5t96 16q88 0 149.5 -43.5
t61.5 -120.5q0 -37 -14.5 -66.5t-35 -45.5t-36 -23.5t-25.5 -9.5q14 -3 31 -10.5t41 -24t39.5 -48.5t15.5 -74z" />
    <glyph glyph-name="four" unicode="4" 
d="M528 135h-85v-135h-122v135h-306v93l280 407h148v-406h85v-94zM321 229v304l-204 -304h204z" />
    <glyph glyph-name="five" unicode="5" 
d="M497 206q0 -101 -71 -158.5t-171 -57.5q-136 0 -225 95l65 75q63 -70 151 -70q56 0 93 30t37 87t-38 86.5t-93 29.5q-64 0 -100 -38l-75 32l55 318h355v-97h-265l-26 -146q36 18 93 18q89 0 152 -52.5t63 -151.5z" />
    <glyph glyph-name="six" unicode="6" 
d="M513 210q0 -95 -60.5 -157.5t-166.5 -62.5q-121 0 -188 96q-54 77 -54 221q0 172 84 260q71 78 187 78q107 0 176 -56l-47 -80q-16 14 -49.5 28.5t-76.5 14.5q-61 0 -103 -42q-53 -53 -53 -168q64 64 162 64q78 0 133.5 -53.5t55.5 -142.5zM393 202q0 51 -28 83t-82 32
q-71 0 -118 -72q0 -68 31 -115t87 -47q55 0 82.5 33.5t27.5 85.5z" />
    <glyph glyph-name="seven" unicode="7" 
d="M505 543l-267 -543h-131l273 537h-323v98h448v-92z" />
    <glyph glyph-name="eight" unicode="8" 
d="M508 173q0 -88 -67 -135.5t-168 -47.5t-168.5 47.5t-67.5 135.5q0 111 126 159q-41 16 -73 50.5t-32 96.5q0 79 62.5 122.5t152.5 43.5t152.5 -43.5t62.5 -121.5q0 -101 -109 -140q51 -17 90 -58.5t39 -108.5zM372 474q0 41 -27.5 62.5t-71.5 21.5q-43 0 -71 -21t-28 -62
q0 -39 34.5 -63.5t80.5 -33.5q83 28 83 96zM389 181q0 45 -41 72.5t-94 40.5q-97 -34 -97 -112q0 -48 33.5 -75t82.5 -27q50 0 83 26.5t33 74.5z" />
    <glyph glyph-name="nine" unicode="9" 
d="M502 328q0 -170 -84 -260q-73 -78 -187 -78q-111 0 -181 60l48 82q22 -20 59 -33.5t70 -13.5q64 0 103 39q54 54 54 170q-65 -65 -162 -65q-78 0 -133.5 54t-55.5 142q0 96 60.5 158t166.5 62q121 0 188 -96q54 -78 54 -221zM381 392q0 68 -31 115t-87 47
q-55 0 -82.5 -33t-27.5 -85q0 -51 28 -83.5t82 -32.5q39 0 69.5 22t48.5 50z" />
    <glyph glyph-name="colon" unicode=":" horiz-adv-x="273" 
d="M209 63q0 -30 -20.5 -50.5t-51.5 -20.5q-32 0 -52.5 20t-20.5 50t20.5 50.5t51.5 20.5q32 0 52.5 -20t20.5 -50zM209 396q0 -30 -20.5 -50.5t-51.5 -20.5q-32 0 -52.5 20t-20.5 50t20.5 50.5t51.5 20.5q32 0 52.5 -20t20.5 -50z" />
    <glyph glyph-name="semicolon" unicode=";" horiz-adv-x="273" 
d="M212 395q0 -30 -20.5 -50t-52.5 -20q-31 0 -52 20t-21 50t20.5 50t52.5 20q31 0 52 -20t21 -50zM214 111q0 -61 -37 -126t-87 -100l-75 37q98 98 98 221z" />
    <glyph glyph-name="less" unicode="&#x3c;" 
d="M496 81l-446 179v93l446 180v-101l-336 -125l336 -125v-101z" />
    <glyph glyph-name="equal" unicode="=" 
d="M496 363h-446v92h446v-92zM496 158h-446v93h446v-93z" />
    <glyph glyph-name="greater" unicode="&#x3e;" 
d="M496 261l-446 -180v101l336 125l-336 124v102l446 -180v-92z" />
    <glyph glyph-name="question" unicode="?" horiz-adv-x="449" 
d="M419 488q0 -39 -16 -72t-29 -46t-34 -30l-60 -50q-19 -16 -24.5 -28t-6.5 -32l-1 -33h-99v43q-2 37 6 59t36 45l54 44q41 33 51 52q9 16 9 33q0 32 -25 52.5t-72 20.5q-74 0 -130 -56l-53 80q75 75 200 75q87 0 140.5 -45.5t53.5 -111.5zM271 60q0 -30 -20.5 -50
t-51.5 -20q-32 0 -52.5 20t-20.5 50t20.5 50t52.5 20q31 0 51.5 -20t20.5 -50z" />
    <glyph glyph-name="at" unicode="@" horiz-adv-x="813" 
d="M760 286q0 -116 -70 -192q-55 -61 -130 -61q-42 0 -66.5 21t-28.5 50q-5 -9 -16.5 -22.5t-39.5 -29.5t-60 -16q-56 0 -91.5 39t-35.5 113q0 57 20.5 106t53.5 81q51 50 119 50q41 0 65.5 -15t32.5 -30l19 35h66l-58 -226q-8 -34 -8 -51q0 -43 39 -43q47 0 86 51t39 140
q0 104 -75 174.5t-198 70.5q-128 0 -213.5 -86.5t-85.5 -219.5t79 -210.5t209 -77.5q66 0 122 12.5t80 25.5l23 13l23 -48q-10 -7 -29 -17.5t-85 -28.5t-141 -18q-155 0 -252 94.5t-97 257.5q0 107 53 191.5t136 128.5t177 44q162 0 260 -106q78 -83 78 -200zM463 193
l30 115q-2 17 -20.5 36t-49.5 19q-44 0 -78 -42q-43 -55 -43 -131q0 -85 66 -85q27 0 56 25t39 63z" />
    <glyph glyph-name="A" unicode="A" horiz-adv-x="588" 
d="M593 0h-134l-46 139h-248l-46 -139h-124l223 635h150zM382 238l-93 280l-94 -280h187z" />
    <glyph glyph-name="B" unicode="B" horiz-adv-x="585" 
d="M553 183q0 -93 -74 -143q-61 -40 -174 -40h-232v635h219q111 0 157 -31q67 -44 67 -126q0 -48 -28.5 -85t-80.5 -51v-2q68 -11 107 -53.5t39 -103.5zM390 458q0 47 -34 68q-23 14 -72 14h-86v-166h86q48 0 72 17q34 25 34 67zM424 190q0 54 -40 79q-33 18 -83 18h-103
v-193h102q51 0 84 18q40 25 40 78z" />
    <glyph glyph-name="C" unicode="C" horiz-adv-x="596" 
d="M577 532l-66 -83l-6 9t-18.5 21t-31.5 26t-45 20.5t-59 9.5q-83 0 -134.5 -59t-51.5 -156q0 -98 50.5 -157t133.5 -59q49 0 90 22t58 44l17 21l65 -85q-3 -5 -8.5 -12.5t-26.5 -27.5t-45.5 -35.5t-67.5 -28t-91 -12.5q-133 0 -218 87.5t-85 240.5q0 151 90 239t218 88
q45 0 86 -11.5t65 -26t44.5 -33.5t27 -27.5t9.5 -14.5z" />
    <glyph glyph-name="D" unicode="D" horiz-adv-x="655" 
d="M618 318q0 -153 -98 -242q-84 -76 -227 -76h-220v635h219q144 0 228 -76q98 -89 98 -241zM489 319q0 109 -58 165q-51 52 -141 52h-91v-435h91q89 0 141 52q58 58 58 166z" />
    <glyph glyph-name="E" unicode="E" horiz-adv-x="528" 
d="M490 0h-417v635h408v-99h-282v-154h262v-100h-262v-180h291v-102z" />
    <glyph glyph-name="F" unicode="F" horiz-adv-x="489" 
d="M464 536h-265v-174h243v-100h-243v-262h-126v635h391v-99z" />
    <glyph glyph-name="G" unicode="G" horiz-adv-x="665" 
d="M608 0h-84l-12 65q-2 -3 -6.5 -8t-21 -18t-36.5 -23t-54.5 -18t-73.5 -8q-119 0 -201 89t-82 241q0 151 90.5 238t217.5 87q149 0 239 -112l-74 -76q0 1 -5 6.5t-7.5 8.5t-9.5 9.5t-12 11t-14 11t-17 11t-19.5 9t-23 7.5t-25 5t-28.5 2q-79 0 -131.5 -58t-52.5 -161
q0 -104 50 -161.5t131 -57.5q29 0 54.5 6t41 14.5t26.5 17t16 14.5l4 6v91h-132v95h252v-344z" />
    <glyph glyph-name="H" unicode="H" horiz-adv-x="676" 
d="M603 0h-126v282h-278v-282h-126v635h126v-252h278v252h126v-635z" />
    <glyph glyph-name="I" unicode="I" horiz-adv-x="273" 
d="M199 0h-126v635h126v-635z" />
    <glyph glyph-name="J" unicode="J" horiz-adv-x="275" 
d="M202 635v-627q0 -87 -45 -135q-45 -47 -125 -47q-25 0 -48 4.5t-34 9.5l-10 4l17 89q22 -11 57 -11q28 0 45 19.5t17 60.5v633h126z" />
    <glyph glyph-name="K" unicode="K" horiz-adv-x="578" 
d="M578 0h-146l-169 280l-64 -71v-209h-126v635h126v-273l224 273h147l-227 -259z" />
    <glyph glyph-name="L" unicode="L" horiz-adv-x="464" 
d="M451 0h-378v635h126v-533h252v-102z" />
    <glyph glyph-name="M" unicode="M" horiz-adv-x="808" 
d="M747 0h-125l-9 476l-157 -476h-111l-158 476l-8 -476h-118l22 635h162l158 -483l159 483h163z" />
    <glyph glyph-name="N" unicode="N" horiz-adv-x="671" 
d="M598 0h-121l-285 460v-460h-119v635h135l271 -437v437h119v-635z" />
    <glyph glyph-name="O" unicode="O" horiz-adv-x="696" 
d="M659 318q0 -147 -84.5 -237.5t-226.5 -90.5t-226.5 90t-84.5 238q0 147 84.5 237t226.5 90t226.5 -90t84.5 -237zM530 319q0 98 -48.5 159.5t-133.5 61.5t-133.5 -61.5t-48.5 -159.5t48.5 -160t133.5 -62t133.5 62t48.5 160z" />
    <glyph glyph-name="P" unicode="P" horiz-adv-x="558" 
d="M525 429q0 -106 -68 -159q-61 -47 -168 -47h-90v-223h-126v635h216q106 0 168 -48q68 -53 68 -158zM399 429q0 59 -39 87q-31 23 -91 23h-70v-220h69q61 0 92 22q39 29 39 88z" />
    <glyph glyph-name="Q" unicode="Q" horiz-adv-x="696" 
d="M659 318q0 -68 -18.5 -124t-46 -89t-49 -50t-38.5 -25q5 -27 27 -54t51 -43l-100 -71q-35 18 -60 53t-35 80q-17 -5 -42 -5q-142 0 -226.5 90t-84.5 238q0 147 84.5 237t226.5 90t226.5 -90t84.5 -237zM530 319q0 98 -48.5 159.5t-133.5 61.5t-133.5 -61.5t-48.5 -159.5
t48.5 -160t133.5 -62t133.5 62t48.5 160z" />
    <glyph glyph-name="R" unicode="R" horiz-adv-x="583" 
d="M570 0h-144l-148 247h-79v-247h-126v635h229q104 0 160 -43q70 -55 70 -147q0 -66 -35 -112t-95 -66zM407 440q0 52 -38 78q-31 21 -81 21h-89v-198h88q51 0 82 21q38 26 38 78z" />
    <glyph glyph-name="S" unicode="S" horiz-adv-x="520" 
d="M489 188q0 -79 -59.5 -138.5t-178.5 -59.5q-65 0 -129.5 25.5t-105.5 69.5l63 89q26 -26 74 -52t98 -26q55 0 84 20.5t29 57.5q0 17 -7 30.5t-20.5 22.5t-22 13t-22.5 10q-13 5 -64 24t-59 22q-123 48 -123 166q0 72 55.5 127.5t172.5 55.5q70 0 126 -26.5t87 -57.5
l-54 -86q-26 26 -72 48t-91 22q-101 0 -101 -71q0 -16 6.5 -29t21 -22.5t20 -12.5t21.5 -10q12 -5 62.5 -23.5t58.5 -21.5q130 -48 130 -167z" />
    <glyph glyph-name="T" unicode="T" horiz-adv-x="503" 
d="M495 536h-181v-536h-125v536h-182v99h488v-99z" />
    <glyph glyph-name="U" unicode="U" horiz-adv-x="640" 
d="M447 245v390h126v-383q0 -128 -56 -191q-63 -71 -197 -71q-135 0 -197 71q-57 62 -57 190v384h126v-390q0 -73 26 -104q34 -40 101 -40q68 0 102 40q26 31 26 104z" />
    <glyph glyph-name="V" unicode="V" horiz-adv-x="580" 
d="M575 635l-215 -635h-140l-215 635h133l156 -500l158 500h123z" />
    <glyph glyph-name="W" unicode="W" horiz-adv-x="883" 
d="M868 635l-163 -635h-138l-125 485l-125 -485h-138l-164 635h129l111 -488l122 488h131l122 -488l111 488h127z" />
    <glyph glyph-name="X" unicode="X" horiz-adv-x="582" 
d="M580 0h-145l-144 248l-143 -248h-146l213 326l-195 309h142l129 -230l129 230h143l-194 -309z" />
    <glyph glyph-name="Y" unicode="Y" horiz-adv-x="563" 
d="M563 635l-218 -376v-259h-126v259l-219 376h139l144 -278l143 278h137z" />
    <glyph glyph-name="Z" unicode="Z" horiz-adv-x="561" 
d="M532 0h-503v87l336 449h-324v99h478v-89l-331 -444h344v-102z" />
    <glyph glyph-name="bracketleft" unicode="[" horiz-adv-x="340" 
d="M297 -137h-221v821h221v-67h-121v-686h121v-68z" />
    <glyph glyph-name="backslash" unicode="\" horiz-adv-x="541" 
d="M492 -72l-68 -34l-375 776l68 34z" />
    <glyph glyph-name="bracketright" unicode="]" horiz-adv-x="340" 
d="M264 -137h-221v68h121v685h-121v68h221v-821z" />
    <glyph glyph-name="asciicircum" unicode="^" 
d="M496 316h-106l-117 232l-116 -232h-107l171 319h104z" />
    <glyph glyph-name="underscore" unicode="_" 
d="M546 -137h-546v58h546v-58z" />
    <glyph glyph-name="grave" unicode="`" horiz-adv-x="427" 
d="M306 523h-86l-100 130h118z" />
    <glyph glyph-name="a" unicode="a" horiz-adv-x="496" 
d="M465 0h-130q-10 29 -10 54q-55 -64 -142 -64q-63 0 -108.5 35.5t-45.5 108.5q0 108 136 142q64 16 157 16v22q0 76 -97 76q-77 0 -142 -42l-33 84q84 46 185 46t153 -44q55 -45 55 -139v-190q0 -64 22 -105zM322 134v86q-46 0 -88 -7q-82 -14 -82 -70q0 -36 21 -52
t52 -16q63 0 97 59z" />
    <glyph glyph-name="b" unicode="b" horiz-adv-x="564" 
d="M534 235q0 -107 -58 -176t-149 -69q-92 0 -141 76l-12 -66h-110v655h121v-255q52 78 148 78q91 0 146 -67.5t55 -175.5zM410 235q0 64 -30 107t-83 43q-52 0 -83.5 -43t-31.5 -106q0 -64 30 -107t82 -43q53 0 84.5 43t31.5 106z" />
    <glyph glyph-name="c" unicode="c" horiz-adv-x="458" 
d="M395 145l53 -80q-7 -8 -17 -17t-32.5 -24t-59 -24.5t-79.5 -9.5q-99 0 -165 64.5t-66 179.5q0 114 70 179t166 65q54 0 98.5 -19t60 -33.5t22.5 -24.5l-56 -75q-5 6 -14.5 14.5t-38.5 23t-59 14.5q-55 0 -91.5 -35.5t-36.5 -106.5t36.5 -107t92.5 -36q31 0 60 13t43 26z
" />
    <glyph glyph-name="d" unicode="d" horiz-adv-x="564" 
d="M500 0h-110l-12 66q-53 -76 -146 -76q-91 0 -147 68t-56 176t57 176t149 68q95 0 143 -78v255h122v-655zM381 236q0 63 -29.5 106t-82.5 43q-52 0 -83.5 -43t-31.5 -106q0 -64 30 -107t82 -43q53 0 84 43t31 107z" />
    <glyph glyph-name="e" unicode="e" horiz-adv-x="500" 
d="M474 205h-322q2 -59 36.5 -91t91.5 -32q81 0 140 48l42 -74q-3 -3 -8 -7.5t-23 -15.5t-38.5 -20t-55.5 -16t-73 -7q-105 0 -170 65t-65 179t65.5 179t168.5 65q98 0 154.5 -65t56.5 -170v-38zM358 285q0 48 -25 79t-75 31q-49 0 -76.5 -32t-31.5 -78h208z" />
    <glyph glyph-name="f" unicode="f" horiz-adv-x="300" 
d="M335 644l-15 -79q-33 11 -57 11q-37 0 -52 -21q-12 -17 -12 -59v-27h112v-89h-111v-380h-122v380h-62v89h62v46q0 66 38 104q43 43 119 43q51 0 100 -18z" />
    <glyph glyph-name="g" unicode="g" horiz-adv-x="557" 
d="M495 100q0 -137 -54 -198q-68 -76 -195 -76q-62 0 -116.5 18t-81.5 36l40 86q72 -45 153 -45q69 0 103 34q32 32 32 100v37q-6 -12 -19.5 -27t-48.5 -33t-78 -18q-91 0 -146 64.5t-55 168.5q0 102 58 166.5t148 64.5q33 0 60 -9.5t43 -25t23 -25t12 -18.5l10 69h112v-369
zM376 248q0 59 -29 98t-80 39q-52 0 -82.5 -39.5t-30.5 -97.5q0 -59 29.5 -97.5t80.5 -38.5q52 0 82 39t30 97z" />
    <glyph glyph-name="h" unicode="h" horiz-adv-x="551" 
d="M492 0h-121v272q0 50 -18 77t-63 27q-42 0 -70 -32t-35 -69v-275h-122v655h122v-265q57 88 151 88q156 0 156 -178v-300z" />
    <glyph glyph-name="i" unicode="i" horiz-adv-x="249" 
d="M196 608q0 -31 -20 -50.5t-51 -19.5t-52 19.5t-21 49.5t20.5 49.5t51.5 19.5t51.5 -19t20.5 -49zM185 0h-122v469h122v-469z" />
    <glyph glyph-name="j" unicode="j" horiz-adv-x="251" 
d="M199 608q0 -31 -20.5 -50.5t-51.5 -19.5t-51.5 19.5t-20.5 49.5t20.5 49.5t50.5 19.5q31 0 52 -19t21 -49zM188 469v-471q0 -87 -32 -125q-41 -47 -113 -47q-49 0 -84 16l12 87q19 -7 41 -7q26 0 38 12q16 16 16 73v462h122z" />
    <glyph glyph-name="k" unicode="k" horiz-adv-x="507" 
d="M507 0h-140l-131 197l-51 -50v-147h-122v655h122v-374l169 188h143l-180 -184z" />
    <glyph glyph-name="l" unicode="l" horiz-adv-x="249" 
d="M185 0h-122v655h122v-655z" />
    <glyph glyph-name="m" unicode="m" horiz-adv-x="823" 
d="M764 0h-121v280q0 46 -15.5 71t-56.5 25q-39 0 -65 -34t-31 -67v-275h-122v280q0 46 -15.5 71t-55.5 25q-39 0 -65.5 -34t-31.5 -67v-275h-122v469h114l8 -79q53 88 143 88q106 0 134 -94q62 94 155 94q68 0 107.5 -42.5t39.5 -127.5v-308z" />
    <glyph glyph-name="n" unicode="n" horiz-adv-x="551" 
d="M492 0h-121v272q0 50 -18 77t-63 27q-42 0 -70 -32t-35 -69v-275h-122v469h114l8 -79q57 88 151 88q156 0 156 -178v-300z" />
    <glyph glyph-name="o" unicode="o" horiz-adv-x="534" 
d="M505 234q0 -112 -65.5 -178t-172.5 -66t-172.5 66t-65.5 178t65.5 178t172.5 66t172.5 -66t65.5 -178zM380 234q0 67 -29.5 109.5t-83.5 42.5t-83.5 -42t-29.5 -110q0 -67 29.5 -109.5t83.5 -42.5t83.5 42.5t29.5 109.5z" />
    <glyph glyph-name="p" unicode="p" horiz-adv-x="564" 
d="M534 235q0 -107 -58 -176t-149 -69q-92 0 -141 76v-232h-122v635h114l7 -69q52 78 148 78q91 0 146 -67.5t55 -175.5zM410 235q0 64 -30 107t-83 43q-52 0 -83.5 -43t-31.5 -106q0 -64 30 -107t82 -43q53 0 84.5 43t31.5 106z" />
    <glyph glyph-name="q" unicode="q" horiz-adv-x="564" 
d="M500 -166h-122v232q-53 -76 -146 -76q-91 0 -147 68t-56 176t57 176t149 68q95 0 143 -78l9 69h113v-635zM382 236q0 63 -30 106t-83 43q-52 0 -83.5 -43t-31.5 -106q0 -64 30 -107t82 -43q53 0 84.5 43t31.5 107z" />
    <glyph glyph-name="r" unicode="r" horiz-adv-x="367" 
d="M359 474l-15 -117q-16 7 -41 7q-44 0 -76 -32.5t-42 -81.5v-250h-122v469h114l8 -84q18 38 55 66t81 28z" />
    <glyph glyph-name="s" unicode="s" horiz-adv-x="435" 
d="M410 145q0 -66 -50 -110q-51 -45 -150 -45q-58 0 -113 25t-82 55l60 75q25 -26 66.5 -44t73.5 -18q75 0 75 44q0 5 -1.5 10t-5.5 9t-6.5 7.5t-9.5 7l-10 5t-11.5 4.5t-10.5 4t-11 4l-9 2q-54 17 -75 25q-18 7 -28 12.5t-30.5 20t-31.5 39t-11 55.5q0 67 51.5 107
t136.5 40q50 0 94.5 -15.5t64.5 -31.5l20 -16l-47 -77q-63 50 -129 50q-73 0 -73 -42q0 -30 65 -49q5 -2 8 -3q71 -22 89 -30q91 -39 91 -120z" />
    <glyph glyph-name="t" unicode="t" horiz-adv-x="341" 
d="M315 92l12 -87q-49 -15 -102 -15q-70 0 -106 35t-36 120v235h-66v89h66l8 122h113v-122h123v-89h-123v-212q0 -44 12 -62q14 -21 44 -21q27 0 55 7z" />
    <glyph glyph-name="u" unicode="u" 
d="M482 0h-114l-7 79q-58 -89 -146 -89q-157 0 -157 178v301h122v-276q0 -100 80 -100q41 0 67.5 31t32.5 68v277h122v-469z" />
    <glyph glyph-name="v" unicode="v" horiz-adv-x="490" 
d="M487 469l-178 -469h-128l-179 469h131l113 -347l113 347h128z" />
    <glyph glyph-name="w" unicode="w" horiz-adv-x="736" 
d="M724 469l-135 -469h-123l-98 334l-97 -334h-123l-136 469h124l82 -342l90 342h119l91 -342l81 342h125z" />
    <glyph glyph-name="x" unicode="x" horiz-adv-x="478" 
d="M480 0h-139l-104 173l-105 -173h-135l167 239l-157 230h137l97 -164l97 164h132l-157 -230z" />
    <glyph glyph-name="y" unicode="y" horiz-adv-x="495" 
d="M492 469l-198 -514q-28 -72 -60 -100.5t-84 -28.5q-31 0 -58.5 6t-39.5 12l-12 5l26 90q28 -14 53 -14q19 0 29.5 8.5t20.5 33.5l16 43l-178 459h131l113 -349l113 349h128z" />
    <glyph glyph-name="z" unicode="z" horiz-adv-x="439" 
d="M422 0h-405v75l250 304h-240v90h385v-76l-245 -299h255v-94z" />
    <glyph glyph-name="braceleft" unicode="{" horiz-adv-x="340" 
d="M305 -81l-5 -68l-90 8q-58 5 -80.5 37t-25.5 92l-8 130q-3 62 -14 85t-49 23h-18v86h17q38 0 49.5 23.5t14.5 84.5l7 130q3 60 26 92t81 37l89 8l6 -68l-55 -8q-22 -3 -32.5 -14t-13.5 -24t-4 -41l-7 -142q-3 -57 -22.5 -85t-66.5 -34v-4q47 -5 66 -33.5t22 -85.5l8 -142
q2 -29 4.5 -41.5t13 -23.5t32.5 -14z" />
    <glyph glyph-name="bar" unicode="|" horiz-adv-x="320" 
d="M206 -137h-92v821h92v-821z" />
    <glyph glyph-name="braceright" unicode="}" horiz-adv-x="340" 
d="M325 226h-17q-38 0 -49.5 -23.5t-14.5 -84.5l-7 -130q-3 -60 -26 -92t-81 -37l-89 -8l-6 68l55 8q22 3 32.5 13.5t13.5 23.5t4 41l7 143q3 57 22.5 85t66.5 34v4q-47 5 -66 33t-22 85l-8 143q-1 28 -4 41t-13.5 24t-32.5 14l-55 7l5 69l90 -8q57 -5 80 -37t26 -92l8 -130
q3 -62 14 -85t49 -23h18v-86z" />
    <glyph glyph-name="asciitilde" unicode="~" 
d="M450 394l76 -35q-47 -148 -156 -148q-28 0 -52.5 10t-33 16.5t-29.5 23.5q-19 17 -26 22.5t-23 13t-32 7.5q-25 0 -45.5 -24.5t-32.5 -63.5l-76 35q47 148 156 148q28 0 52.5 -9.5t33 -16.5t29.5 -24q19 -17 25.5 -22.5t23 -13t32.5 -7.5q25 0 45.5 25t32.5 63z" />
    <glyph glyph-name="uni00A0" unicode="&#xa0;" horiz-adv-x="172" 
 />
    <glyph glyph-name="exclamdown" unicode="&#xa1;" horiz-adv-x="302" 
d="M224 409q0 -30 -21 -50.5t-52 -20.5q-32 0 -52.5 20t-20.5 50t20.5 50.5t52.5 20.5q31 0 52 -20t21 -50zM217 -167h-133l19 438h95z" />
    <glyph glyph-name="cent" unicode="&#xa2;" 
d="M488 148q-61 -61 -142 -69v-90h-70v88q-92 8 -150.5 72t-58.5 168t58 167t151 73v88h70v-89q76 -7 142 -68l-48 -80q-4 7 -13.5 16.5t-32.5 22t-48 15.5v-287q66 8 94 53zM276 175v287q-43 -9 -69.5 -46t-26.5 -97q0 -61 26 -98t70 -46z" />
    <glyph glyph-name="sterling" unicode="&#xa3;" 
d="M510 0h-452v77l90 14q36 50 36 114q0 39 -13 78h-98v68h79l-6 19q-16 52 -16 97q0 83 62 132q58 46 143 46q107 0 175 -85l-61 -69q-4 7 -12.5 16.5t-37 26t-59.5 16.5q-49 0 -75 -27.5t-26 -64.5q0 -45 17 -90l5 -17h170v-67h-151q12 -40 12 -76q0 -60 -37 -115h255v-93
z" />
    <glyph glyph-name="currency" unicode="&#xa4;" 
d="M510 143l-61 -62l-82 82q-42 -28 -94 -28q-54 0 -93 28l-82 -82l-62 61l82 82q-27 40 -27 94q0 55 27 93l-82 82l61 62l82 -82q42 28 94 28q54 0 93 -28l82 82l62 -61l-82 -82q27 -40 27 -94q0 -55 -27 -93zM369 318q0 40 -28 68t-68 28t-68 -28t-28 -68t28 -68t68 -28
t68 28t28 68z" />
    <glyph glyph-name="yen" unicode="&#xa5;" 
d="M523 635l-151 -283h122v-68h-154l-9 -18v-51h163v-67h-163v-148h-115v147h-164v68h164v50l-9 19h-155v68h122l-151 283h134l117 -263l117 263h132z" />
    <glyph glyph-name="brokenbar" unicode="&#xa6;" horiz-adv-x="320" 
d="M206 357h-92v327h92v-327zM206 -137h-92v328h92v-328z" />
    <glyph glyph-name="section" unicode="&#xa7;" 
d="M492 265q0 -79 -64 -122q17 -11 32 -39t15 -64q0 -68 -52 -114q-57 -53 -162 -53q-123 0 -208 80l52 80q80 -68 158 -68q45 0 72 17.5t27 47.5q0 41 -62 61l-107 35q-58 19 -85 45q-42 40 -42 98q0 33 15.5 61.5t27 39t22.5 17.5q-45 31 -45 101q0 73 64 120
q52 37 143 37q109 0 192 -62l-45 -78q-27 23 -68.5 38.5t-78.5 15.5q-41 0 -69 -15t-28 -45q0 -8 2.5 -14.5t5.5 -11.5t8.5 -9.5t9.5 -7.5t12 -6t11 -4.5t11 -4t9 -2.5l101 -33q55 -18 85 -45q41 -41 41 -96zM394 238q0 47 -66 69l-66 22q-53 18 -62 23q-4 -2 -10 -5.5
t-15.5 -19t-9.5 -34.5q0 -47 65 -69l67 -22q59 -20 62 -22q4 2 10 5.5t15.5 18.5t9.5 34z" />
    <glyph glyph-name="dieresis" unicode="&#xa8;" horiz-adv-x="427" 
d="M354 589q0 -25 -15.5 -41.5t-40.5 -16.5t-41 16.5t-16 40.5q0 25 15.5 41t40.5 16t41 -16t16 -40zM187 589q0 -25 -16 -41.5t-41 -16.5t-41 16.5t-16 40.5q0 25 16 41t41 16t41 -16t16 -40z" />
    <glyph glyph-name="copyright" unicode="&#xa9;" horiz-adv-x="731" 
d="M694 318q0 -140 -94.5 -234.5t-234.5 -94.5t-234.5 94.5t-94.5 234.5t94.5 234.5t234.5 94.5t234.5 -94.5t94.5 -234.5zM645 318q0 116 -82 198t-198 82t-198 -82t-82 -198t82 -198.5t198 -82.5t198 82.5t82 198.5zM510 189q-49 -60 -142 -60q-73 0 -127 52t-54 138
t53.5 138t126.5 52q96 0 143 -58l-38 -56q-42 46 -97 46q-46 0 -77.5 -30.5t-31.5 -90.5q0 -59 32 -90t77 -31q59 0 96 45z" />
    <glyph glyph-name="ordfeminine" unicode="&#xaa;" horiz-adv-x="388" 
d="M360 295l-104 -1q-11 21 -11 41q-39 -48 -108 -48q-46 0 -78 25.5t-32 79.5q0 27 13 48.5t33.5 33t36 17.5t30.5 9q48 10 105 10v12q0 53 -72 53q-59 0 -106 -31l-26 66q21 12 61 23.5t80 11.5q81 0 119 -33q42 -37 42 -102v-136q0 -43 17 -79zM245 398l1 60
q-32 0 -63 -7q-17 -4 -27 -7t-21 -15t-11 -29q0 -45 56 -45q20 0 39.5 12t25.5 31z" />
    <glyph glyph-name="guillemotleft" unicode="&#xab;" horiz-adv-x="500" 
d="M454 91l-56 -48l-148 177v55l147 177l57 -47l-128 -157zM248 91l-57 -48l-147 177v55l147 177l57 -47l-128 -157z" />
    <glyph glyph-name="logicalnot" unicode="&#xac;" 
d="M489 158h-95v205h-352v92h447v-297z" />
    <glyph glyph-name="uni00AD" unicode="&#xad;" horiz-adv-x="315" 
d="M283 191h-251v92h251v-92z" />
    <glyph glyph-name="registered" unicode="&#xae;" horiz-adv-x="671" 
d="M647 464q0 -129 -89 -217.5t-218 -88.5q-128 0 -217 88.5t-89 217.5t88.5 217.5t217.5 88.5t218 -88.5t89 -217.5zM601 464q0 110 -75.5 185.5t-185.5 75.5t-185.5 -75.5t-75.5 -185.5t75.5 -185.5t185.5 -75.5t185.5 75.5t75.5 185.5zM490 294h-80l-74 132h-40v-132h-71
v342h132q51 0 85 -27t34 -78q0 -33 -15.5 -56t-28.5 -31t-24 -10zM400 531q0 52 -56 52h-49v-104h49q56 0 56 52z" />
    <glyph glyph-name="macron" unicode="&#xaf;" horiz-adv-x="427" 
d="M361 555h-295v66h295v-66z" />
    <glyph glyph-name="degree" unicode="&#xb0;" horiz-adv-x="380" 
d="M321 514q0 -56 -38 -94t-93 -38t-93 38t-38 94q0 55 38 93t93 38q56 0 93.5 -37.5t37.5 -93.5zM266 514q0 34 -21.5 55.5t-54.5 21.5t-54.5 -21.5t-21.5 -55.5t21.5 -56t54.5 -22t54.5 22t21.5 56z" />
    <glyph glyph-name="plusminus" unicode="&#xb1;" 
d="M496 303h-177v-170h-92v170h-177v93h177v170h92v-170h177v-93zM496 0h-446v93h446v-93z" />
    <glyph glyph-name="two.superior" unicode="&#xb2;" horiz-adv-x="415" 
d="M351 382h-305q7 53 35.5 95.5t89.5 89.5q29 22 41 32.5t22 24.5t10 28q0 25 -16.5 39t-44.5 14q-48 0 -94 -46l-38 61q15 18 52.5 37.5t91.5 19.5q62 0 100.5 -31.5t38.5 -84.5q0 -43 -23 -71.5t-70 -61.5q-70 -50 -77 -73h187v-73z" />
    <glyph glyph-name="three.superior" unicode="&#xb3;" horiz-adv-x="415" 
d="M347 491q0 -53 -46 -85t-106 -32q-77 0 -139 58l39 57q46 -46 95 -46q31 0 50.5 14.5t19.5 40.5q0 25 -17 39t-43 14h-49v64h44q25 0 40.5 12t15.5 34q0 21 -18 33.5t-44 12.5q-47 0 -86 -34l-32 58q46 46 128 46q56 0 97 -26.5t41 -74.5q0 -37 -20 -59.5t-45 -28.5
q30 -7 52.5 -32t22.5 -65z" />
    <glyph glyph-name="acute" unicode="&#xb4;" horiz-adv-x="427" 
d="M307 653l-100 -130h-87l68 130h119z" />
    <glyph glyph-name="mu" unicode="&#xb5;" horiz-adv-x="541" 
d="M477 0h-114l-7 79q-16 -29 -45.5 -53t-60.5 -24q-20 0 -37 4t-23 8l-7 4v-184h-122v635h121v-274q0 -51 17.5 -76.5t59.5 -25.5q39 0 65 32.5t31 66.5v277h122v-469z" />
    <glyph glyph-name="paragraph" unicode="&#xb6;" 
d="M522 570h-55v-707h-70v707h-73v-411h-40q-115 0 -180 64t-65 174t64.5 174t179.5 64h239v-65z" />
    <glyph glyph-name="periodcentered" unicode="&#xb7;" horiz-adv-x="273" 
d="M209 263q0 -30 -20.5 -50.5t-51.5 -20.5q-32 0 -52.5 20t-20.5 50t20.5 50.5t51.5 20.5q32 0 52.5 -20t20.5 -50z" />
    <glyph glyph-name="cedilla" unicode="&#xb8;" horiz-adv-x="427" 
d="M281 0l-60 -129h-115l88 129h87z" />
    <glyph glyph-name="one.superior" unicode="&#xb9;" horiz-adv-x="415" 
d="M267 382h-96v285q-28 -20 -72 -27l-19 66q19 0 63 24q41 22 51 43h73v-391z" />
    <glyph glyph-name="ordmasculine" unicode="&#xba;" horiz-adv-x="412" 
d="M385 465q0 -82 -49 -131t-130 -49t-130 49t-49 131t49 131t130 49t130 -49t49 -131zM285 466q0 49 -21 78.5t-58 29.5t-58 -29.5t-21 -78.5t21 -79t58 -30t58 30t21 79z" />
    <glyph glyph-name="guillemotright" unicode="&#xbb;" horiz-adv-x="500" 
d="M456 220l-147 -177l-57 47l128 157l-128 157l57 48l147 -177v-55zM250 220l-147 -177l-57 47l128 157l-128 157l56 48l148 -177v-55z" />
    <glyph glyph-name="onequarter" unicode="&#xbc;" horiz-adv-x="829" 
d="M768 78h-57v-78h-91v78h-193v67l180 244h104v-244h57v-67zM587 625l-379 -637l-55 34l380 637zM205 259h-95v285q-6 -6 -33 -15q-28 -12 -39 -12l-19 66q19 0 63 24q41 22 51 43h72v-391zM621 145v170l-121 -170h121z" />
    <glyph glyph-name="onehalf" unicode="&#xbd;" horiz-adv-x="829" 
d="M783 0h-305q4 32 14.5 59.5t30.5 50.5t30.5 33.5t33.5 29.5q7 6 24 19t25 20t19 18t15.5 20.5t4.5 19.5q0 52 -61 52q-50 0 -94 -46l-38 62q9 11 24.5 22t49 23t70.5 12q62 0 100.5 -32t38.5 -84q0 -10 -2 -20.5t-5 -18.5t-8.5 -17.5t-9.5 -15.5t-12 -14l-12 -12
t-13 -11.5t-11.5 -9.5t-11.5 -8l-8 -6q-2 -2 -15.5 -12.5t-19 -15.5t-15.5 -14t-15.5 -16.5t-7.5 -14.5h184v-73zM588 625l-380 -637l-55 34l380 637zM205 259h-95v285q-6 -6 -33 -15q-28 -12 -39 -12l-19 66q19 0 63 24q41 22 51 43h72v-391z" />
    <glyph glyph-name="threequarters" unicode="&#xbe;" horiz-adv-x="829" 
d="M793 78h-57v-78h-91v78h-193v67l180 244h104v-244h57v-67zM632 625l-379 -637l-55 34l379 637zM317 370q0 -53 -46 -85t-106 -32q-77 0 -139 58l39 57q46 -46 95 -46q31 0 50.5 14.5t19.5 40.5q0 25 -17 39t-43 14h-49v64h44q25 0 40.5 12t15.5 34q0 21 -18 33.5
t-44 12.5q-47 0 -86 -34l-32 58q46 46 128 46q56 0 97 -26.5t41 -74.5q0 -37 -20 -59.5t-45 -28.5q30 -7 52.5 -32t22.5 -65zM646 145v170l-121 -170h121z" />
    <glyph glyph-name="questiondown" unicode="&#xbf;" horiz-adv-x="449" 
d="M241 -78q43 0 77.5 19t52.5 38l53 -80q-13 -13 -32 -27.5t-66.5 -31.5t-101.5 -17q-87 0 -141 46t-54 112q0 30 7.5 54.5t23.5 44t23 26.5t25 22l60 50q20 16 25.5 28t6.5 32v33h99l1 -42q1 -38 -6.5 -60t-36.5 -44l-53 -44q-1 -1 -10.5 -9t-12.5 -10.5t-11 -10
t-11 -12.5t-7.5 -12t-6 -15t-1.5 -16q0 -32 24.5 -53t72.5 -21zM322 409q0 -30 -20.5 -50.5t-51.5 -20.5q-32 0 -52.5 20t-20.5 50t20.5 50.5t52.5 20.5q31 0 51.5 -20t20.5 -50z" />
    <glyph glyph-name="Agrave" unicode="&#xc0;" horiz-adv-x="588" 
d="M593 0h-134l-46 139h-248l-46 -139h-124l223 635h150zM382 238l-93 280l-94 -280h187zM342 690h-86l-100 130h118z" />
    <glyph glyph-name="Aacute" unicode="&#xc1;" horiz-adv-x="588" 
d="M593 0h-134l-46 139h-248l-46 -139h-124l223 635h150zM382 238l-93 280l-94 -280h187zM432 820l-100 -130h-87l68 130h119z" />
    <glyph glyph-name="Acircumflex" unicode="&#xc2;" horiz-adv-x="588" 
d="M593 0h-134l-46 139h-248l-46 -139h-124l223 635h150zM382 238l-93 280l-94 -280h187zM436 690h-85l-59 82l-61 -82h-84l88 130h113z" />
    <glyph glyph-name="Atilde" unicode="&#xc3;" horiz-adv-x="588" 
d="M593 0h-134l-46 139h-248l-46 -139h-124l223 635h150zM382 238l-93 280l-94 -280h187zM395 812l58 -7q0 -43 -28 -76t-67 -33q-13 0 -24 2t-20.5 6.5t-14 6.5t-13.5 9l-9 6q-32 20 -46 20q-32 0 -39 -48l-58 7q0 43 28 76t67 33q13 0 24 -2t20.5 -6.5t14 -6.5t13.5 -9
l9 -6q32 -20 46 -20q32 0 39 48z" />
    <glyph glyph-name="Adieresis" unicode="&#xc4;" horiz-adv-x="588" 
d="M593 0h-134l-46 139h-248l-46 -139h-124l223 635h150zM382 238l-93 280l-94 -280h187zM430 756q0 -25 -15.5 -41.5t-40.5 -16.5t-41 16.5t-16 40.5q0 25 15.5 41t40.5 16t41 -16t16 -40zM263 756q0 -25 -16 -41.5t-41 -16.5t-41 16.5t-16 40.5q0 25 16 41t41 16t41 -16
t16 -40z" />
    <glyph glyph-name="Aring" unicode="&#xc5;" horiz-adv-x="588" 
d="M593 0h-134l-46 139h-248l-46 -139h-124l223 635h150zM382 238l-93 280l-94 -280h187zM384 769q0 -39 -25.5 -64t-64.5 -25t-64.5 25t-25.5 64t25.5 64t64.5 25t64.5 -25t25.5 -64zM338 769q0 19 -12.5 31.5t-31.5 12.5t-31.5 -12.5t-12.5 -31.5t12.5 -31.5t31.5 -12.5
t31.5 12.5t12.5 31.5z" />
    <glyph glyph-name="AE" unicode="&#xc6;" horiz-adv-x="843" 
d="M805 0h-396v162h-222l-88 -162h-139l361 635h475v-99h-262v-154h242v-100h-242v-180h271v-102zM409 259v279h-21l-153 -279h174z" />
    <glyph glyph-name="Ccedilla" unicode="&#xc7;" horiz-adv-x="596" 
d="M514 191l65 -85q-2 -4 -6.5 -10.5t-22 -24t-38 -32t-55 -28.5t-73.5 -18l-60 -125h-118l86 126q-105 12 -180 94.5t-75 229.5q0 151 90 239t218 88q45 0 86 -11.5t65 -26t44.5 -33.5t27 -27.5t9.5 -14.5l-66 -83l-6 9t-18.5 21t-31.5 26t-45 20.5t-59 9.5
q-83 0 -134.5 -59t-51.5 -156q0 -98 50.5 -157t133.5 -59q49 0 90 22t58 44z" />
    <glyph glyph-name="Egrave" unicode="&#xc8;" horiz-adv-x="528" 
d="M490 0h-417v635h408v-99h-282v-154h262v-100h-262v-180h291v-102zM341 690h-86l-100 130h118z" />
    <glyph glyph-name="Eacute" unicode="&#xc9;" horiz-adv-x="528" 
d="M490 0h-417v635h408v-99h-282v-154h262v-100h-262v-180h291v-102zM394 820l-100 -130h-87l68 130h119z" />
    <glyph glyph-name="Ecircumflex" unicode="&#xca;" horiz-adv-x="528" 
d="M490 0h-417v635h408v-99h-282v-154h262v-100h-262v-180h291v-102zM421 690h-85l-59 82l-61 -82h-84l88 130h113z" />
    <glyph glyph-name="Edieresis" unicode="&#xcb;" horiz-adv-x="528" 
d="M490 0h-417v635h408v-99h-282v-154h262v-100h-262v-180h291v-102zM417 756q0 -25 -15.5 -41.5t-40.5 -16.5t-41 16.5t-16 40.5q0 25 15.5 41t40.5 16t41 -16t16 -40zM250 756q0 -25 -16 -41.5t-41 -16.5t-41 16.5t-16 40.5q0 25 16 41t41 16t41 -16t16 -40z" />
    <glyph glyph-name="Igrave" unicode="&#xcc;" horiz-adv-x="273" 
d="M199 0h-126v635h126v-635zM199 690h-86l-100 130h118z" />
    <glyph glyph-name="Iacute" unicode="&#xcd;" horiz-adv-x="273" 
d="M199 0h-126v635h126v-635zM260 820l-100 -130h-87l68 130h119z" />
    <glyph glyph-name="Icircumflex" unicode="&#xce;" horiz-adv-x="273" 
d="M199 0h-126v635h126v-635zM281 690h-85l-59 82l-61 -82h-84l88 130h113z" />
    <glyph glyph-name="Idieresis" unicode="&#xcf;" horiz-adv-x="273" 
d="M199 0h-126v635h126v-635zM276 756q0 -25 -15.5 -41.5t-40.5 -16.5t-41 16.5t-16 40.5q0 25 15.5 41t40.5 16t41 -16t16 -40zM109 756q0 -25 -16 -41.5t-41 -16.5t-41 16.5t-16 40.5q0 25 16 41t41 16t41 -16t16 -40z" />
    <glyph glyph-name="Eth" unicode="&#xd0;" horiz-adv-x="655" 
d="M618 318q0 -153 -98 -242q-84 -76 -227 -76h-220v283h-52v86h52v266h219q144 0 228 -76q98 -89 98 -241zM489 319q0 109 -58 165q-51 52 -141 52h-91v-167h121v-86h-121v-182h91q89 0 141 52q58 58 58 166z" />
    <glyph glyph-name="Ntilde" unicode="&#xd1;" horiz-adv-x="671" 
d="M598 0h-121l-285 460v-460h-119v635h135l271 -437v437h119v-635zM437 812l58 -7q0 -43 -28 -76t-67 -33q-13 0 -24 2t-20.5 6.5t-14 6.5t-13.5 9l-9 6q-32 20 -46 20q-32 0 -39 -48l-58 7q0 43 28 76t67 33q13 0 24 -2t20.5 -6.5t14 -6.5t13.5 -9l9 -6q32 -20 46 -20
q32 0 39 48z" />
    <glyph glyph-name="Ograve" unicode="&#xd2;" horiz-adv-x="696" 
d="M659 318q0 -147 -84.5 -237.5t-226.5 -90.5t-226.5 90t-84.5 238q0 147 84.5 237t226.5 90t226.5 -90t84.5 -237zM530 319q0 98 -48.5 159.5t-133.5 61.5t-133.5 -61.5t-48.5 -159.5t48.5 -160t133.5 -62t133.5 62t48.5 160zM392 690h-86l-100 130h118z" />
    <glyph glyph-name="Oacute" unicode="&#xd3;" horiz-adv-x="696" 
d="M659 318q0 -147 -84.5 -237.5t-226.5 -90.5t-226.5 90t-84.5 238q0 147 84.5 237t226.5 90t226.5 -90t84.5 -237zM530 319q0 98 -48.5 159.5t-133.5 61.5t-133.5 -61.5t-48.5 -159.5t48.5 -160t133.5 -62t133.5 62t48.5 160zM490 820l-100 -130h-87l68 130h119z" />
    <glyph glyph-name="Ocircumflex" unicode="&#xd4;" horiz-adv-x="696" 
d="M659 318q0 -147 -84.5 -237.5t-226.5 -90.5t-226.5 90t-84.5 238q0 147 84.5 237t226.5 90t226.5 -90t84.5 -237zM530 319q0 98 -48.5 159.5t-133.5 61.5t-133.5 -61.5t-48.5 -159.5t48.5 -160t133.5 -62t133.5 62t48.5 160zM493 690h-85l-59 82l-61 -82h-84l88 130h113z
" />
    <glyph glyph-name="Otilde" unicode="&#xd5;" horiz-adv-x="696" 
d="M659 318q0 -147 -84.5 -237.5t-226.5 -90.5t-226.5 90t-84.5 238q0 147 84.5 237t226.5 90t226.5 -90t84.5 -237zM530 319q0 98 -48.5 159.5t-133.5 61.5t-133.5 -61.5t-48.5 -159.5t48.5 -160t133.5 -62t133.5 62t48.5 160zM449 812l58 -7q0 -43 -28 -76t-67 -33
q-13 0 -24 2t-20.5 6.5t-14 6.5t-13.5 9l-9 6q-32 20 -46 20q-32 0 -39 -48l-58 7q0 43 28 76t67 33q13 0 24 -2t20.5 -6.5t14 -6.5t13.5 -9l9 -6q32 -20 46 -20q32 0 39 48z" />
    <glyph glyph-name="Odieresis" unicode="&#xd6;" horiz-adv-x="696" 
d="M659 318q0 -147 -84.5 -237.5t-226.5 -90.5t-226.5 90t-84.5 238q0 147 84.5 237t226.5 90t226.5 -90t84.5 -237zM530 319q0 98 -48.5 159.5t-133.5 61.5t-133.5 -61.5t-48.5 -159.5t48.5 -160t133.5 -62t133.5 62t48.5 160zM488 756q0 -25 -15.5 -41.5t-40.5 -16.5
t-41 16.5t-16 40.5q0 25 15.5 41t40.5 16t41 -16t16 -40zM321 756q0 -25 -16 -41.5t-41 -16.5t-41 16.5t-16 40.5q0 25 16 41t41 16t41 -16t16 -40z" />
    <glyph glyph-name="multiply" unicode="&#xd7;" 
d="M470 175l-65 -66l-132 133l-132 -133l-65 66l132 132l-132 132l65 65l132 -132l132 132l65 -65l-132 -132z" />
    <glyph glyph-name="Oslash" unicode="&#xd8;" horiz-adv-x="696" 
d="M659 318q0 -148 -84.5 -238t-226.5 -90q-101 0 -175 48l-58 -73l-57 44l60 75q-81 89 -81 234q0 147 84.5 237t226.5 90q101 0 178 -50l55 70l57 -44l-58 -73q79 -90 79 -230zM454 506q-43 34 -106 34q-86 0 -134 -61t-48 -160q0 -79 32 -135zM530 319q0 75 -29 130
l-255 -320q43 -32 102 -32q85 0 133.5 62t48.5 160z" />
    <glyph glyph-name="Ugrave" unicode="&#xd9;" horiz-adv-x="640" 
d="M447 245v390h126v-383q0 -128 -56 -191q-63 -71 -197 -71q-135 0 -197 71q-57 62 -57 190v384h126v-390q0 -73 26 -104q34 -40 101 -40q68 0 102 40q26 31 26 104zM378 690h-86l-100 130h118z" />
    <glyph glyph-name="Uacute" unicode="&#xda;" horiz-adv-x="640" 
d="M447 245v390h126v-383q0 -128 -56 -191q-63 -71 -197 -71q-135 0 -197 71q-57 62 -57 190v384h126v-390q0 -73 26 -104q34 -40 101 -40q68 0 102 40q26 31 26 104zM448 820l-100 -130h-87l68 130h119z" />
    <glyph glyph-name="Ucircumflex" unicode="&#xdb;" horiz-adv-x="640" 
d="M447 245v390h126v-383q0 -128 -56 -191q-63 -71 -197 -71q-135 0 -197 71q-57 62 -57 190v384h126v-390q0 -73 26 -104q34 -40 101 -40q68 0 102 40q26 31 26 104zM464 690h-85l-59 82l-61 -82h-84l88 130h113z" />
    <glyph glyph-name="Udieresis" unicode="&#xdc;" horiz-adv-x="640" 
d="M447 245v390h126v-383q0 -128 -56 -191q-63 -71 -197 -71q-135 0 -197 71q-57 62 -57 190v384h126v-390q0 -73 26 -104q34 -40 101 -40q68 0 102 40q26 31 26 104zM460 756q0 -25 -15.5 -41.5t-40.5 -16.5t-41 16.5t-16 40.5q0 25 15.5 41t40.5 16t41 -16t16 -40z
M293 756q0 -25 -16 -41.5t-41 -16.5t-41 16.5t-16 40.5q0 25 16 41t41 16t41 -16t16 -40z" />
    <glyph glyph-name="Yacute" unicode="&#xdd;" horiz-adv-x="563" 
d="M563 635l-218 -376v-259h-126v259l-219 376h139l144 -278l143 278h137zM411 820l-100 -130h-87l68 130h119z" />
    <glyph glyph-name="Thorn" unicode="&#xde;" horiz-adv-x="558" 
d="M520 333q0 -105 -68 -158q-61 -47 -168 -47h-85v-128h-126v635h126v-97h85q104 0 168 -48q68 -53 68 -157zM394 333q0 58 -39 86q-29 22 -91 22h-65v-217h64q61 0 92 22q39 29 39 87z" />
    <glyph glyph-name="germandbls" unicode="&#xdf;" horiz-adv-x="555" 
d="M522 193q0 -94 -58 -148.5t-142 -54.5q-63 0 -89 16l17 86q25 -10 55 -10q36 0 65 29t29 88q0 61 -37 90t-87 29h-29v87h24q42 0 65.5 24.5t23.5 64.5q0 39 -23 61t-58 22q-41 0 -65 -24q-28 -28 -28 -83v-470h-122v455q0 100 59 155q58 52 163 52q81 0 134.5 -43
t53.5 -111q0 -62 -34.5 -98.5t-66.5 -41.5q63 -10 106.5 -55.5t43.5 -119.5z" />
    <glyph glyph-name="agrave" unicode="&#xe0;" horiz-adv-x="496" 
d="M465 0h-130q-10 29 -10 54q-55 -64 -142 -64q-63 0 -108.5 35.5t-45.5 108.5q0 108 136 142q64 16 157 16v22q0 76 -97 76q-77 0 -142 -42l-33 84q84 46 185 46t153 -44q55 -45 55 -139v-190q0 -64 22 -105zM322 134v86q-46 0 -88 -7q-82 -14 -82 -70q0 -36 21 -52
t52 -16q63 0 97 59zM306 523h-86l-100 130h118z" />
    <glyph glyph-name="aacute" unicode="&#xe1;" horiz-adv-x="496" 
d="M465 0h-130q-10 29 -10 54q-55 -64 -142 -64q-63 0 -108.5 35.5t-45.5 108.5q0 108 136 142q64 16 157 16v22q0 76 -97 76q-77 0 -142 -42l-33 84q84 46 185 46t153 -44q55 -45 55 -139v-190q0 -64 22 -105zM322 134v86q-46 0 -88 -7q-82 -14 -82 -70q0 -36 21 -52
t52 -16q63 0 97 59zM372 653l-100 -130h-87l68 130h119z" />
    <glyph glyph-name="acircumflex" unicode="&#xe2;" horiz-adv-x="496" 
d="M465 0h-130q-10 29 -10 54q-55 -64 -142 -64q-63 0 -108.5 35.5t-45.5 108.5q0 108 136 142q64 16 157 16v22q0 76 -97 76q-77 0 -142 -42l-33 84q84 46 185 46t153 -44q55 -45 55 -139v-190q0 -64 22 -105zM322 134v86q-46 0 -88 -7q-82 -14 -82 -70q0 -36 21 -52
t52 -16q63 0 97 59zM391 523h-85l-59 82l-61 -82h-84l88 130h113z" />
    <glyph glyph-name="atilde" unicode="&#xe3;" horiz-adv-x="496" 
d="M465 0h-130q-10 29 -10 54q-55 -64 -142 -64q-63 0 -108.5 35.5t-45.5 108.5q0 108 136 142q64 16 157 16v22q0 76 -97 76q-77 0 -142 -42l-33 84q84 46 185 46t153 -44q55 -45 55 -139v-190q0 -64 22 -105zM322 134v86q-46 0 -88 -7q-82 -14 -82 -70q0 -36 21 -52
t52 -16q63 0 97 59zM356 645l58 -7q0 -43 -28 -76t-67 -33q-13 0 -24 2t-20.5 6.5t-14 6.5t-13.5 8l-9 7q-32 20 -46 20q-32 0 -39 -48l-58 7q0 43 28 76t67 33q13 0 24 -2t20.5 -6.5t14 -6.5t13.5 -8l9 -7q32 -20 46 -20q32 0 39 48z" />
    <glyph glyph-name="adieresis" unicode="&#xe4;" horiz-adv-x="496" 
d="M465 0h-130q-10 29 -10 54q-55 -64 -142 -64q-63 0 -108.5 35.5t-45.5 108.5q0 108 136 142q64 16 157 16v22q0 76 -97 76q-77 0 -142 -42l-33 84q84 46 185 46t153 -44q55 -45 55 -139v-190q0 -64 22 -105zM322 134v86q-46 0 -88 -7q-82 -14 -82 -70q0 -36 21 -52
t52 -16q63 0 97 59zM388 589q0 -25 -15.5 -41.5t-40.5 -16.5t-41 16.5t-16 40.5q0 25 15.5 41t40.5 16t41 -16t16 -40zM221 589q0 -25 -16 -41.5t-41 -16.5t-41 16.5t-16 40.5q0 25 16 41t41 16t41 -16t16 -40z" />
    <glyph glyph-name="aring" unicode="&#xe5;" horiz-adv-x="496" 
d="M465 0h-130q-10 29 -10 54q-55 -64 -142 -64q-63 0 -108.5 35.5t-45.5 108.5q0 108 136 142q64 16 157 16v22q0 76 -97 76q-77 0 -142 -42l-33 84q84 46 185 46t153 -44q55 -45 55 -139v-190q0 -64 22 -105zM322 134v86q-46 0 -88 -7q-82 -14 -82 -70q0 -36 21 -52
t52 -16q63 0 97 59zM336 602q0 -39 -25.5 -64t-64.5 -25t-64.5 25t-25.5 64t25.5 64t64.5 25t64.5 -25t25.5 -64zM290 602q0 19 -12.5 31.5t-31.5 12.5t-31.5 -12.5t-12.5 -31.5t12.5 -31.5t31.5 -12.5t31.5 12.5t12.5 31.5z" />
    <glyph glyph-name="ae" unicode="&#xe6;" horiz-adv-x="789" 
d="M763 213h-323v-8q4 -59 37.5 -91t90.5 -32q81 0 140 48l43 -74q-3 -3 -8 -7.5t-23 -15.5t-39 -20t-56 -16t-73 -7q-119 0 -184 83q-69 -83 -183 -83q-64 0 -110 35t-46 106q0 110 137 142q59 14 156 14v27q0 76 -97 76q-77 0 -142 -42l-33 84q84 46 185 46q78 0 124 -29
q30 -20 36 -39q59 68 156 68q99 0 155.5 -65t56.5 -168v-32zM647 289q0 45 -25.5 75.5t-74.5 30.5t-76.5 -31.5t-31.5 -74.5h208zM333 137q-14 38 -14 78q-48 0 -80 -6q-87 -16 -87 -69q0 -34 22.5 -49.5t53.5 -15.5q28 0 57.5 16t47.5 46z" />
    <glyph glyph-name="ccedilla" unicode="&#xe7;" horiz-adv-x="458" 
d="M395 145l53 -80q-50 -61 -147 -72l-58 -122h-116l84 123q-33 6 -63 22t-57.5 43t-44.5 72.5t-17 102.5q0 114 70 179t166 65q54 0 98.5 -19t60 -33.5t22.5 -24.5l-56 -75q-5 6 -14.5 14.5t-38.5 23t-59 14.5q-55 0 -91.5 -35.5t-36.5 -106.5t36.5 -107t92.5 -36
q31 0 60 13t43 26z" />
    <glyph glyph-name="egrave" unicode="&#xe8;" horiz-adv-x="500" 
d="M474 205h-322q2 -59 36.5 -91t91.5 -32q81 0 140 48l42 -74q-3 -3 -8 -7.5t-23 -15.5t-38.5 -20t-55.5 -16t-73 -7q-105 0 -170 65t-65 179t65.5 179t168.5 65q98 0 154.5 -65t56.5 -170v-38zM358 285q0 48 -25 79t-75 31q-49 0 -76.5 -32t-31.5 -78h208zM314 523h-86
l-100 130h118z" />
    <glyph glyph-name="eacute" unicode="&#xe9;" horiz-adv-x="500" 
d="M474 205h-322q2 -59 36.5 -91t91.5 -32q81 0 140 48l42 -74q-3 -3 -8 -7.5t-23 -15.5t-38.5 -20t-55.5 -16t-73 -7q-105 0 -170 65t-65 179t65.5 179t168.5 65q98 0 154.5 -65t56.5 -170v-38zM358 285q0 48 -25 79t-75 31q-49 0 -76.5 -32t-31.5 -78h208zM384 653
l-100 -130h-87l68 130h119z" />
    <glyph glyph-name="ecircumflex" unicode="&#xea;" horiz-adv-x="500" 
d="M474 205h-322q2 -59 36.5 -91t91.5 -32q81 0 140 48l42 -74q-3 -3 -8 -7.5t-23 -15.5t-38.5 -20t-55.5 -16t-73 -7q-105 0 -170 65t-65 179t65.5 179t168.5 65q98 0 154.5 -65t56.5 -170v-38zM358 285q0 48 -25 79t-75 31q-49 0 -76.5 -32t-31.5 -78h208zM410 523h-85
l-59 82l-61 -82h-84l88 130h113z" />
    <glyph glyph-name="edieresis" unicode="&#xeb;" horiz-adv-x="500" 
d="M474 205h-322q2 -59 36.5 -91t91.5 -32q81 0 140 48l42 -74q-3 -3 -8 -7.5t-23 -15.5t-38.5 -20t-55.5 -16t-73 -7q-105 0 -170 65t-65 179t65.5 179t168.5 65q98 0 154.5 -65t56.5 -170v-38zM358 285q0 48 -25 79t-75 31q-49 0 -76.5 -32t-31.5 -78h208zM403 589
q0 -25 -15.5 -41.5t-40.5 -16.5t-41 16.5t-16 40.5q0 25 15.5 41t40.5 16t41 -16t16 -40zM236 589q0 -25 -16 -41.5t-41 -16.5t-41 16.5t-16 40.5q0 25 16 41t41 16t41 -16t16 -40z" />
    <glyph glyph-name="igrave" unicode="&#xec;" horiz-adv-x="249" 
d="M185 0h-122v469h122v-469zM186 523h-86l-100 130h118z" />
    <glyph glyph-name="iacute" unicode="&#xed;" horiz-adv-x="249" 
d="M185 0h-122v469h122v-469zM250 653l-100 -130h-87l68 130h119z" />
    <glyph glyph-name="icircumflex" unicode="&#xee;" horiz-adv-x="249" 
d="M185 0h-122v469h122v-469zM269 523h-85l-59 82l-61 -82h-84l88 130h113z" />
    <glyph glyph-name="idieresis" unicode="&#xef;" horiz-adv-x="249" 
d="M185 0h-122v469h122v-469zM264 589q0 -25 -15.5 -41.5t-40.5 -16.5t-41 16.5t-16 40.5q0 25 15.5 41t40.5 16t41 -16t16 -40zM97 589q0 -25 -16 -41.5t-41 -16.5t-41 16.5t-16 40.5q0 25 16 41t41 16t41 -16t16 -40z" />
    <glyph glyph-name="eth" unicode="&#xf0;" horiz-adv-x="534" 
d="M505 237q0 -112 -65 -179.5t-172 -67.5t-173 63t-66 163q0 96 62 156.5t149 60.5q45 0 77 -16.5t44 -31.5q-25 71 -100 138l-79 -55l-37 48l67 45q-14 11 -42 27.5t-45 23.5l32 66q82 -29 127 -61l82 58l38 -48l-67 -45q45 -35 81 -83q87 -112 87 -262zM380 219
q0 60 -30 98.5t-83 38.5t-83 -38.5t-30 -98.5t30 -98.5t83 -38.5t83 38.5t30 98.5z" />
    <glyph glyph-name="ntilde" unicode="&#xf1;" horiz-adv-x="551" 
d="M492 0h-121v272q0 50 -18 77t-63 27q-42 0 -70 -32t-35 -69v-275h-122v469h114l8 -79q57 88 151 88q156 0 156 -178v-300zM384 645l58 -7q0 -43 -28 -76t-67 -33q-13 0 -24 2t-20.5 6.5t-14 6.5t-13.5 8l-9 7q-32 20 -46 20q-32 0 -39 -48l-58 7q0 43 28 76t67 33
q13 0 24 -2t20.5 -6.5t14 -6.5t13.5 -8l9 -7q32 -20 46 -20q32 0 39 48z" />
    <glyph glyph-name="ograve" unicode="&#xf2;" horiz-adv-x="534" 
d="M505 234q0 -112 -65.5 -178t-172.5 -66t-172.5 66t-65.5 178t65.5 178t172.5 66t172.5 -66t65.5 -178zM380 234q0 67 -29.5 109.5t-83.5 42.5t-83.5 -42t-29.5 -110q0 -67 29.5 -109.5t83.5 -42.5t83.5 42.5t29.5 109.5zM316 523h-86l-100 130h118z" />
    <glyph glyph-name="oacute" unicode="&#xf3;" horiz-adv-x="534" 
d="M505 234q0 -112 -65.5 -178t-172.5 -66t-172.5 66t-65.5 178t65.5 178t172.5 66t172.5 -66t65.5 -178zM380 234q0 67 -29.5 109.5t-83.5 42.5t-83.5 -42t-29.5 -110q0 -67 29.5 -109.5t83.5 -42.5t83.5 42.5t29.5 109.5zM404 653l-100 -130h-87l68 130h119z" />
    <glyph glyph-name="ocircumflex" unicode="&#xf4;" horiz-adv-x="534" 
d="M505 234q0 -112 -65.5 -178t-172.5 -66t-172.5 66t-65.5 178t65.5 178t172.5 66t172.5 -66t65.5 -178zM380 234q0 67 -29.5 109.5t-83.5 42.5t-83.5 -42t-29.5 -110q0 -67 29.5 -109.5t83.5 -42.5t83.5 42.5t29.5 109.5zM412 523h-85l-59 82l-61 -82h-84l88 130h113z" />
    <glyph glyph-name="otilde" unicode="&#xf5;" horiz-adv-x="534" 
d="M505 234q0 -112 -65.5 -178t-172.5 -66t-172.5 66t-65.5 178t65.5 178t172.5 66t172.5 -66t65.5 -178zM380 234q0 67 -29.5 109.5t-83.5 42.5t-83.5 -42t-29.5 -110q0 -67 29.5 -109.5t83.5 -42.5t83.5 42.5t29.5 109.5zM370 645l58 -7q0 -43 -28 -76t-67 -33
q-13 0 -24 2t-20.5 6.5t-14 6.5t-13.5 8l-9 7q-32 20 -46 20q-32 0 -39 -48l-58 7q0 43 28 76t67 33q13 0 24 -2t20.5 -6.5t14 -6.5t13.5 -8l9 -7q32 -20 46 -20q32 0 39 48z" />
    <glyph glyph-name="odieresis" unicode="&#xf6;" horiz-adv-x="534" 
d="M505 234q0 -112 -65.5 -178t-172.5 -66t-172.5 66t-65.5 178t65.5 178t172.5 66t172.5 -66t65.5 -178zM380 234q0 67 -29.5 109.5t-83.5 42.5t-83.5 -42t-29.5 -110q0 -67 29.5 -109.5t83.5 -42.5t83.5 42.5t29.5 109.5zM407 589q0 -25 -15.5 -41.5t-40.5 -16.5t-41 16.5
t-16 40.5q0 25 15.5 41t40.5 16t41 -16t16 -40zM240 589q0 -25 -16 -41.5t-41 -16.5t-41 16.5t-16 40.5q0 25 16 41t41 16t41 -16t16 -40z" />
    <glyph glyph-name="divide" unicode="&#xf7;" 
d="M346 501q0 -30 -20.5 -50.5t-52.5 -20.5q-31 0 -52 20t-21 50t20.5 50.5t52.5 20.5q31 0 52 -20t21 -50zM496 260h-446v93h446v-93zM346 113q0 -30 -20.5 -50t-52.5 -20q-31 0 -52 20t-21 50t20.5 50t52.5 20q31 0 52 -20t21 -50z" />
    <glyph glyph-name="oslash" unicode="&#xf8;" horiz-adv-x="534" 
d="M505 234q0 -112 -65.5 -178t-172.5 -66q-81 0 -143 41l-46 -52l-40 37l46 52q-55 64 -55 166q0 112 65.5 178t172.5 66q84 0 145 -42l46 51l39 -37l-45 -51q53 -67 53 -165zM341 356q-28 30 -74 30q-54 0 -83.5 -42t-29.5 -110q0 -42 12 -75zM380 234q0 39 -11 72
l-174 -195q29 -29 72 -29q54 0 83.5 42.5t29.5 109.5z" />
    <glyph glyph-name="ugrave" unicode="&#xf9;" 
d="M482 0h-114l-7 79q-58 -89 -146 -89q-157 0 -157 178v301h122v-276q0 -100 80 -100q41 0 67.5 31t32.5 68v277h122v-469zM321 523h-86l-100 130h118z" />
    <glyph glyph-name="uacute" unicode="&#xfa;" 
d="M482 0h-114l-7 79q-58 -89 -146 -89q-157 0 -157 178v301h122v-276q0 -100 80 -100q41 0 67.5 31t32.5 68v277h122v-469zM407 653l-100 -130h-87l68 130h119z" />
    <glyph glyph-name="ucircumflex" unicode="&#xfb;" 
d="M482 0h-114l-7 79q-58 -89 -146 -89q-157 0 -157 178v301h122v-276q0 -100 80 -100q41 0 67.5 31t32.5 68v277h122v-469zM415 523h-85l-59 82l-61 -82h-84l88 130h113z" />
    <glyph glyph-name="udieresis" unicode="&#xfc;" 
d="M482 0h-114l-7 79q-58 -89 -146 -89q-157 0 -157 178v301h122v-276q0 -100 80 -100q41 0 67.5 31t32.5 68v277h122v-469zM410 589q0 -25 -15.5 -41.5t-40.5 -16.5t-41 16.5t-16 40.5q0 25 15.5 41t40.5 16t41 -16t16 -40zM243 589q0 -25 -16 -41.5t-41 -16.5t-41 16.5
t-16 40.5q0 25 16 41t41 16t41 -16t16 -40z" />
    <glyph glyph-name="yacute" unicode="&#xfd;" horiz-adv-x="495" 
d="M492 468l-198 -514q-28 -72 -60 -100.5t-84 -28.5q-31 0 -58.5 5.5t-39.5 11.5l-12 6l26 90q28 -14 53 -14q19 0 29.5 8.5t20.5 33.5l16 43l-178 459h131l113 -349l113 349h128zM382 653l-100 -130h-87l68 130h119z" />
    <glyph glyph-name="thorn" unicode="&#xfe;" horiz-adv-x="564" 
d="M534 235q0 -107 -58 -176t-149 -69q-92 0 -141 76v-232h-122v821h122v-255q52 78 147 78q91 0 146 -67.5t55 -175.5zM410 235q0 64 -30 107t-83 43q-52 0 -83.5 -43t-31.5 -106q0 -64 30 -107t82 -43q53 0 84.5 43t31.5 106z" />
    <glyph glyph-name="ydieresis" unicode="&#xff;" horiz-adv-x="495" 
d="M492 468l-198 -514q-28 -72 -60 -100.5t-84 -28.5q-31 0 -58.5 5.5t-39.5 11.5l-12 6l26 90q28 -14 53 -14q19 0 29.5 8.5t20.5 33.5l16 43l-178 459h131l113 -349l113 349h128zM392 589q0 -25 -15.5 -41.5t-40.5 -16.5t-41 16.5t-16 40.5q0 25 15.5 41t40.5 16t41 -16
t16 -40zM225 589q0 -25 -16 -41.5t-41 -16.5t-41 16.5t-16 40.5q0 25 16 41t41 16t41 -16t16 -40z" />
    <glyph glyph-name="Amacron" unicode="&#x100;" horiz-adv-x="588" 
d="M593 0h-134l-46 139h-248l-46 -139h-124l223 635h150zM382 238l-93 280l-94 -280h187zM442 722h-295v66h295v-66z" />
    <glyph glyph-name="amacron" unicode="&#x101;" horiz-adv-x="496" 
d="M465 0h-130q-10 29 -10 54q-55 -64 -142 -64q-63 0 -108.5 35.5t-45.5 108.5q0 108 136 142q64 16 157 16v22q0 76 -97 76q-77 0 -142 -42l-33 84q84 46 185 46t153 -44q55 -45 55 -139v-190q0 -64 22 -105zM322 134v86q-46 0 -88 -7q-82 -14 -82 -70q0 -36 21 -52
t52 -16q63 0 97 59zM396 555h-295v66h295v-66z" />
    <glyph glyph-name="Abreve" unicode="&#x102;" horiz-adv-x="588" 
d="M593 0h-134l-46 139h-248l-46 -139h-124l223 635h150zM382 238l-93 280l-94 -280h187zM374 824l64 -11q-13 -61 -50.5 -92.5t-92.5 -31.5q-56 0 -93.5 31t-50.5 92l63 12q7 -30 27.5 -49t52.5 -19t52.5 19t27.5 49z" />
    <glyph glyph-name="abreve" unicode="&#x103;" horiz-adv-x="496" 
d="M465 0h-130q-10 29 -10 54q-55 -64 -142 -64q-63 0 -108.5 35.5t-45.5 108.5q0 108 136 142q64 16 157 16v22q0 76 -97 76q-77 0 -142 -42l-33 84q84 46 185 46t153 -44q55 -45 55 -139v-190q0 -64 22 -105zM322 134v86q-46 0 -88 -7q-82 -14 -82 -70q0 -36 21 -52
t52 -16q63 0 97 59zM328 657l64 -11q-13 -61 -50.5 -92.5t-92.5 -31.5q-56 0 -93.5 31t-50.5 92l63 12q7 -30 27.5 -49t52.5 -19t52.5 19t27.5 49z" />
    <glyph glyph-name="Aogonek" unicode="&#x104;" horiz-adv-x="588" 
d="M565 -105l22 -40q-47 -43 -100 -43q-46 0 -74.5 25.5t-28.5 69.5q0 61 70 108l-41 124h-248l-46 -139h-124l223 635h150l225 -635h-87q-45 -37 -45 -77q0 -46 47 -46q32 0 57 18zM382 238l-93 280l-94 -280h187z" />
    <glyph glyph-name="aogonek" unicode="&#x105;" horiz-adv-x="496" 
d="M465 0h-78q-45 -37 -45 -77q0 -46 47 -46q32 0 57 18l22 -40q-47 -43 -100 -43q-46 0 -74.5 25.5t-28.5 69.5q0 62 66 105q-6 22 -6 42q-55 -64 -142 -64q-63 0 -108.5 35.5t-45.5 108.5q0 108 136 142q64 16 157 16v22q0 76 -97 76q-77 0 -142 -42l-33 84q84 46 185 46
t153 -44q55 -45 55 -139v-190q0 -64 22 -105zM322 134v86q-46 0 -88 -7q-82 -14 -82 -70q0 -36 21 -52t52 -16q63 0 97 59z" />
    <glyph glyph-name="Cacute" unicode="&#x106;" horiz-adv-x="596" 
d="M577 532l-66 -83l-6 9t-18.5 21t-31.5 26t-45 20.5t-59 9.5q-83 0 -134.5 -59t-51.5 -156q0 -98 50.5 -157t133.5 -59q49 0 90 22t58 44l17 21l65 -85q-3 -5 -8.5 -12.5t-26.5 -27.5t-45.5 -35.5t-67.5 -28t-91 -12.5q-133 0 -218 87.5t-85 240.5q0 151 90 239t218 88
q45 0 86 -11.5t65 -26t44.5 -33.5t27 -27.5t9.5 -14.5zM464 820l-100 -130h-87l68 130h119z" />
    <glyph glyph-name="cacute" unicode="&#x107;" horiz-adv-x="458" 
d="M395 145l53 -80q-7 -8 -17 -17t-32.5 -24t-59 -24.5t-79.5 -9.5q-99 0 -165 64.5t-66 179.5q0 114 70 179t166 65q54 0 98.5 -19t60 -33.5t22.5 -24.5l-56 -75q-5 6 -14.5 14.5t-38.5 23t-59 14.5q-55 0 -91.5 -35.5t-36.5 -106.5t36.5 -107t92.5 -36q31 0 60 13t43 26z
M390 653l-100 -130h-87l68 130h119z" />
    <glyph glyph-name="Ccircumflex" unicode="&#x108;" horiz-adv-x="596" 
d="M577 532l-66 -83l-6 9t-18.5 21t-31.5 26t-45 20.5t-59 9.5q-83 0 -134.5 -59t-51.5 -156q0 -98 50.5 -157t133.5 -59q49 0 90 22t58 44l17 21l65 -85q-3 -5 -8.5 -12.5t-26.5 -27.5t-45.5 -35.5t-67.5 -28t-91 -12.5q-133 0 -218 87.5t-85 240.5q0 151 90 239t218 88
q45 0 86 -11.5t65 -26t44.5 -33.5t27 -27.5t9.5 -14.5zM485 690h-85l-59 82l-61 -82h-84l88 130h113z" />
    <glyph glyph-name="ccircumflex" unicode="&#x109;" horiz-adv-x="458" 
d="M395 145l53 -80q-7 -8 -17 -17t-32.5 -24t-59 -24.5t-79.5 -9.5q-99 0 -165 64.5t-66 179.5q0 114 70 179t166 65q54 0 98.5 -19t60 -33.5t22.5 -24.5l-56 -75q-5 6 -14.5 14.5t-38.5 23t-59 14.5q-55 0 -91.5 -35.5t-36.5 -106.5t36.5 -107t92.5 -36q31 0 60 13t43 26z
M406 523h-85l-59 82l-61 -82h-84l88 130h113z" />
    <glyph glyph-name="Cdotaccent" unicode="&#x10a;" horiz-adv-x="596" 
d="M577 532l-66 -83l-6 9t-18.5 21t-31.5 26t-45 20.5t-59 9.5q-83 0 -134.5 -59t-51.5 -156q0 -98 50.5 -157t133.5 -59q49 0 90 22t58 44l17 21l65 -85q-3 -5 -8.5 -12.5t-26.5 -27.5t-45.5 -35.5t-67.5 -28t-91 -12.5q-133 0 -218 87.5t-85 240.5q0 151 90 239t218 88
q45 0 86 -11.5t65 -26t44.5 -33.5t27 -27.5t9.5 -14.5zM401 755q0 -26 -17.5 -43.5t-43.5 -17.5t-43 17.5t-17 43.5t17 43t43 17t43.5 -17t17.5 -43z" />
    <glyph glyph-name="cdotaccent" unicode="&#x10b;" horiz-adv-x="458" 
d="M395 145l53 -80q-7 -8 -17 -17t-32.5 -24t-59 -24.5t-79.5 -9.5q-99 0 -165 64.5t-66 179.5q0 114 70 179t166 65q54 0 98.5 -19t60 -33.5t22.5 -24.5l-56 -75q-5 6 -14.5 14.5t-38.5 23t-59 14.5q-55 0 -91.5 -35.5t-36.5 -106.5t36.5 -107t92.5 -36q31 0 60 13t43 26z
M322 588q0 -26 -17.5 -43.5t-43.5 -17.5t-43 17.5t-17 43.5t17 43t43 17t43.5 -17t17.5 -43z" />
    <glyph glyph-name="Ccaron" unicode="&#x10c;" horiz-adv-x="596" 
d="M577 532l-66 -83l-6 9t-18.5 21t-31.5 26t-45 20.5t-59 9.5q-83 0 -134.5 -59t-51.5 -156q0 -98 50.5 -157t133.5 -59q49 0 90 22t58 44l17 21l65 -85q-3 -5 -8.5 -12.5t-26.5 -27.5t-45.5 -35.5t-67.5 -28t-91 -12.5q-133 0 -218 87.5t-85 240.5q0 151 90 239t218 88
q45 0 86 -11.5t65 -26t44.5 -33.5t27 -27.5t9.5 -14.5zM485 820l-88 -130h-113l-88 130h84l60 -82l60 82h85z" />
    <glyph glyph-name="ccaron" unicode="&#x10d;" horiz-adv-x="458" 
d="M395 145l53 -80q-7 -8 -17 -17t-32.5 -24t-59 -24.5t-79.5 -9.5q-99 0 -165 64.5t-66 179.5q0 114 70 179t166 65q54 0 98.5 -19t60 -33.5t22.5 -24.5l-56 -75q-5 6 -14.5 14.5t-38.5 23t-59 14.5q-55 0 -91.5 -35.5t-36.5 -106.5t36.5 -107t92.5 -36q31 0 60 13t43 26z
M406 653l-88 -130h-113l-88 130h84l60 -82l60 82h85z" />
    <glyph glyph-name="Dcaron" unicode="&#x10e;" horiz-adv-x="655" 
d="M618 318q0 -153 -98 -242q-84 -76 -227 -76h-220v635h219q144 0 228 -76q98 -89 98 -241zM489 319q0 109 -58 165q-51 52 -141 52h-91v-435h91q89 0 141 52q58 58 58 166zM462 820l-88 -130h-113l-88 130h84l60 -82l60 82h85z" />
    <glyph glyph-name="dcaron" unicode="&#x10f;" horiz-adv-x="564" 
d="M500 0h-110l-12 66q-53 -76 -146 -76q-91 0 -147 68t-56 176t57 176t149 68q95 0 143 -78v255h122v-655zM381 236q0 63 -29.5 106t-82.5 43q-52 0 -83.5 -43t-31.5 -106q0 -64 30 -107t82 -43q53 0 84 43t31 107zM566 663l107 -2q0 -95 -52 -175l-85 6q30 76 30 171z" />
    <glyph glyph-name="Dcroat" unicode="&#x110;" horiz-adv-x="655" 
d="M618 318q0 -153 -98 -242q-84 -76 -227 -76h-220v283h-52v86h52v266h219q144 0 228 -76q98 -89 98 -241zM489 319q0 109 -58 165q-51 52 -141 52h-91v-167h121v-86h-121v-182h91q89 0 141 52q58 58 58 166z" />
    <glyph glyph-name="dcroat" unicode="&#x111;" horiz-adv-x="564" 
d="M500 0h-110l-12 66q-53 -76 -146 -76q-91 0 -147 68t-56 176t57 176t149 68q95 0 143 -78v114h-177v84h177v57h122v-57h64v-84h-64v-514zM381 236q0 63 -29.5 106t-82.5 43q-52 0 -83.5 -43t-31.5 -106q0 -64 30 -107t82 -43q53 0 84 43t31 107z" />
    <glyph glyph-name="Emacron" unicode="&#x112;" horiz-adv-x="528" 
d="M490 0h-417v635h408v-99h-282v-154h262v-100h-262v-180h291v-102zM433 722h-295v66h295v-66z" />
    <glyph glyph-name="emacron" unicode="&#x113;" horiz-adv-x="500" 
d="M474 205h-322q2 -59 36.5 -91t91.5 -32q81 0 140 48l42 -74q-3 -3 -8 -7.5t-23 -15.5t-38.5 -20t-55.5 -16t-73 -7q-105 0 -170 65t-65 179t65.5 179t168.5 65q98 0 154.5 -65t56.5 -170v-38zM358 285q0 48 -25 79t-75 31q-49 0 -76.5 -32t-31.5 -78h208zM406 555h-295
v66h295v-66z" />
    <glyph glyph-name="Ebreve" unicode="&#x114;" horiz-adv-x="528" 
d="M490 0h-417v635h408v-99h-282v-154h262v-100h-262v-180h291v-102zM365 824l64 -11q-13 -61 -50.5 -92.5t-92.5 -31.5q-56 0 -93.5 31t-50.5 92l63 12q7 -30 27.5 -49t52.5 -19t52.5 19t27.5 49z" />
    <glyph glyph-name="ebreve" unicode="&#x115;" horiz-adv-x="500" 
d="M474 205h-322q2 -59 36.5 -91t91.5 -32q81 0 140 48l42 -74q-3 -3 -8 -7.5t-23 -15.5t-38.5 -20t-55.5 -16t-73 -7q-105 0 -170 65t-65 179t65.5 179t168.5 65q98 0 154.5 -65t56.5 -170v-38zM358 285q0 48 -25 79t-75 31q-49 0 -76.5 -32t-31.5 -78h208zM338 657l64 -11
q-13 -61 -50.5 -92.5t-92.5 -31.5q-56 0 -93.5 31t-50.5 92l63 12q7 -30 27.5 -49t52.5 -19t52.5 19t27.5 49z" />
    <glyph glyph-name="Edotaccent" unicode="&#x116;" horiz-adv-x="528" 
d="M490 0h-417v635h408v-99h-282v-154h262v-100h-262v-180h291v-102zM346 755q0 -26 -17.5 -43.5t-43.5 -17.5t-43 17.5t-17 43.5t17 43t43 17t43.5 -17t17.5 -43z" />
    <glyph glyph-name="edotaccent" unicode="&#x117;" horiz-adv-x="500" 
d="M474 205h-322q2 -59 36.5 -91t91.5 -32q81 0 140 48l42 -74q-3 -3 -8 -7.5t-23 -15.5t-38.5 -20t-55.5 -16t-73 -7q-105 0 -170 65t-65 179t65.5 179t168.5 65q98 0 154.5 -65t56.5 -170v-38zM358 285q0 48 -25 79t-75 31q-49 0 -76.5 -32t-31.5 -78h208zM319 588
q0 -26 -17.5 -43.5t-43.5 -17.5t-43 17.5t-17 43.5t17 43t43 17t43.5 -17t17.5 -43z" />
    <glyph glyph-name="Eogonek" unicode="&#x118;" horiz-adv-x="528" 
d="M463 -102l22 -40q-5 -6 -17.5 -15.5t-40 -20t-54.5 -10.5q-47 0 -76 25.5t-29 69.5q0 55 51 93h-246v635h408v-99h-282v-154h262v-100h-262v-180h291v-102h-102q-43 -34 -43 -75q0 -48 50 -48q41 0 68 21z" />
    <glyph glyph-name="eogonek" unicode="&#x119;" horiz-adv-x="500" 
d="M427 -102l22 -40q-5 -6 -17.5 -15.5t-40 -20t-54.5 -10.5q-47 0 -76 25.5t-29 69.5q0 47 39 83h-7q-105 0 -170 65t-65 179t65.5 179t168.5 65q98 0 154.5 -65t56.5 -170v-38h-322q2 -59 36.5 -91t91.5 -32q81 0 140 48l42 -74q-37 -38 -111 -56q-42 -35 -42 -75
q0 -48 50 -48q41 0 68 21zM358 285q0 48 -25 79t-75 31q-49 0 -76.5 -32t-31.5 -78h208z" />
    <glyph glyph-name="Ecaron" unicode="&#x11a;" horiz-adv-x="528" 
d="M490 0h-417v635h408v-99h-282v-154h262v-100h-262v-180h291v-102zM430 820l-88 -130h-113l-88 130h84l60 -82l60 82h85z" />
    <glyph glyph-name="ecaron" unicode="&#x11b;" horiz-adv-x="500" 
d="M474 205h-322q2 -59 36.5 -91t91.5 -32q81 0 140 48l42 -74q-3 -3 -8 -7.5t-23 -15.5t-38.5 -20t-55.5 -16t-73 -7q-105 0 -170 65t-65 179t65.5 179t168.5 65q98 0 154.5 -65t56.5 -170v-38zM358 285q0 48 -25 79t-75 31q-49 0 -76.5 -32t-31.5 -78h208zM403 653
l-88 -130h-113l-88 130h84l60 -82l60 82h85z" />
    <glyph glyph-name="Gcircumflex" unicode="&#x11c;" horiz-adv-x="665" 
d="M608 0h-84l-12 65q-2 -3 -6.5 -8t-21 -18t-36.5 -23t-54.5 -18t-73.5 -8q-119 0 -201 89t-82 241q0 151 90.5 238t217.5 87q149 0 239 -112l-74 -76q0 1 -5 6.5t-7.5 8.5t-9.5 9.5t-12 11t-14 11t-17 11t-19.5 9t-23 7.5t-25 5t-28.5 2q-79 0 -131.5 -58t-52.5 -161
q0 -104 50 -161.5t131 -57.5q29 0 54.5 6t41 14.5t26.5 17t16 14.5l4 6v91h-132v95h252v-344zM490 690h-85l-59 82l-61 -82h-84l88 130h113z" />
    <glyph glyph-name="gcircumflex" unicode="&#x11d;" horiz-adv-x="557" 
d="M495 100q0 -137 -54 -198q-68 -76 -195 -76q-62 0 -116.5 18t-81.5 36l40 86q72 -45 153 -45q69 0 103 34q32 32 32 100v37q-6 -12 -19.5 -27t-48.5 -33t-78 -18q-91 0 -146 64.5t-55 168.5q0 102 58 166.5t148 64.5q33 0 60 -9.5t43 -25t23 -25t12 -18.5l10 69h112v-369
zM376 248q0 59 -29 98t-80 39q-52 0 -82.5 -39.5t-30.5 -97.5q0 -59 29.5 -97.5t80.5 -38.5q52 0 82 39t30 97zM421 523h-85l-59 82l-61 -82h-84l88 130h113z" />
    <glyph glyph-name="Gbreve" unicode="&#x11e;" horiz-adv-x="665" 
d="M608 0h-84l-12 65q-2 -3 -6.5 -8t-21 -18t-36.5 -23t-54.5 -18t-73.5 -8q-119 0 -201 89t-82 241q0 151 90.5 238t217.5 87q149 0 239 -112l-74 -76q0 1 -5 6.5t-7.5 8.5t-9.5 9.5t-12 11t-14 11t-17 11t-19.5 9t-23 7.5t-25 5t-28.5 2q-79 0 -131.5 -58t-52.5 -161
q0 -104 50 -161.5t131 -57.5q29 0 54.5 6t41 14.5t26.5 17t16 14.5l4 6v91h-132v95h252v-344zM425 824l64 -11q-13 -61 -50.5 -92.5t-92.5 -31.5q-56 0 -93.5 31t-50.5 92l63 12q7 -30 27.5 -49t52.5 -19t52.5 19t27.5 49z" />
    <glyph glyph-name="gbreve" unicode="&#x11f;" horiz-adv-x="557" 
d="M495 100q0 -137 -54 -198q-68 -76 -195 -76q-62 0 -116.5 18t-81.5 36l40 86q72 -45 153 -45q69 0 103 34q32 32 32 100v37q-6 -12 -19.5 -27t-48.5 -33t-78 -18q-91 0 -146 64.5t-55 168.5q0 102 58 166.5t148 64.5q33 0 60 -9.5t43 -25t23 -25t12 -18.5l10 69h112v-369
zM376 248q0 59 -29 98t-80 39q-52 0 -82.5 -39.5t-30.5 -97.5q0 -59 29.5 -97.5t80.5 -38.5q52 0 82 39t30 97zM355 657l64 -11q-13 -61 -50.5 -92.5t-92.5 -31.5q-56 0 -93.5 31t-50.5 92l63 12q7 -30 27.5 -49t52.5 -19t52.5 19t27.5 49z" />
    <glyph glyph-name="Gdotaccent" unicode="&#x120;" horiz-adv-x="665" 
d="M608 0h-84l-12 65q-2 -3 -6.5 -8t-21 -18t-36.5 -23t-54.5 -18t-73.5 -8q-119 0 -201 89t-82 241q0 151 90.5 238t217.5 87q149 0 239 -112l-74 -76q0 1 -5 6.5t-7.5 8.5t-9.5 9.5t-12 11t-14 11t-17 11t-19.5 9t-23 7.5t-25 5t-28.5 2q-79 0 -131.5 -58t-52.5 -161
q0 -104 50 -161.5t131 -57.5q29 0 54.5 6t41 14.5t26.5 17t16 14.5l4 6v91h-132v95h252v-344zM406 755q0 -26 -17.5 -43.5t-43.5 -17.5t-43 17.5t-17 43.5t17 43t43 17t43.5 -17t17.5 -43z" />
    <glyph glyph-name="gdotaccent" unicode="&#x121;" horiz-adv-x="557" 
d="M495 100q0 -137 -54 -198q-68 -76 -195 -76q-62 0 -116.5 18t-81.5 36l40 86q72 -45 153 -45q69 0 103 34q32 32 32 100v37q-6 -12 -19.5 -27t-48.5 -33t-78 -18q-91 0 -146 64.5t-55 168.5q0 102 58 166.5t148 64.5q33 0 60 -9.5t43 -25t23 -25t12 -18.5l10 69h112v-369
zM376 248q0 59 -29 98t-80 39q-52 0 -82.5 -39.5t-30.5 -97.5q0 -59 29.5 -97.5t80.5 -38.5q52 0 82 39t30 97zM328 588q0 -26 -17.5 -43.5t-43.5 -17.5t-43 17.5t-17 43.5t17 43t43 17t43.5 -17t17.5 -43z" />
    <glyph glyph-name="Gcommaaccent" unicode="&#x122;" horiz-adv-x="665" 
d="M608 0h-84l-12 65q-2 -3 -6.5 -8t-21 -18t-36.5 -23t-54.5 -18t-73.5 -8q-119 0 -201 89t-82 241q0 151 90.5 238t217.5 87q149 0 239 -112l-74 -76q0 1 -5 6.5t-7.5 8.5t-9.5 9.5t-12 11t-14 11t-17 11t-19.5 9t-23 7.5t-25 5t-28.5 2q-79 0 -131.5 -58t-52.5 -161
q0 -104 50 -161.5t131 -57.5q29 0 54.5 6t41 14.5t26.5 17t16 14.5l4 6v91h-132v95h252v-344zM298 -43l108 -3q-14 -98 -94 -155l-73 32q52 52 59 126z" />
    <glyph glyph-name="gcommaaccent" unicode="&#x123;" horiz-adv-x="557" 
d="M495 100q0 -137 -54 -198q-68 -76 -195 -76q-62 0 -116.5 18t-81.5 36l40 86q72 -45 153 -45q69 0 103 34q32 32 32 100v37q-6 -12 -19.5 -27t-48.5 -33t-78 -18q-91 0 -146 64.5t-55 168.5q0 102 58 166.5t148 64.5q33 0 60 -9.5t43 -25t23 -25t12 -18.5l10 69h112v-369
zM376 248q0 59 -29 98t-80 39q-52 0 -82.5 -39.5t-30.5 -97.5q0 -59 29.5 -97.5t80.5 -38.5q52 0 82 39t30 97zM322 509l-108 3q14 98 94 155l73 -32q-52 -52 -59 -126z" />
    <glyph glyph-name="Hcircumflex" unicode="&#x124;" horiz-adv-x="676" 
d="M603 0h-126v282h-278v-282h-126v635h126v-252h278v252h126v-635zM483 690h-85l-59 82l-61 -82h-84l88 130h113z" />
    <glyph glyph-name="hcircumflex" unicode="&#x125;" horiz-adv-x="551" 
d="M492 0h-121v272q0 50 -18 77t-63 27q-42 0 -70 -32t-35 -69v-275h-122v655h122v-265q57 88 151 88q156 0 156 -178v-300zM269 709h-85l-59 82l-61 -82h-84l88 130h113z" />
    <glyph glyph-name="Hbar" unicode="&#x126;" horiz-adv-x="676" 
d="M603 0h-126v269h-278v-269h-126v462h-67v84h67v89h126v-89h278v89h126v-89h68v-84h-68v-462zM199 370h278v92h-278v-92z" />
    <glyph glyph-name="hbar" unicode="&#x127;" horiz-adv-x="551" 
d="M492 0h-121v272q0 50 -18 77t-63 27q-42 0 -70 -32t-35 -69v-275h-122v514h-62v84h62v57h122v-57h179v-84h-179v-124q57 88 151 88q156 0 156 -178v-300z" />
    <glyph glyph-name="Itilde" unicode="&#x128;" horiz-adv-x="273" 
d="M199 0h-126v635h126v-635zM237 812l58 -7q0 -43 -28 -76t-67 -33q-13 0 -24 2t-20.5 6.5t-14 6.5t-13.5 9l-9 6q-32 20 -46 20q-32 0 -39 -48l-58 7q0 43 28 76t67 33q13 0 24 -2t20.5 -6.5t14 -6.5t13.5 -9l9 -6q32 -20 46 -20q32 0 39 48z" />
    <glyph glyph-name="itilde" unicode="&#x129;" horiz-adv-x="249" 
d="M185 0h-122v469h122v-469zM226 645l58 -7q0 -43 -28 -76t-67 -33q-13 0 -24 2t-20.5 6.5t-14 6.5t-13.5 8l-9 7q-32 20 -46 20q-32 0 -39 -48l-58 7q0 43 28 76t67 33q13 0 24 -2t20.5 -6.5t14 -6.5t13.5 -8l9 -7q32 -20 46 -20q32 0 39 48z" />
    <glyph glyph-name="Imacron" unicode="&#x12a;" horiz-adv-x="273" 
d="M199 0h-126v635h126v-635zM284 722h-295v66h295v-66z" />
    <glyph glyph-name="imacron" unicode="&#x12b;" horiz-adv-x="249" 
d="M185 0h-122v469h122v-469zM272 555h-295v66h295v-66z" />
    <glyph glyph-name="Ibreve" unicode="&#x12c;" horiz-adv-x="273" 
d="M199 0h-126v635h126v-635zM216 824l64 -11q-13 -61 -50.5 -92.5t-92.5 -31.5q-56 0 -93.5 31t-50.5 92l63 12q7 -30 27.5 -49t52.5 -19t52.5 19t27.5 49z" />
    <glyph glyph-name="ibreve" unicode="&#x12d;" horiz-adv-x="249" 
d="M185 0h-122v469h122v-469zM204 657l64 -11q-13 -61 -50.5 -92.5t-92.5 -31.5q-56 0 -93.5 31t-50.5 92l63 12q7 -30 27.5 -49t52.5 -19t52.5 19t27.5 49z" />
    <glyph glyph-name="Iogonek" unicode="&#x12e;" horiz-adv-x="273" 
d="M217 -102l22 -40q-5 -6 -17.5 -15.5t-40 -20t-54.5 -10.5q-47 0 -76 25.5t-29 69.5q0 55 51 93v635h126v-635h-57q-43 -34 -43 -75q0 -48 50 -48q41 0 68 21z" />
    <glyph glyph-name="iogonek" unicode="&#x12f;" horiz-adv-x="249" 
d="M206 -102l22 -40q-5 -6 -17.5 -15.5t-40 -20t-54.5 -10.5q-47 0 -76 25.5t-29 69.5q0 27 13 50t26 33l13 10v469h122v-469h-54q-43 -34 -43 -75q0 -48 50 -48q41 0 68 21zM196 608q0 -31 -20 -50.5t-51 -19.5t-52 19.5t-21 49.5t20.5 49.5t51.5 19.5t51.5 -19t20.5 -49z
" />
    <glyph glyph-name="Idotaccent" unicode="&#x130;" horiz-adv-x="273" 
d="M199 0h-126v635h126v-635zM197 755q0 -26 -17.5 -43.5t-43.5 -17.5t-43 17.5t-17 43.5t17 43t43 17t43.5 -17t17.5 -43z" />
    <glyph glyph-name="dotlessi" unicode="&#x131;" horiz-adv-x="249" 
d="M185 0h-122v469h122v-469z" />
    <glyph glyph-name="Jcircumflex" unicode="&#x134;" horiz-adv-x="275" 
d="M202 635v-627q0 -87 -45 -135q-45 -47 -125 -47q-25 0 -48 4.5t-34 9.5l-10 4l17 89q22 -11 57 -11q28 0 45 19.5t17 60.5v633h126zM282 690h-85l-59 82l-61 -82h-84l88 130h113z" />
    <glyph glyph-name="jcircumflex" unicode="&#x135;" horiz-adv-x="251" 
d="M188 469v-471q0 -87 -32 -125q-41 -47 -113 -47q-49 0 -84 16l12 87q19 -7 41 -7q26 0 38 12q16 16 16 73v462h122zM270 523h-85l-59 82l-61 -82h-84l88 130h113z" />
    <glyph glyph-name="Kcommaaccent" unicode="&#x136;" horiz-adv-x="578" 
d="M578 0h-146l-169 280l-64 -71v-209h-126v635h126v-273l224 273h147l-227 -259zM262 -43l108 -3q-14 -98 -94 -155l-73 32q52 52 59 126z" />
    <glyph glyph-name="kcommaaccent" unicode="&#x137;" horiz-adv-x="507" 
d="M507 0h-140l-131 197l-51 -50v-147h-122v655h122v-374l169 188h143l-180 -184zM216 -43l108 -3q-14 -98 -94 -155l-73 32q52 52 59 126z" />
    <glyph glyph-name="kgreenlandic" unicode="&#x138;" horiz-adv-x="507" 
d="M507 0h-140l-131 197l-51 -50v-147h-122v469h122v-188l169 188h143l-180 -184z" />
    <glyph glyph-name="Lacute" unicode="&#x139;" horiz-adv-x="464" 
d="M451 0h-378v635h126v-533h252v-102zM256 820l-100 -130h-87l68 130h119z" />
    <glyph glyph-name="lacute" unicode="&#x13a;" horiz-adv-x="249" 
d="M185 0h-122v655h122v-655zM247 839l-100 -130h-87l68 130h119z" />
    <glyph glyph-name="Lcommaaccent" unicode="&#x13b;" horiz-adv-x="464" 
d="M451 0h-378v635h126v-533h252v-102zM222 -43l108 -3q-14 -98 -94 -155l-73 32q52 52 59 126z" />
    <glyph glyph-name="lcommaaccent" unicode="&#x13c;" horiz-adv-x="249" 
d="M185 0h-122v655h122v-655zM78 -43l108 -3q-14 -98 -94 -155l-73 32q52 52 59 126z" />
    <glyph glyph-name="Lcaron" unicode="&#x13d;" horiz-adv-x="464" 
d="M451 0h-378v635h126v-533h252v-102zM314 651l107 -2q0 -95 -52 -175l-85 6q30 76 30 171z" />
    <glyph glyph-name="lcaron" unicode="&#x13e;" horiz-adv-x="249" 
d="M185 0h-122v655h122v-655zM253 663l107 -2q0 -95 -52 -175l-85 6q30 76 30 171z" />
    <glyph glyph-name="Ldot" unicode="&#x13f;" horiz-adv-x="464" 
d="M451 0h-378v635h126v-533h252v-102zM430 364q0 -26 -17.5 -43.5t-43.5 -17.5t-43 17.5t-17 43.5t17 43t43 17t43.5 -17t17.5 -43z" />
    <glyph glyph-name="ldot" unicode="&#x140;" horiz-adv-x="318" 
d="M185 0h-122v655h122v-655zM341 347q0 -26 -17.5 -43.5t-43.5 -17.5t-43 17.5t-17 43.5t17 43t43 17t43.5 -17t17.5 -43z" />
    <glyph glyph-name="Lslash" unicode="&#x141;" horiz-adv-x="464" 
d="M451 0h-378v226l-48 -26v97l48 26v312h126v-248l113 60v-98l-113 -59v-188h252v-102z" />
    <glyph glyph-name="lslash" unicode="&#x142;" horiz-adv-x="249" 
d="M243 356l-58 -36v-320h-122v250l-57 -35v95l57 35v310h122v-240l58 36v-95z" />
    <glyph glyph-name="Nacute" unicode="&#x143;" horiz-adv-x="671" 
d="M598 0h-121l-285 460v-460h-119v635h135l271 -437v437h119v-635zM468 820l-100 -130h-87l68 130h119z" />
    <glyph glyph-name="nacute" unicode="&#x144;" horiz-adv-x="551" 
d="M492 0h-121v272q0 50 -18 77t-63 27q-42 0 -70 -32t-35 -69v-275h-122v469h114l8 -79q57 88 151 88q156 0 156 -178v-300zM406 653l-100 -130h-87l68 130h119z" />
    <glyph glyph-name="Ncommaaccent" unicode="&#x145;" horiz-adv-x="671" 
d="M598 0h-121l-285 460v-460h-119v635h135l271 -437v437h119v-635zM290 -43l108 -3q-14 -98 -94 -155l-73 32q52 52 59 126z" />
    <glyph glyph-name="ncommaaccent" unicode="&#x146;" horiz-adv-x="551" 
d="M492 0h-121v272q0 50 -18 77t-63 27q-42 0 -70 -32t-35 -69v-275h-122v469h114l8 -79q57 88 151 88q156 0 156 -178v-300zM236 -43l108 -3q-14 -98 -94 -155l-73 32q52 52 59 126z" />
    <glyph glyph-name="Ncaron" unicode="&#x147;" horiz-adv-x="671" 
d="M598 0h-121l-285 460v-460h-119v635h135l271 -437v437h119v-635zM491 820l-88 -130h-113l-88 130h84l60 -82l60 82h85z" />
    <glyph glyph-name="ncaron" unicode="&#x148;" horiz-adv-x="551" 
d="M492 0h-121v272q0 50 -18 77t-63 27q-42 0 -70 -32t-35 -69v-275h-122v469h114l8 -79q57 88 151 88q156 0 156 -178v-300zM420 653l-88 -130h-113l-88 130h84l60 -82l60 82h85z" />
    <glyph glyph-name="Eng" unicode="&#x14a;" horiz-adv-x="671" 
d="M598 635v-635q0 -79 -45 -127q-45 -47 -125 -47q-25 0 -48 4.5t-34 9.5l-10 4l17 89q22 -11 57 -11q66 0 69 74l-287 464v-460h-119v635h135l271 -437v437h119z" />
    <glyph glyph-name="eng" unicode="&#x14b;" horiz-adv-x="551" 
d="M177 469l8 -79q57 88 151 88q156 0 156 -178v-302q0 -87 -32 -125q-41 -47 -113 -47q-49 0 -84 16l12 87q19 -7 41 -7q26 0 38 12q17 19 17 62v276q0 50 -18 77t-63 27q-42 0 -70 -32t-35 -69v-275h-122v469h114z" />
    <glyph glyph-name="Omacron" unicode="&#x14c;" horiz-adv-x="696" 
d="M659 318q0 -147 -84.5 -237.5t-226.5 -90.5t-226.5 90t-84.5 238q0 147 84.5 237t226.5 90t226.5 -90t84.5 -237zM530 319q0 98 -48.5 159.5t-133.5 61.5t-133.5 -61.5t-48.5 -159.5t48.5 -160t133.5 -62t133.5 62t48.5 160zM496 722h-295v66h295v-66z" />
    <glyph glyph-name="omacron" unicode="&#x14d;" horiz-adv-x="534" 
d="M505 234q0 -112 -65.5 -178t-172.5 -66t-172.5 66t-65.5 178t65.5 178t172.5 66t172.5 -66t65.5 -178zM380 234q0 67 -29.5 109.5t-83.5 42.5t-83.5 -42t-29.5 -110q0 -67 29.5 -109.5t83.5 -42.5t83.5 42.5t29.5 109.5zM415 555h-295v66h295v-66z" />
    <glyph glyph-name="Obreve" unicode="&#x14e;" horiz-adv-x="696" 
d="M659 318q0 -147 -84.5 -237.5t-226.5 -90.5t-226.5 90t-84.5 238q0 147 84.5 237t226.5 90t226.5 -90t84.5 -237zM530 319q0 98 -48.5 159.5t-133.5 61.5t-133.5 -61.5t-48.5 -159.5t48.5 -160t133.5 -62t133.5 62t48.5 160zM428 824l64 -11q-13 -61 -50.5 -92.5
t-92.5 -31.5q-56 0 -93.5 31t-50.5 92l63 12q7 -30 27.5 -49t52.5 -19t52.5 19t27.5 49z" />
    <glyph glyph-name="obreve" unicode="&#x14f;" horiz-adv-x="534" 
d="M505 234q0 -112 -65.5 -178t-172.5 -66t-172.5 66t-65.5 178t65.5 178t172.5 66t172.5 -66t65.5 -178zM380 234q0 67 -29.5 109.5t-83.5 42.5t-83.5 -42t-29.5 -110q0 -67 29.5 -109.5t83.5 -42.5t83.5 42.5t29.5 109.5zM347 657l64 -11q-13 -61 -50.5 -92.5t-92.5 -31.5
q-56 0 -93.5 31t-50.5 92l63 12q7 -30 27.5 -49t52.5 -19t52.5 19t27.5 49z" />
    <glyph glyph-name="Ohungarumlaut" unicode="&#x150;" horiz-adv-x="696" 
d="M659 318q0 -147 -84.5 -237.5t-226.5 -90.5t-226.5 90t-84.5 238q0 147 84.5 237t226.5 90t226.5 -90t84.5 -237zM530 319q0 98 -48.5 159.5t-133.5 61.5t-133.5 -61.5t-48.5 -159.5t48.5 -160t133.5 -62t133.5 62t48.5 160zM556 820l-100 -130h-87l68 130h119zM387 820
l-99 -130h-87l68 130h118z" />
    <glyph glyph-name="ohungarumlaut" unicode="&#x151;" horiz-adv-x="534" 
d="M505 234q0 -112 -65.5 -178t-172.5 -66t-172.5 66t-65.5 178t65.5 178t172.5 66t172.5 -66t65.5 -178zM380 234q0 67 -29.5 109.5t-83.5 42.5t-83.5 -42t-29.5 -110q0 -67 29.5 -109.5t83.5 -42.5t83.5 42.5t29.5 109.5zM465 653l-100 -130h-87l68 130h119zM296 653
l-99 -130h-87l68 130h118z" />
    <glyph glyph-name="OE" unicode="&#x152;" horiz-adv-x="904" 
d="M866 0h-396v20q-56 -30 -123 -30q-141 0 -225.5 90t-84.5 238q0 147 84.5 237t224.5 90q33 0 64 -7.5t46 -15.5l14 -7l-1 20h388v-99h-262v-154h242v-100h-242v-180h271v-102zM470 133v369q-5 4 -14.5 10.5t-41 17t-67.5 10.5q-84 0 -132.5 -61t-48.5 -160t48.5 -160.5
t131.5 -61.5q36 0 67 9t44 18z" />
    <glyph glyph-name="oe" unicode="&#x153;" horiz-adv-x="845" 
d="M819 205h-323q2 -59 37 -91t92 -32q80 0 139 48l43 -74q-3 -3 -8 -7.5t-23 -15.5t-39 -20t-56 -16t-73 -7q-113 0 -169 84q-1 -1 -6.5 -8t-8 -10t-9.5 -10.5t-12 -11.5t-14.5 -10.5t-18 -10.5t-20.5 -9t-24 -7.5t-27.5 -4.5t-31.5 -2q-107 0 -172.5 66t-65.5 178
t65.5 178t172.5 66q39 0 71.5 -10t52.5 -26t30 -27.5t16 -21.5q61 85 170 85q99 0 155.5 -65t56.5 -170v-38zM703 285q0 48 -25 79t-75 31q-49 0 -76.5 -32t-32.5 -78h209zM380 234q0 67 -29.5 109.5t-83.5 42.5t-83.5 -42t-29.5 -110q0 -67 29.5 -109.5t83.5 -42.5
t83.5 42.5t29.5 109.5z" />
    <glyph glyph-name="Racute" unicode="&#x154;" horiz-adv-x="583" 
d="M570 0h-144l-148 247h-79v-247h-126v635h229q104 0 160 -43q70 -55 70 -147q0 -66 -35 -112t-95 -66zM407 440q0 52 -38 78q-31 21 -81 21h-89v-198h88q51 0 82 21q38 26 38 78zM415 820l-100 -130h-87l68 130h119z" />
    <glyph glyph-name="racute" unicode="&#x155;" horiz-adv-x="367" 
d="M359 474l-15 -117q-16 7 -41 7q-44 0 -76 -32.5t-42 -81.5v-250h-122v469h114l8 -84q18 38 55 66t81 28zM318 653l-100 -130h-87l68 130h119z" />
    <glyph glyph-name="Rcommaaccent" unicode="&#x156;" horiz-adv-x="583" 
d="M570 0h-144l-148 247h-79v-247h-126v635h229q104 0 160 -43q70 -55 70 -147q0 -66 -35 -112t-95 -66zM407 440q0 52 -38 78q-31 21 -81 21h-89v-198h88q51 0 82 21q38 26 38 78zM264 -43l108 -3q-14 -98 -94 -155l-73 32q52 52 59 126z" />
    <glyph glyph-name="rcommaaccent" unicode="&#x157;" horiz-adv-x="367" 
d="M359 474l-15 -117q-16 7 -41 7q-44 0 -76 -32.5t-42 -81.5v-250h-122v469h114l8 -84q18 38 55 66t81 28zM99 -43l108 -3q-14 -98 -94 -155l-73 32q52 52 59 126z" />
    <glyph glyph-name="Rcaron" unicode="&#x158;" horiz-adv-x="583" 
d="M570 0h-144l-148 247h-79v-247h-126v635h229q104 0 160 -43q70 -55 70 -147q0 -66 -35 -112t-95 -66zM407 440q0 52 -38 78q-31 21 -81 21h-89v-198h88q51 0 82 21q38 26 38 78zM436 820l-88 -130h-113l-88 130h84l60 -82l60 82h85z" />
    <glyph glyph-name="rcaron" unicode="&#x159;" horiz-adv-x="367" 
d="M359 474l-15 -117q-16 7 -41 7q-44 0 -76 -32.5t-42 -81.5v-250h-122v469h114l8 -84q18 38 55 66t81 28zM349 653l-88 -130h-113l-88 130h84l60 -82l60 82h85z" />
    <glyph glyph-name="Sacute" unicode="&#x15a;" horiz-adv-x="520" 
d="M489 188q0 -79 -59.5 -138.5t-178.5 -59.5q-65 0 -129.5 25.5t-105.5 69.5l63 89q26 -26 74 -52t98 -26q55 0 84 20.5t29 57.5q0 17 -7 30.5t-20.5 22.5t-22 13t-22.5 10q-13 5 -64 24t-59 22q-123 48 -123 166q0 72 55.5 127.5t172.5 55.5q70 0 126 -26.5t87 -57.5
l-54 -86q-26 26 -72 48t-91 22q-101 0 -101 -71q0 -16 6.5 -29t21 -22.5t20 -12.5t21.5 -10q12 -5 62.5 -23.5t58.5 -21.5q130 -48 130 -167zM394 820l-100 -130h-87l68 130h119z" />
    <glyph glyph-name="sacute" unicode="&#x15b;" horiz-adv-x="435" 
d="M410 145q0 -66 -50 -110q-51 -45 -150 -45q-58 0 -113 25t-82 55l60 75q25 -26 66.5 -44t73.5 -18q75 0 75 44q0 5 -1.5 10t-5.5 9t-6.5 7.5t-9.5 7l-10 5t-11.5 4.5t-10.5 4t-11 4l-9 2q-54 17 -75 25q-18 7 -28 12.5t-30.5 20t-31.5 39t-11 55.5q0 67 51.5 107
t136.5 40q50 0 94.5 -15.5t64.5 -31.5l20 -16l-47 -77q-63 50 -129 50q-73 0 -73 -42q0 -30 65 -49q5 -2 8 -3q71 -22 89 -30q91 -39 91 -120zM346 653l-100 -130h-87l68 130h119z" />
    <glyph glyph-name="Scircumflex" unicode="&#x15c;" horiz-adv-x="520" 
d="M489 188q0 -79 -59.5 -138.5t-178.5 -59.5q-65 0 -129.5 25.5t-105.5 69.5l63 89q26 -26 74 -52t98 -26q55 0 84 20.5t29 57.5q0 17 -7 30.5t-20.5 22.5t-22 13t-22.5 10q-13 5 -64 24t-59 22q-123 48 -123 166q0 72 55.5 127.5t172.5 55.5q70 0 126 -26.5t87 -57.5
l-54 -86q-26 26 -72 48t-91 22q-101 0 -101 -71q0 -16 6.5 -29t21 -22.5t20 -12.5t21.5 -10q12 -5 62.5 -23.5t58.5 -21.5q130 -48 130 -167zM411 690h-85l-59 82l-61 -82h-84l88 130h113z" />
    <glyph glyph-name="scircumflex" unicode="&#x15d;" horiz-adv-x="435" 
d="M410 145q0 -66 -50 -110q-51 -45 -150 -45q-58 0 -113 25t-82 55l60 75q25 -26 66.5 -44t73.5 -18q75 0 75 44q0 5 -1.5 10t-5.5 9t-6.5 7.5t-9.5 7l-10 5t-11.5 4.5t-10.5 4t-11 4l-9 2q-54 17 -75 25q-18 7 -28 12.5t-30.5 20t-31.5 39t-11 55.5q0 67 51.5 107
t136.5 40q50 0 94.5 -15.5t64.5 -31.5l20 -16l-47 -77q-63 50 -129 50q-73 0 -73 -42q0 -30 65 -49q5 -2 8 -3q71 -22 89 -30q91 -39 91 -120zM367 523h-85l-59 82l-61 -82h-84l88 130h113z" />
    <glyph glyph-name="Scedilla" unicode="&#x15e;" horiz-adv-x="520" 
d="M489 188q0 -67 -44.5 -122.5t-134.5 -70.5l-57 -124h-115l82 121q-127 12 -204 93l63 89q26 -26 74 -52t98 -26q55 0 84 20.5t29 57.5q0 17 -7 30.5t-20.5 22.5t-22 13t-22.5 10q-13 5 -64 24t-59 22q-123 48 -123 166q0 72 55.5 127.5t172.5 55.5q70 0 126 -26.5
t87 -57.5l-54 -86q-26 26 -72 48t-91 22q-101 0 -101 -71q0 -16 6.5 -29t21 -22.5t20 -12.5t21.5 -10l121 -45q130 -48 130 -167z" />
    <glyph glyph-name="scedilla" unicode="&#x15f;" horiz-adv-x="435" 
d="M410 145q0 -66 -50 -110q-33 -29 -86 -39l-58 -125h-115l82 121q-52 6 -98.5 29t-69.5 49l60 75q25 -26 66.5 -44t73.5 -18q75 0 75 44q0 5 -1.5 10t-5.5 9t-6.5 7.5t-9.5 7l-10 5t-11.5 4.5t-10.5 4t-11 4l-9 2q-54 17 -75 25q-18 7 -28 12.5t-30.5 20t-31.5 39
t-11 55.5q0 67 51.5 107t136.5 40q50 0 94.5 -15.5t64.5 -31.5l20 -16l-47 -77q-63 50 -129 50q-73 0 -73 -42q0 -30 65 -49q5 -2 8 -3q71 -22 89 -30q91 -39 91 -120z" />
    <glyph glyph-name="Scaron" unicode="&#x160;" horiz-adv-x="520" 
d="M489 187q0 -79 -59.5 -138.5t-178.5 -59.5q-65 0 -129.5 25.5t-105.5 69.5l63 89q26 -26 74 -52t98 -26q55 0 84 20.5t29 57.5q0 17 -7 30.5t-20.5 22.5t-22 13t-22.5 10q-13 5 -64 24t-59 22q-123 48 -123 166q0 72 55.5 127.5t172.5 55.5q70 0 126 -26.5t87 -57.5
l-54 -86q-26 26 -72 48t-91 22q-101 0 -101 -71q0 -16 6.5 -29t21 -22.5t20 -12.5t21.5 -10q12 -5 62.5 -23.5t58.5 -21.5q130 -48 130 -167zM418 820l-88 -130h-113l-88 130h84l60 -82l60 82h85z" />
    <glyph glyph-name="scaron" unicode="&#x161;" horiz-adv-x="435" 
d="M410 145q0 -66 -50 -110q-51 -45 -150 -45q-58 0 -113 25t-82 55l60 75q25 -26 66.5 -44t73.5 -18q75 0 75 44q0 5 -1.5 10t-5.5 9t-6.5 7.5t-9.5 7l-10 5t-11.5 4.5t-10.5 4t-11 4l-9 2q-54 17 -75 25q-18 7 -28 12.5t-30.5 20t-31.5 39t-11 55.5q0 67 51.5 107
t136.5 40q50 0 94.5 -15.5t64.5 -31.5l20 -16l-47 -77q-63 50 -129 50q-73 0 -73 -42q0 -30 65 -49q5 -2 8 -3q71 -22 89 -30q91 -39 91 -120zM371 653l-88 -130h-113l-88 130h84l60 -82l60 82h85z" />
    <glyph glyph-name="Tcedilla" unicode="&#x162;" horiz-adv-x="503" 
d="M495 536h-181v-536h-125v536h-182v99h488v-99zM208 -43l108 -3q-14 -98 -94 -155l-73 32q52 52 59 126z" />
    <glyph glyph-name="tcedilla" unicode="&#x163;" horiz-adv-x="341" 
d="M315 92l12 -87q-49 -15 -102 -15q-70 0 -106 35t-36 120v235h-66v89h66l8 122h113v-122h123v-89h-123v-212q0 -44 12 -62q14 -21 44 -21q27 0 55 7zM158 -43l108 -3q-14 -98 -94 -155l-73 32q52 52 59 126z" />
    <glyph glyph-name="Tcaron" unicode="&#x164;" horiz-adv-x="503" 
d="M495 536h-181v-536h-125v536h-182v99h488v-99zM396 820l-88 -130h-113l-88 130h84l60 -82l60 82h85z" />
    <glyph glyph-name="tcaron" unicode="&#x165;" horiz-adv-x="341" 
d="M315 92l12 -87q-49 -15 -102 -15q-70 0 -106 35t-36 120v235h-66v89h66l8 122h113v-122h123v-89h-123v-212q0 -44 12 -62q14 -21 44 -21q27 0 55 7zM265 681l107 -2q0 -95 -52 -175l-85 6q30 76 30 171z" />
    <glyph glyph-name="Tbar" unicode="&#x166;" horiz-adv-x="503" 
d="M463 243h-149v-243h-125v243h-149v84h149v209h-182v99h488v-99h-181v-209h149v-84z" />
    <glyph glyph-name="tbar" unicode="&#x167;" horiz-adv-x="341" 
d="M327 195h-123v-27q0 -44 12 -62q14 -21 44 -21q27 0 55 7l12 -87q-49 -15 -102 -15q-70 0 -106 35t-36 120v50h-66v84h66v101h-66v89h66l8 122h113v-122h123v-89h-123v-101h123v-84z" />
    <glyph glyph-name="Utilde" unicode="&#x168;" horiz-adv-x="640" 
d="M447 245v390h126v-383q0 -128 -56 -191q-63 -71 -197 -71q-135 0 -197 71q-57 62 -57 190v384h126v-390q0 -73 26 -104q34 -40 101 -40q68 0 102 40q26 31 26 104zM421 812l58 -7q0 -43 -28 -76t-67 -33q-13 0 -24 2t-20.5 6.5t-14 6.5t-13.5 9l-9 6q-32 20 -46 20
q-32 0 -39 -48l-58 7q0 43 28 76t67 33q13 0 24 -2t20.5 -6.5t14 -6.5t13.5 -9l9 -6q32 -20 46 -20q32 0 39 48z" />
    <glyph glyph-name="utilde" unicode="&#x169;" 
d="M482 0h-114l-7 79q-58 -89 -146 -89q-157 0 -157 178v301h122v-276q0 -100 80 -100q41 0 67.5 31t32.5 68v277h122v-469zM374 645l58 -7q0 -43 -28 -76t-67 -33q-13 0 -24 2t-20.5 6.5t-14 6.5t-13.5 8l-9 7q-32 20 -46 20q-32 0 -39 -48l-58 7q0 43 28 76t67 33
q13 0 24 -2t20.5 -6.5t14 -6.5t13.5 -8l9 -7q32 -20 46 -20q32 0 39 48z" />
    <glyph glyph-name="Umacron" unicode="&#x16a;" horiz-adv-x="640" 
d="M447 245v390h126v-383q0 -128 -56 -191q-63 -71 -197 -71q-135 0 -197 71q-57 62 -57 190v384h126v-390q0 -73 26 -104q34 -40 101 -40q68 0 102 40q26 31 26 104zM468 722h-295v66h295v-66z" />
    <glyph glyph-name="umacron" unicode="&#x16b;" 
d="M482 0h-114l-7 79q-58 -89 -146 -89q-157 0 -157 178v301h122v-276q0 -100 80 -100q41 0 67.5 31t32.5 68v277h122v-469zM421 555h-295v66h295v-66z" />
    <glyph glyph-name="Ubreve" unicode="&#x16c;" horiz-adv-x="640" 
d="M447 245v390h126v-383q0 -128 -56 -191q-63 -71 -197 -71q-135 0 -197 71q-57 62 -57 190v384h126v-390q0 -73 26 -104q34 -40 101 -40q68 0 102 40q26 31 26 104zM400 824l64 -11q-13 -61 -50.5 -92.5t-92.5 -31.5q-56 0 -93.5 31t-50.5 92l63 12q7 -30 27.5 -49
t52.5 -19t52.5 19t27.5 49z" />
    <glyph glyph-name="ubreve" unicode="&#x16d;" 
d="M482 0h-114l-7 79q-58 -89 -146 -89q-157 0 -157 178v301h122v-276q0 -100 80 -100q41 0 67.5 31t32.5 68v277h122v-469zM353 657l64 -11q-13 -61 -50.5 -92.5t-92.5 -31.5q-56 0 -93.5 31t-50.5 92l63 12q7 -30 27.5 -49t52.5 -19t52.5 19t27.5 49z" />
    <glyph glyph-name="Uring" unicode="&#x16e;" horiz-adv-x="640" 
d="M447 245v390h126v-383q0 -128 -56 -191q-63 -71 -197 -71q-135 0 -197 71q-57 62 -57 190v384h126v-390q0 -73 26 -104q34 -40 101 -40q68 0 102 40q26 31 26 104zM410 769q0 -39 -25.5 -64t-64.5 -25t-64.5 25t-25.5 64t25.5 64t64.5 25t64.5 -25t25.5 -64zM364 769
q0 19 -12.5 31.5t-31.5 12.5t-31.5 -12.5t-12.5 -31.5t12.5 -31.5t31.5 -12.5t31.5 12.5t12.5 31.5z" />
    <glyph glyph-name="uring" unicode="&#x16f;" 
d="M482 0h-114l-7 79q-58 -89 -146 -89q-157 0 -157 178v301h122v-276q0 -100 80 -100q41 0 67.5 31t32.5 68v277h122v-469zM363 602q0 -39 -25.5 -64t-64.5 -25t-64.5 25t-25.5 64t25.5 64t64.5 25t64.5 -25t25.5 -64zM317 602q0 19 -12.5 31.5t-31.5 12.5t-31.5 -12.5
t-12.5 -31.5t12.5 -31.5t31.5 -12.5t31.5 12.5t12.5 31.5z" />
    <glyph glyph-name="Uhungarumlaut" unicode="&#x170;" horiz-adv-x="640" 
d="M447 245v390h126v-383q0 -128 -56 -191q-63 -71 -197 -71q-135 0 -197 71q-57 62 -57 190v384h126v-390q0 -73 26 -104q34 -40 101 -40q68 0 102 40q26 31 26 104zM533 820l-100 -130h-87l68 130h119zM364 820l-99 -130h-87l68 130h118z" />
    <glyph glyph-name="uhungarumlaut" unicode="&#x171;" 
d="M482 0h-114l-7 79q-58 -89 -146 -89q-157 0 -157 178v301h122v-276q0 -100 80 -100q41 0 67.5 31t32.5 68v277h122v-469zM481 653l-100 -130h-87l68 130h119zM312 653l-99 -130h-87l68 130h118z" />
    <glyph glyph-name="Uogonek" unicode="&#x172;" horiz-adv-x="640" 
d="M491 -102l22 -40q-5 -6 -17.5 -15.5t-40 -20t-54.5 -10.5q-47 0 -76 25.5t-29 69.5q0 47 39 83h-15q-135 0 -197 71q-57 62 -57 190v384h126v-390q0 -73 26 -104q34 -40 101 -40q68 0 102 40q26 31 26 104v390h126v-383q0 -128 -56 -191q-39 -44 -101 -60
q-43 -38 -43 -76q0 -48 50 -48q41 0 68 21z" />
    <glyph glyph-name="uogonek" unicode="&#x173;" 
d="M482 0h-77q-45 -37 -45 -77q0 -46 47 -46q32 0 57 18l22 -40q-47 -43 -100 -43q-46 0 -74.5 25.5t-28.5 69.5q0 66 83 116l-5 56q-58 -89 -146 -89q-157 0 -157 178v301h122v-276q0 -100 80 -100q41 0 67.5 31t32.5 68v277h122v-469z" />
    <glyph glyph-name="Wcircumflex" unicode="&#x174;" horiz-adv-x="883" 
d="M868 635l-163 -635h-138l-125 485l-125 -485h-138l-164 635h129l111 -488l122 488h131l122 -488l111 488h127zM586 690h-85l-59 82l-61 -82h-84l88 130h113z" />
    <glyph glyph-name="wcircumflex" unicode="&#x175;" horiz-adv-x="736" 
d="M724 469l-135 -469h-123l-98 334l-97 -334h-123l-136 469h124l82 -342l90 342h119l91 -342l81 342h125zM513 523h-85l-59 82l-61 -82h-84l88 130h113z" />
    <glyph glyph-name="Ycircumflex" unicode="&#x176;" horiz-adv-x="563" 
d="M563 635l-218 -376v-259h-126v259l-219 376h139l144 -278l143 278h137zM426 690h-85l-59 82l-61 -82h-84l88 130h113z" />
    <glyph glyph-name="ycircumflex" unicode="&#x177;" horiz-adv-x="495" 
d="M492 469l-198 -514q-28 -72 -60 -100.5t-84 -28.5q-31 0 -58.5 6t-39.5 12l-12 5l26 90q28 -14 53 -14q19 0 29.5 8.5t20.5 33.5l16 43l-178 459h131l113 -349l113 349h128zM392 523h-85l-59 82l-61 -82h-84l88 130h113z" />
    <glyph glyph-name="Ydieresis" unicode="&#x178;" horiz-adv-x="563" 
d="M563 635l-218 -376v-259h-126v259l-219 376h139l144 -278l143 278h137zM424 756q0 -25 -15.5 -41.5t-40.5 -16.5t-41 16.5t-16 40.5q0 25 15.5 41t40.5 16t41 -16t16 -40zM257 756q0 -25 -16 -41.5t-41 -16.5t-41 16.5t-16 40.5q0 25 16 41t41 16t41 -16t16 -40z" />
    <glyph glyph-name="Zacute" unicode="&#x179;" horiz-adv-x="561" 
d="M532 0h-503v87l336 449h-324v99h478v-89l-331 -444h344v-102zM400 820l-100 -130h-87l68 130h119z" />
    <glyph glyph-name="zacute" unicode="&#x17a;" horiz-adv-x="439" 
d="M422 0h-405v75l250 304h-240v90h385v-76l-245 -299h255v-94zM342 653l-100 -130h-87l68 130h119z" />
    <glyph glyph-name="Zdotaccent" unicode="&#x17b;" horiz-adv-x="561" 
d="M532 0h-503v87l336 449h-324v99h478v-89l-331 -444h344v-102zM341 755q0 -26 -17.5 -43.5t-43.5 -17.5t-43 17.5t-17 43.5t17 43t43 17t43.5 -17t17.5 -43z" />
    <glyph glyph-name="zdotaccent" unicode="&#x17c;" horiz-adv-x="439" 
d="M422 0h-405v75l250 304h-240v90h385v-76l-245 -299h255v-94zM280 588q0 -26 -17.5 -43.5t-43.5 -17.5t-43 17.5t-17 43.5t17 43t43 17t43.5 -17t17.5 -43z" />
    <glyph glyph-name="Zcaron" unicode="&#x17d;" horiz-adv-x="561" 
d="M532 0h-503v87l336 449h-324v99h478v-89l-331 -444h344v-102zM425 820l-88 -130h-113l-88 130h84l60 -82l60 82h85z" />
    <glyph glyph-name="zcaron" unicode="&#x17e;" horiz-adv-x="439" 
d="M422 0h-405v75l250 304h-240v90h385v-76l-245 -299h255v-94zM364 653l-88 -130h-113l-88 130h84l60 -82l60 82h85z" />
    <glyph glyph-name="florin" unicode="&#x192;" 
d="M521 635l-27 -82q-26 17 -66 17q-59 0 -74 -84l-18 -93h112v-68h-124l-51 -282q-16 -88 -54 -130q-42 -48 -115 -48q-59 0 -98 27l30 85q25 -15 60 -15q52 0 69 98l48 265h-91v67h103l21 111q19 94 67 129q40 30 102 30q59 0 106 -27z" />
    <glyph glyph-name="AEacute" unicode="&#x1fc;" horiz-adv-x="843" 
d="M805 0h-396v162h-222l-88 -162h-139l361 635h475v-99h-262v-154h242v-100h-242v-180h271v-102zM409 259v279h-21l-153 -279h174zM585 820l-100 -130h-87l68 130h119z" />
    <glyph glyph-name="aeacute" unicode="&#x1fd;" horiz-adv-x="789" 
d="M763 213h-323v-8q4 -59 37.5 -91t90.5 -32q81 0 140 48l43 -74q-3 -3 -8 -7.5t-23 -15.5t-39 -20t-56 -16t-73 -7q-119 0 -184 83q-69 -83 -183 -83q-64 0 -110 35t-46 106q0 110 137 142q59 14 156 14v27q0 76 -97 76q-77 0 -142 -42l-33 84q84 46 185 46q78 0 124 -29
q30 -20 36 -39q59 68 156 68q99 0 155.5 -65t56.5 -168v-32zM647 289q0 45 -25.5 75.5t-74.5 30.5t-76.5 -31.5t-31.5 -74.5h208zM333 137q-14 38 -14 78q-48 0 -80 -6q-87 -16 -87 -69q0 -34 22.5 -49.5t53.5 -15.5q28 0 57.5 16t47.5 46zM518 653l-100 -130h-87l68 130
h119z" />
    <glyph glyph-name="Oslashacute" unicode="&#x1fe;" horiz-adv-x="696" 
d="M659 318q0 -148 -84.5 -238t-226.5 -90q-101 0 -175 48l-58 -73l-57 44l60 75q-81 89 -81 234q0 147 84.5 237t226.5 90q101 0 178 -50l55 70l57 -44l-58 -73q79 -90 79 -230zM454 506q-43 34 -106 34q-86 0 -134 -61t-48 -160q0 -79 32 -135zM530 319q0 75 -29 130
l-255 -320q43 -32 102 -32q85 0 133.5 62t48.5 160zM490 820l-100 -130h-87l68 130h119z" />
    <glyph glyph-name="oslashacute" unicode="&#x1ff;" horiz-adv-x="534" 
d="M505 234q0 -112 -65.5 -178t-172.5 -66q-81 0 -143 41l-46 -52l-40 37l46 52q-55 64 -55 166q0 112 65.5 178t172.5 66q84 0 145 -42l46 51l39 -37l-45 -51q53 -67 53 -165zM341 356q-28 30 -74 30q-54 0 -83.5 -42t-29.5 -110q0 -42 12 -75zM380 234q0 39 -11 72
l-174 -195q29 -29 72 -29q54 0 83.5 42.5t29.5 109.5zM404 653l-100 -130h-87l68 130h119z" />
    <glyph glyph-name="Scommaaccent" unicode="&#x218;" horiz-adv-x="520" 
d="M489 188q0 -79 -59.5 -138.5t-178.5 -59.5q-65 0 -129.5 25.5t-105.5 69.5l63 89q26 -26 74 -52t98 -26q55 0 84 20.5t29 57.5q0 17 -7 30.5t-20.5 22.5t-22 13t-22.5 10q-13 5 -64 24t-59 22q-123 48 -123 166q0 72 55.5 127.5t172.5 55.5q70 0 126 -26.5t87 -57.5
l-54 -86q-26 26 -72 48t-91 22q-101 0 -101 -71q0 -16 6.5 -29t21 -22.5t20 -12.5t21.5 -10q12 -5 62.5 -23.5t58.5 -21.5q130 -48 130 -167zM227 -43l108 -3q-14 -98 -94 -155l-73 32q52 52 59 126z" />
    <glyph glyph-name="scommaaccent" unicode="&#x219;" horiz-adv-x="435" 
d="M410 145q0 -66 -50 -110q-51 -45 -150 -45q-58 0 -113 25t-82 55l60 75q25 -26 66.5 -44t73.5 -18q75 0 75 44q0 5 -1.5 10t-5.5 9t-6.5 7.5t-9.5 7l-10 5t-11.5 4.5t-10.5 4t-11 4l-9 2q-54 17 -75 25q-18 7 -28 12.5t-30.5 20t-31.5 39t-11 55.5q0 67 51.5 107
t136.5 40q50 0 94.5 -15.5t64.5 -31.5l20 -16l-47 -77q-63 50 -129 50q-73 0 -73 -42q0 -30 65 -49q5 -2 8 -3q71 -22 89 -30q91 -39 91 -120zM181 -43l108 -3q-14 -98 -94 -155l-73 32q52 52 59 126z" />
    <glyph glyph-name="Tcommaaccent" unicode="&#x21a;" horiz-adv-x="503" 
d="M495 536h-181v-536h-125v536h-182v99h488v-99zM208 -43l108 -3q-14 -98 -94 -155l-73 32q52 52 59 126z" />
    <glyph glyph-name="tcommaaccent" unicode="&#x21b;" horiz-adv-x="341" 
d="M315 92l12 -87q-49 -15 -102 -15q-70 0 -106 35t-36 120v235h-66v89h66l8 122h113v-122h123v-89h-123v-212q0 -44 12 -62q14 -21 44 -21q27 0 55 7zM158 -43l108 -3q-14 -98 -94 -155l-73 32q52 52 59 126z" />
    <glyph glyph-name="circumflex" unicode="&#x2c6;" horiz-adv-x="427" 
d="M358 523h-85l-59 82l-61 -82h-84l88 130h113z" />
    <glyph glyph-name="caron" unicode="&#x2c7;" horiz-adv-x="427" 
d="M358 653l-88 -130h-113l-88 130h84l60 -82l60 82h85z" />
    <glyph glyph-name="uni02C9" unicode="&#x2c9;" horiz-adv-x="427" 
d="M361 547h-295v66h295v-66z" />
    <glyph glyph-name="breve" unicode="&#x2d8;" horiz-adv-x="427" 
d="M293 657l64 -11q-13 -61 -50.5 -92.5t-92.5 -31.5q-56 0 -93.5 31t-50.5 92l63 12q7 -30 27.5 -49t52.5 -19t52.5 19t27.5 49z" />
    <glyph glyph-name="dotaccent" unicode="&#x2d9;" horiz-adv-x="427" 
d="M274 588q0 -26 -17.5 -43.5t-43.5 -17.5t-43 17.5t-17 43.5t17 43t43 17t43.5 -17t17.5 -43z" />
    <glyph glyph-name="ring" unicode="&#x2da;" horiz-adv-x="427" 
d="M303 602q0 -39 -25.5 -64t-64.5 -25t-64.5 25t-25.5 64t25.5 64t64.5 25t64.5 -25t25.5 -64zM257 602q0 19 -12.5 31.5t-31.5 12.5t-31.5 -12.5t-12.5 -31.5t12.5 -31.5t31.5 -12.5t31.5 12.5t12.5 31.5z" />
    <glyph glyph-name="ogonek" unicode="&#x2db;" horiz-adv-x="427" 
d="M384 -102l22 -40q-5 -6 -17.5 -15.5t-40 -20t-54.5 -10.5q-47 0 -76 25.5t-29 69.5q0 27 13 50t26 33l13 10h68q-43 -34 -43 -75q0 -48 50 -48q41 0 68 21z" />
    <glyph glyph-name="tilde" unicode="&#x2dc;" horiz-adv-x="427" 
d="M314 645l58 -7q0 -43 -28 -76t-67 -33q-13 0 -24 2t-20.5 6.5t-14 6.5t-13.5 8l-9 7q-32 20 -46 20q-32 0 -39 -48l-58 7q0 43 28 76t67 33q13 0 24 -2t20.5 -6.5t14 -6.5t13.5 -8l9 -7q32 -20 46 -20q32 0 39 48z" />
    <glyph glyph-name="hungarumlaut" unicode="&#x2dd;" horiz-adv-x="427" 
d="M411 653l-100 -130h-87l68 130h119zM242 653l-99 -130h-87l68 130h118z" />
    <glyph glyph-name="uni03A9" unicode="&#x3a9;" horiz-adv-x="644" 
d="M614 0h-253v85q63 33 105.5 94.5t42.5 155.5q0 101 -52 159.5t-135 58.5q-84 0 -136 -58.5t-52 -159.5q0 -94 42.5 -155.5t105.5 -94.5v-85h-252v90h125q-9 5 -25 20.5t-38.5 46t-38.5 81t-16 109.5q0 129 80 213.5t205 84.5q124 0 204 -84.5t80 -212.5q0 -59 -15.5 -110
t-38.5 -81t-39 -46t-25 -21h126v-90z" />
    <glyph glyph-name="uni03BC" unicode="&#x3bc;" horiz-adv-x="541" 
d="M477 0h-114l-7 79q-16 -29 -45.5 -53t-60.5 -24q-20 0 -37 4t-23 8l-7 4v-184h-122v635h121v-274q0 -51 17.5 -76.5t59.5 -25.5q39 0 65 32.5t31 66.5v277h122v-469z" />
    <glyph glyph-name="pi" unicode="&#x3c0;" 
d="M523 379h-75v-379h-97v379h-155v-379h-98v379h-75v90h500v-90z" />
    <glyph glyph-name="Wgrave" unicode="&#x1e80;" horiz-adv-x="883" 
d="M868 635l-163 -635h-138l-125 485l-125 -485h-138l-164 635h129l111 -488l122 488h131l122 -488l111 488h127zM514 690h-86l-100 130h118z" />
    <glyph glyph-name="wgrave" unicode="&#x1e81;" horiz-adv-x="736" 
d="M724 469l-135 -469h-123l-98 334l-97 -334h-123l-136 469h124l82 -342l90 342h119l91 -342l81 342h125zM431 523h-86l-100 130h118z" />
    <glyph glyph-name="Wacute" unicode="&#x1e82;" horiz-adv-x="883" 
d="M868 635l-163 -635h-138l-125 485l-125 -485h-138l-164 635h129l111 -488l122 488h131l122 -488l111 488h127zM555 820l-100 -130h-87l68 130h119z" />
    <glyph glyph-name="wacute" unicode="&#x1e83;" horiz-adv-x="736" 
d="M724 469l-135 -469h-123l-98 334l-97 -334h-123l-136 469h124l82 -342l90 342h119l91 -342l81 342h125zM492 653l-100 -130h-87l68 130h119z" />
    <glyph glyph-name="Wdieresis" unicode="&#x1e84;" horiz-adv-x="883" 
d="M868 635l-163 -635h-138l-125 485l-125 -485h-138l-164 635h129l111 -488l122 488h131l122 -488l111 488h127zM582 756q0 -25 -15.5 -41.5t-40.5 -16.5t-41 16.5t-16 40.5q0 25 15.5 41t40.5 16t41 -16t16 -40zM415 756q0 -25 -16 -41.5t-41 -16.5t-41 16.5t-16 40.5
q0 25 16 41t41 16t41 -16t16 -40z" />
    <glyph glyph-name="wdieresis" unicode="&#x1e85;" horiz-adv-x="736" 
d="M724 469l-135 -469h-123l-98 334l-97 -334h-123l-136 469h124l82 -342l90 342h119l91 -342l81 342h125zM509 589q0 -25 -15.5 -41.5t-40.5 -16.5t-41 16.5t-16 40.5q0 25 15.5 41t40.5 16t41 -16t16 -40zM342 589q0 -25 -16 -41.5t-41 -16.5t-41 16.5t-16 40.5
q0 25 16 41t41 16t41 -16t16 -40z" />
    <glyph glyph-name="Ygrave" unicode="&#x1ef2;" horiz-adv-x="563" 
d="M563 635l-218 -376v-259h-126v259l-219 376h139l144 -278l143 278h137zM344 690h-86l-100 130h118z" />
    <glyph glyph-name="ygrave" unicode="&#x1ef3;" horiz-adv-x="495" 
d="M492 469l-198 -514q-28 -72 -60 -100.5t-84 -28.5q-31 0 -58.5 6t-39.5 12l-12 5l26 90q28 -14 53 -14q19 0 29.5 8.5t20.5 33.5l16 43l-178 459h131l113 -349l113 349h128zM310 523h-86l-100 130h118z" />
    <glyph glyph-name="endash" unicode="&#x2013;" horiz-adv-x="491" 
d="M457 195h-423v84h423v-84z" />
    <glyph glyph-name="emdash" unicode="&#x2014;" horiz-adv-x="800" 
d="M771 195h-742v84h742v-84z" />
    <glyph glyph-name="quoteleft" unicode="&#x2018;" horiz-adv-x="268" 
d="M148 666l75 -37q-97 -97 -97 -221l-102 31q0 61 37 126.5t87 100.5z" />
    <glyph glyph-name="quoteright" unicode="&#x2019;" horiz-adv-x="268" 
d="M142 664l102 -31q0 -61 -37 -126.5t-87 -100.5l-75 37q97 97 97 221z" />
    <glyph glyph-name="quotesinglbase" unicode="&#x201a;" horiz-adv-x="268" 
d="M111 143l101 -31q0 -61 -37 -126.5t-87 -100.5l-75 37q98 98 98 221z" />
    <glyph glyph-name="quotedblleft" unicode="&#x201c;" horiz-adv-x="468" 
d="M423 629q-97 -97 -97 -221l-102 31q0 61 37 126.5t87 100.5zM223 629q-97 -97 -97 -221l-102 31q0 61 37 126.5t87 100.5z" />
    <glyph glyph-name="quotedblright" unicode="&#x201d;" horiz-adv-x="468" 
d="M444 633q0 -61 -37 -126.5t-87 -100.5l-75 37q97 97 97 221zM244 633q0 -61 -37 -126.5t-87 -100.5l-75 37q97 97 97 221z" />
    <glyph glyph-name="quotedblbase" unicode="&#x201e;" horiz-adv-x="468" 
d="M416 112q0 -61 -37 -126.5t-87 -100.5l-75 37q98 98 98 221zM214 112q0 -61 -37.5 -126t-86.5 -101l-75 37q97 97 97 221z" />
    <glyph glyph-name="dagger" unicode="&#x2020;" 
d="M491 377l-180 10l11 -216l-17 -294h-65l-16 294l11 216l-180 -10v93l180 -10l-11 195h98l-11 -195l180 10v-93z" />
    <glyph glyph-name="daggerdbl" unicode="&#x2021;" 
d="M491 58l-180 10l11 -196h-98l11 196l-180 -10v92l180 -10l-7 124l7 123l-180 -10v93l180 -10l-11 195h98l-11 -195l180 10v-93l-180 10l7 -123l-7 -124l180 10v-92z" />
    <glyph glyph-name="bullet" unicode="&#x2022;" 
d="M406 316q0 -55 -39 -94t-94 -39t-94 38.5t-39 94.5t39 94.5t94 38.5t94 -38.5t39 -94.5z" />
    <glyph glyph-name="ellipsis" unicode="&#x2026;" horiz-adv-x="819" 
d="M755 63q0 -30 -20.5 -50.5t-51.5 -20.5q-32 0 -52.5 20t-20.5 50t20.5 50.5t51.5 20.5q32 0 52.5 -20t20.5 -50zM482 63q0 -30 -20.5 -50.5t-51.5 -20.5q-32 0 -52.5 20t-20.5 50t20.5 50.5t51.5 20.5q32 0 52.5 -20t20.5 -50zM209 63q0 -30 -20.5 -50.5t-51.5 -20.5
q-32 0 -52.5 20t-20.5 50t20.5 50.5t51.5 20.5q32 0 52.5 -20t20.5 -50z" />
    <glyph glyph-name="perthousand" unicode="&#x2030;" horiz-adv-x="1163" 
d="M1120 177q0 -85 -43 -136t-114 -51t-114.5 51t-43.5 136q0 84 43 135t114 51t114.5 -51t43.5 -135zM773 177q0 -85 -43.5 -136t-114.5 -51t-114 51t-43 136q0 84 43 135t114 51t114.5 -51t43.5 -135zM624 625l-379 -637l-55 34l380 637zM357 470q0 -84 -43 -135t-114 -51
t-114.5 51t-43.5 135q0 85 43.5 136t114.5 51t114 -51t43 -136zM1030 176q0 51 -17 83t-50 32t-50.5 -31.5t-17.5 -82.5t17 -83t50 -32t50.5 31.5t17.5 82.5zM683 176q0 51 -17.5 83t-50.5 32t-50.5 -31.5t-17.5 -82.5t17.5 -83t50.5 -32t50.5 31.5t17.5 82.5zM267 471
q0 50 -17.5 82t-49.5 32q-33 0 -50.5 -31.5t-17.5 -82.5t17.5 -83t50.5 -32t50 31.5t17 83.5z" />
    <glyph glyph-name="guilsinglleft" unicode="&#x2039;" horiz-adv-x="294" 
d="M248 91l-57 -48l-147 177v55l147 177l57 -47l-128 -157z" />
    <glyph glyph-name="guilsinglright" unicode="&#x203a;" horiz-adv-x="294" 
d="M250 220l-147 -177l-57 47l128 157l-128 157l56 48l148 -177v-55z" />
    <glyph glyph-name="fraction" unicode="&#x2044;" horiz-adv-x="115" 
d="M275 625l-380 -637l-55 34l380 637z" />
    <glyph glyph-name="zero.superior" unicode="&#x2070;" horiz-adv-x="415" 
d="M364 573q0 -88 -42.5 -143.5t-113.5 -55.5q-72 0 -114.5 55.5t-42.5 143.5t42.5 143.5t113.5 55.5q72 0 114.5 -55.5t42.5 -143.5zM274 573q0 126 -66 126q-67 0 -67 -125q0 -126 66 -126q67 0 67 125z" />
    <glyph glyph-name="four.superior" unicode="&#x2074;" horiz-adv-x="415" 
d="M369 452h-51v-69h-88v69h-188v68l170 245h106v-244h51v-69zM230 521v169l-110 -169h110z" />
    <glyph glyph-name="five.superior" unicode="&#x2075;" horiz-adv-x="415" 
d="M351 505q0 -62 -43 -97t-105 -35q-82 0 -143 53l38 62q45 -45 95 -45q33 0 52.5 16t19.5 46q0 29 -20 44.5t-48 15.5q-43 0 -60 -20l-59 20l36 198h227v-70h-162l-16 -76q21 13 65 13q49 0 86 -32.5t37 -92.5z" />
    <glyph glyph-name="six.superior" unicode="&#x2076;" horiz-adv-x="415" 
d="M364 506q0 -58 -41 -95t-107 -37q-73 0 -115 52t-42 148q0 91 48 144.5t124 53.5t116 -40l-32 -57q-6 7 -30 17.5t-51 10.5q-88 0 -88 -115q32 39 99 39q49 0 84 -33t35 -88zM277 505q0 29 -16 46t-46 17q-18 0 -34.5 -10t-23 -18t-9.5 -14q0 -38 17.5 -61t48.5 -23
t47 17t16 46z" />
    <glyph glyph-name="seven.superior" unicode="&#x2077;" horiz-adv-x="415" 
d="M351 699l-159 -316h-94l163 307h-191v75h281v-66z" />
    <glyph glyph-name="eight.superior" unicode="&#x2078;" horiz-adv-x="415" 
d="M359 486q0 -50 -38.5 -81t-111.5 -31q-74 0 -113.5 29t-39.5 79q0 73 77 96q-18 8 -29.5 16t-23 28t-11.5 48q0 46 37 74t102 28q64 0 100.5 -28t36.5 -74q0 -21 -8 -37t-20.5 -25t-21.5 -13.5t-17 -6.5q81 -28 81 -102zM260 667q0 20 -14.5 31.5t-37.5 11.5t-38 -10.5
t-15 -30.5q0 -33 37 -45l24 -9l9 4q35 15 35 48zM271 491q0 33 -44 48l-32 11l-14 -5q-37 -14 -37 -54q0 -23 17.5 -37t44.5 -14q28 0 46.5 12.5t18.5 38.5z" />
    <glyph glyph-name="nine.superior" unicode="&#x2079;" horiz-adv-x="415" 
d="M355 574q0 -107 -57 -159q-46 -41 -113 -41q-80 0 -120 44l34 57q6 -9 30.5 -21t51.5 -12q31 0 56 20q31 31 31 96q-36 -40 -96 -40q-42 0 -80.5 31t-38.5 93q0 64 44 97t103 33q69 0 112 -47.5t43 -150.5zM267 622q0 37 -18 61.5t-49 24.5q-30 0 -45.5 -17.5
t-15.5 -45.5t16 -44.5t45 -16.5q38 0 67 38z" />
    <glyph glyph-name="zero.inferior" unicode="&#x2080;" horiz-adv-x="415" 
d="M364 71q0 -88 -42.5 -143.5t-113.5 -55.5q-72 0 -114.5 55.5t-42.5 143.5t42.5 143.5t113.5 55.5q72 0 114.5 -55.5t42.5 -143.5zM274 71q0 126 -66 126q-67 0 -67 -125q0 -126 66 -126q67 0 67 125z" />
    <glyph glyph-name="one.inferior" unicode="&#x2081;" horiz-adv-x="415" 
d="M267 -120h-96v285q-28 -20 -72 -27l-19 66q19 0 63 24q41 22 51 43h73v-391z" />
    <glyph glyph-name="two.inferior" unicode="&#x2082;" horiz-adv-x="415" 
d="M351 -120h-305q7 53 35.5 95.5t89.5 89.5q29 22 41 32.5t22 24.5t10 28q0 25 -16.5 39t-44.5 14q-48 0 -94 -46l-38 61q15 18 52.5 37.5t91.5 19.5q62 0 100.5 -31.5t38.5 -84.5q0 -43 -23 -71.5t-70 -61.5q-70 -50 -77 -73h187v-73z" />
    <glyph glyph-name="three.inferior" unicode="&#x2083;" horiz-adv-x="415" 
d="M347 -11q0 -53 -46 -85t-106 -32q-77 0 -139 58l39 57q46 -46 95 -46q31 0 50.5 14.5t19.5 40.5q0 25 -17 39t-43 14h-49v64h44q25 0 40.5 12t15.5 34q0 21 -18 33.5t-44 12.5q-47 0 -86 -34l-32 58q46 46 128 46q56 0 97 -26.5t41 -74.5q0 -37 -20 -59.5t-45 -28.5
q30 -7 52.5 -32t22.5 -65z" />
    <glyph glyph-name="four.inferior" unicode="&#x2084;" horiz-adv-x="415" 
d="M369 -50h-51v-69h-88v69h-188v68l170 245h106v-244h51v-69zM230 19v169l-110 -169h110z" />
    <glyph glyph-name="five.inferior" unicode="&#x2085;" horiz-adv-x="415" 
d="M351 3q0 -62 -43 -97t-105 -35q-82 0 -143 53l38 62q45 -45 95 -45q33 0 52.5 16t19.5 46q0 29 -20 44.5t-48 15.5q-43 0 -60 -20l-59 20l36 198h227v-70h-162l-16 -76q21 13 65 13q49 0 86 -32.5t37 -92.5z" />
    <glyph glyph-name="six.inferior" unicode="&#x2086;" horiz-adv-x="415" 
d="M364 4q0 -58 -41 -95t-107 -37q-73 0 -115 52t-42 148q0 91 48 144.5t124 53.5t116 -40l-32 -57q-6 7 -30 17.5t-51 10.5q-88 0 -88 -115q32 39 99 39q49 0 84 -33t35 -88zM277 3q0 29 -16 46t-46 17q-18 0 -34.5 -10t-23 -18t-9.5 -14q0 -38 17.5 -61t48.5 -23t47 17
t16 46z" />
    <glyph glyph-name="seven.inferior" unicode="&#x2087;" horiz-adv-x="415" 
d="M351 197l-159 -316h-94l163 307h-191v75h281v-66z" />
    <glyph glyph-name="eight.inferior" unicode="&#x2088;" horiz-adv-x="415" 
d="M359 -16q0 -50 -38.5 -81t-111.5 -31q-74 0 -113.5 29t-39.5 79q0 73 77 96q-18 8 -29.5 16t-23 28t-11.5 48q0 46 37 74t102 28q64 0 100.5 -28t36.5 -74q0 -21 -8 -37t-20.5 -25t-21.5 -13.5t-17 -6.5q81 -28 81 -102zM260 165q0 20 -14.5 31.5t-37.5 11.5t-38 -10.5
t-15 -30.5q0 -33 37 -45l24 -9l9 4q35 15 35 48zM271 -11q0 33 -44 48l-32 11l-14 -5q-37 -14 -37 -54q0 -23 17.5 -37t44.5 -14q28 0 46.5 12.5t18.5 38.5z" />
    <glyph glyph-name="nine.inferior" unicode="&#x2089;" horiz-adv-x="415" 
d="M355 72q0 -107 -57 -159q-46 -41 -113 -41q-80 0 -120 44l34 57q6 -9 30.5 -21t51.5 -12q31 0 56 20q31 31 31 96q-36 -40 -96 -40q-42 0 -80.5 31t-38.5 93q0 64 44 97t103 33q69 0 112 -47.5t43 -150.5zM267 120q0 37 -18 61.5t-49 24.5q-30 0 -45.5 -17.5t-15.5 -45.5
t16 -44.5t45 -16.5q38 0 67 38z" />
    <glyph glyph-name="Euro" unicode="&#x20ac;" 
d="M417 421v-67h-193q-1 -21 -1 -35l1 -34h193v-68h-184q11 -66 40 -98t82 -32q32 0 62 16t42.5 28.5t18.5 21.5l55 -71q-2 -4 -7 -10t-22 -22t-37.5 -28t-54.5 -22t-72 -10q-191 0 -228 227h-68v67h60q-1 20 -1 34l1 35h-60v68h69q18 102 80.5 163t159.5 61q37 0 69 -8.5
t51 -20.5t32.5 -24.5t18.5 -21.5l6 -8l-55 -70q-1 1 -6 6.5t-9.5 9.5t-12.5 11t-17 12t-20 10t-24.5 7.5t-27.5 2.5q-51 0 -84 -36t-41 -94h184z" />
    <glyph glyph-name="litre" unicode="&#x2113;" horiz-adv-x="518" 
d="M398 103l31 -50q-67 -67 -141 -67q-58 0 -91 35q-38 39 -38 121v100l-60 -63l-34 45l94 97v221q0 90 35.5 138t97.5 48q53 0 78.5 -34t25.5 -77q0 -67 -29.5 -128.5t-86.5 -130.5l-36 -43v-168q0 -93 65 -93q40 0 89 49zM335 605q0 55 -38 55q-53 0 -53 -108v-153
q9 10 23 29q68 98 68 177z" />
    <glyph glyph-name="trademark" unicode="&#x2122;" horiz-adv-x="745" 
d="M698 294l-73 -1l-9 265l-76 -265h-61l-75 265l-10 -265h-69l16 342h102l68 -245l67 245h103zM297 576h-94v-283h-72v283h-95v59h261v-59z" />
    <glyph glyph-name="Omega" unicode="&#x2126;" horiz-adv-x="644" 
d="M614 0h-253v85q63 33 105.5 94.5t42.5 155.5q0 101 -52 159.5t-135 58.5q-84 0 -136 -58.5t-52 -159.5q0 -94 42.5 -155.5t105.5 -94.5v-85h-252v90h125q-9 5 -25 20.5t-38.5 46t-38.5 81t-16 109.5q0 129 80 213.5t205 84.5q124 0 204 -84.5t80 -212.5q0 -59 -15.5 -110
t-38.5 -81t-39 -46t-25 -21h126v-90z" />
    <glyph glyph-name="estimated" unicode="&#x212e;" horiz-adv-x="681" 
d="M634 303h-466v-209q70 -68 166 -68q77 0 129.5 35.5t94.5 102.5l37 -22q-50 -76 -110.5 -115t-150.5 -39q-132 0 -213.5 91t-81.5 224q0 135 80.5 225t215.5 90q136 0 216.5 -90t82.5 -225zM502 341v171q-72 69 -167 69q-101 0 -167 -68v-172h334z" />
    <glyph glyph-name="onethird" unicode="&#x2153;" horiz-adv-x="829" 
d="M235 262h-96v285q-28 -20 -72 -27l-19 66q19 0 63 24q41 22 51 43h73v-391zM779 109q0 -53 -46 -85t-106 -32q-77 0 -139 58l39 57q46 -46 95 -46q31 0 50.5 14.5t19.5 40.5q0 25 -17 39t-43 14h-49v64h44q25 0 40.5 12t15.5 34q0 21 -18 33.5t-44 12.5q-47 0 -86 -34
l-32 58q46 46 128 46q56 0 97 -26.5t41 -74.5q0 -37 -20 -59.5t-45 -28.5q30 -7 52.5 -32t22.5 -65zM604 625l-380 -637l-55 34l380 637z" />
    <glyph glyph-name="twothirds" unicode="&#x2154;" horiz-adv-x="829" 
d="M809 109q0 -53 -46 -85t-106 -32q-77 0 -139 58l39 57q46 -46 95 -46q31 0 50.5 14.5t19.5 40.5q0 25 -17 39t-43 14h-49v64h44q25 0 40.5 12t15.5 34q0 21 -18 33.5t-44 12.5q-47 0 -86 -34l-32 58q46 46 128 46q56 0 97 -26.5t41 -74.5q0 -37 -20 -59.5t-45 -28.5
q30 -7 52.5 -32t22.5 -65zM325 262h-305q4 33 15 60.5t30 50.5t31 34t34 29q8 7 29 23.5t30.5 25t19 22t9.5 25.5q0 25 -16.5 39t-44.5 14q-48 0 -94 -46l-38 61q15 18 52.5 37.5t91.5 19.5q62 0 100.5 -31.5t38.5 -84.5q0 -17 -6 -33.5t-12 -27.5t-19.5 -25t-19.5 -19
t-21 -16l-15 -12q-65 -47 -73 -73h183v-73zM657 625l-380 -637l-55 34l380 637z" />
    <glyph glyph-name="oneeighth" unicode="&#x215b;" horiz-adv-x="829" 
d="M225 262h-96v285q-28 -20 -72 -27l-19 66q19 0 63 24q41 22 51 43h73v-391zM770 104q0 -50 -38.5 -81t-111.5 -31q-74 0 -113.5 29t-39.5 79q0 73 77 96q-18 8 -29.5 16t-23 28t-11.5 48q0 46 37 74t102 28q64 0 100.5 -28t36.5 -74q0 -21 -8 -37t-20.5 -25t-21.5 -13.5
t-17 -6.5q81 -28 81 -102zM671 285q0 20 -14.5 31.5t-37.5 11.5t-38 -10.5t-15 -30.5q0 -33 37 -45l24 -9l9 4q35 15 35 48zM682 109q0 33 -44 48l-32 11l-14 -5q-37 -14 -37 -54q0 -23 17.5 -37t44.5 -14q28 0 46.5 12.5t18.5 38.5zM594 625l-380 -637l-55 34l380 637z" />
    <glyph glyph-name="threeeighths" unicode="&#x215c;" horiz-adv-x="829" 
d="M314 371q0 -53 -46 -85t-106 -32q-77 0 -139 58l39 57q46 -46 95 -46q31 0 50.5 14.5t19.5 40.5q0 25 -17 39t-43 14h-49v64h44q25 0 40.5 12t15.5 34q0 21 -18 33.5t-44 12.5q-47 0 -86 -34l-32 58q46 46 128 46q56 0 97 -26.5t41 -74.5q0 -37 -20 -59.5t-45 -28.5
q30 -7 52.5 -32t22.5 -65zM795 104q0 -50 -38.5 -81t-111.5 -31q-74 0 -113.5 29t-39.5 79q0 73 77 96q-18 8 -29.5 16t-23 28t-11.5 48q0 46 37 74t102 28q64 0 100.5 -28t36.5 -74q0 -21 -8 -37t-20.5 -25t-21.5 -13.5t-17 -6.5q81 -28 81 -102zM696 285q0 20 -14.5 31.5
t-37.5 11.5t-38 -10.5t-15 -30.5q0 -33 37 -45l24 -9l9 4q35 15 35 48zM707 109q0 33 -44 48l-32 11l-14 -5q-37 -14 -37 -54q0 -23 17.5 -37t44.5 -14q28 0 46.5 12.5t18.5 38.5zM624 625l-380 -637l-55 34l380 637z" />
    <glyph glyph-name="fiveeighths" unicode="&#x215d;" horiz-adv-x="829" 
d="M799 104q0 -50 -38.5 -81t-111.5 -31q-74 0 -113.5 29t-39.5 79q0 73 77 96q-18 8 -29.5 16t-23 28t-11.5 48q0 46 37 74t102 28q64 0 100.5 -28t36.5 -74q0 -21 -8 -37t-20.5 -25t-21.5 -13.5t-17 -6.5q81 -28 81 -102zM700 285q0 20 -14.5 31.5t-37.5 11.5t-38 -10.5
t-15 -30.5q0 -33 37 -45l24 -9l9 4q35 15 35 48zM711 109q0 33 -44 48l-32 11l-14 -5q-37 -14 -37 -54q0 -23 17.5 -37t44.5 -14q28 0 46.5 12.5t18.5 38.5zM321 385q0 -62 -43 -97t-105 -35q-82 0 -143 53l38 62q45 -45 95 -45q33 0 52.5 16t19.5 46q0 29 -20 44.5
t-48 15.5q-43 0 -60 -20l-59 20l36 198h227v-70h-162l-16 -76q21 13 65 13q49 0 86 -32.5t37 -92.5zM630 625l-380 -637l-55 34l380 637z" />
    <glyph glyph-name="seveneighths" unicode="&#x215e;" horiz-adv-x="829" 
d="M769 104q0 -50 -38.5 -81t-111.5 -31q-74 0 -113.5 29t-39.5 79q0 73 77 96q-18 8 -29.5 16t-23 28t-11.5 48q0 46 37 74t102 28q64 0 100.5 -28t36.5 -74q0 -21 -8 -37t-20.5 -25t-21.5 -13.5t-17 -6.5q81 -28 81 -102zM670 285q0 20 -14.5 31.5t-37.5 11.5t-38 -10.5
t-15 -30.5q0 -33 37 -45l24 -9l9 4q35 15 35 48zM681 109q0 33 -44 48l-32 11l-14 -5q-37 -14 -37 -54q0 -23 17.5 -37t44.5 -14q28 0 46.5 12.5t18.5 38.5zM346 579l-159 -316h-94l163 307h-191v75h281v-66zM583 625l-380 -637l-55 34l380 637z" />
    <glyph glyph-name="partialdiff" unicode="&#x2202;" 
d="M508 238q0 -112 -64.5 -180t-169.5 -68t-170.5 63.5t-65.5 162.5q0 96 60.5 156.5t147.5 60.5q45 0 81 -16t53 -37q-33 81 -107.5 141.5t-165.5 85.5l33 73q138 -31 240 -133q49 -49 88.5 -129t39.5 -180zM397 219q0 61 -34 99.5t-90 38.5t-90 -38.5t-34 -99.5
q0 -60 34 -99t90 -39t90 38.5t34 99.5z" />
    <glyph glyph-name="Delta" unicode="&#x2206;" 
d="M546 0h-546l273 653zM409 91l-136 343l-136 -343h272z" />
    <glyph glyph-name="product" unicode="&#x220f;" 
d="M531 -185h-226v90h53v660h-155v-660h53v-90h-226v90h76v660h-76v90h501v-90h-76v-660h76v-90z" />
    <glyph glyph-name="summation" unicode="&#x2211;" 
d="M519 -185h-495v77l234 358l-229 330v75h480v-240h-92v147h-256l219 -312l-226 -343h272v173h93v-265z" />
    <glyph glyph-name="minus" unicode="&#x2212;" 
d="M496 260h-446v93h446v-93z" />
    <glyph glyph-name="uni2215" unicode="&#x2215;" horiz-adv-x="273" 
d="M354 625l-380 -637l-55 34l380 637z" />
    <glyph glyph-name="uni2219" unicode="&#x2219;" horiz-adv-x="273" 
d="M209 263q0 -30 -20.5 -50.5t-51.5 -20.5q-32 0 -52.5 20t-20.5 50t20.5 50.5t51.5 20.5q32 0 52.5 -20t20.5 -50z" />
    <glyph glyph-name="radical" unicode="&#x221a;" 
d="M528 543h-85l-156 -543h-102l-80 260h-65v93h134l61 -228l130 510h163v-92z" />
    <glyph glyph-name="infinity" unicode="&#x221e;" 
d="M526 307q0 -58 -38 -95.5t-97 -37.5q-65 0 -118 66q-53 -66 -118 -66q-58 0 -96.5 37.5t-38.5 95.5t38 95t97 37q66 0 118 -65q52 65 118 65q58 0 96.5 -37.5t38.5 -94.5zM442 307q0 24 -15.5 37.5t-40.5 13.5q-41 0 -75 -51q34 -51 74 -51q25 0 41 13.5t16 37.5z
M235 307q-34 51 -74 51q-25 0 -41 -13.5t-16 -37.5t15.5 -37.5t40.5 -13.5q41 0 75 51z" />
    <glyph glyph-name="integral" unicode="&#x222b;" 
d="M439 648l-15 -84q-30 10 -44 10q-32 0 -47 -19q-11 -16 -11 -55v-557q0 -66 -33 -99q-37 -35 -96 -35q-41 0 -86 14l15 84l6 -3q7 -2 17.5 -4.5t20.5 -2.5q34 0 47 19q11 14 11 55l1 556q0 68 32 99q36 36 96 36q41 0 86 -14z" />
    <glyph glyph-name="approxequal" unicode="&#x2248;" 
d="M465 464l36 -72q-66 -53 -143 -53q-29 0 -90 22.5t-85 22.5q-23 0 -47 -9t-36.5 -16.5t-18.5 -12.5l-36 73q65 50 143 50q29 0 90 -22.5t85 -22.5q46 0 102 40zM465 269l36 -72q-64 -51 -143 -51q-29 0 -90 23t-85 23q-54 0 -102 -41l-36 73q69 53 143 53q29 0 90 -23
t85 -23q49 0 102 38z" />
    <glyph glyph-name="notequal" unicode="&#x2260;" 
d="M496 158h-223l-44 -135h-96l44 135h-127v93h156l37 112h-193v92h223l44 136h96l-44 -136h127v-92h-156l-37 -112h193v-93z" />
    <glyph glyph-name="lessequal" unicode="&#x2264;" 
d="M496 129l-446 174v92l446 175v-101l-336 -120l336 -119v-101zM496 0h-446v93h446v-93z" />
    <glyph glyph-name="greaterequal" unicode="&#x2265;" 
d="M496 303l-446 -175v101l336 120l-336 120v101l446 -174v-93zM496 0h-446v93h446v-93z" />
    <glyph glyph-name="lozenge" unicode="&#x25ca;" 
d="M519 319l-246 -334l-246 334l246 334zM408 319l-135 191l-135 -191l135 -191z" />
    <glyph glyph-name="a.sc" unicode="&#xe000;" horiz-adv-x="511" 
d="M516 0h-131l-33 95h-201l-33 -95h-123l182 478h156zM324 181l-73 207l-73 -207h146z" />
    <glyph glyph-name="ae.sc" unicode="&#xe001;" horiz-adv-x="744" 
d="M709 0h-347v116h-186l-70 -116h-141l308 478h427v-89h-217v-98h203v-87h-203v-114h226v-90zM362 196v205h-15l-125 -205h140z" />
    <glyph glyph-name="aacute.sc" unicode="&#xe002;" horiz-adv-x="511" 
d="M516 0h-131l-33 95h-201l-33 -95h-123l182 478h156zM324 181l-73 207l-73 -207h146zM394 663l-100 -130h-87l68 130h119z" />
    <glyph glyph-name="acircumflex.sc" unicode="&#xe003;" horiz-adv-x="511" 
d="M516 0h-131l-33 95h-201l-33 -95h-123l182 478h156zM324 181l-73 207l-73 -207h146zM395 533h-85l-59 82l-61 -82h-84l88 130h113z" />
    <glyph glyph-name="adieresis.sc" unicode="&#xe004;" horiz-adv-x="511" 
d="M516 0h-131l-33 95h-201l-33 -95h-123l182 478h156zM324 181l-73 207l-73 -207h146zM392 599q0 -25 -15.5 -41.5t-40.5 -16.5t-41 16.5t-16 40.5q0 25 15.5 41t40.5 16t41 -16t16 -40zM225 599q0 -25 -16 -41.5t-41 -16.5t-41 16.5t-16 40.5q0 25 16 41t41 16t41 -16
t16 -40z" />
    <glyph glyph-name="agrave.sc" unicode="&#xe005;" horiz-adv-x="511" 
d="M516 0h-131l-33 95h-201l-33 -95h-123l182 478h156zM324 181l-73 207l-73 -207h146zM303 533h-86l-100 130h118z" />
    <glyph glyph-name="aring.sc" unicode="&#xe006;" horiz-adv-x="511" 
d="M516 0h-131l-33 95h-201l-33 -95h-123l182 478h156zM324 181l-73 207l-73 -207h146zM345 612q0 -39 -25.5 -64t-64.5 -25t-64.5 25t-25.5 64t25.5 64t64.5 25t64.5 -25t25.5 -64zM299 612q0 19 -12.5 31.5t-31.5 12.5t-31.5 -12.5t-12.5 -31.5t12.5 -31.5t31.5 -12.5
t31.5 12.5t12.5 31.5z" />
    <glyph glyph-name="atilde.sc" unicode="&#xe007;" horiz-adv-x="511" 
d="M516 0h-131l-33 95h-201l-33 -95h-123l182 478h156zM324 181l-73 207l-73 -207h146zM353 655l58 -7q0 -43 -28 -76t-67 -33q-13 0 -24 2t-20.5 6.5t-14 6.5t-13.5 8l-9 7q-32 20 -46 20q-32 0 -39 -48l-58 7q0 43 28 76t67 33q13 0 24 -2t20.5 -6.5t14 -6.5t13.5 -8l9 -7
q32 -20 46 -20q32 0 39 48z" />
    <glyph glyph-name="b.sc" unicode="&#xe008;" horiz-adv-x="516" 
d="M489 134q0 -71 -64 -106q-49 -28 -145 -28h-216v478h216q81 0 122 -23q57 -31 57 -95q0 -39 -24.5 -67t-71.5 -35v-3q63 -7 94.5 -42t31.5 -79zM336 342q0 35 -27 47q-16 8 -55 8h-69v-111h68q37 0 56 9q27 14 27 47zM364 146q0 34 -27 51q-19 13 -61 13h-91v-129h93
q37 0 58 12q28 15 28 53z" />
    <glyph glyph-name="c.sc" unicode="&#xe009;" horiz-adv-x="496" 
d="M418 151l61 -69q-3 -5 -9 -12t-23.5 -22.5t-38.5 -27t-55 -21t-72 -9.5q-107 0 -179 65.5t-72 183.5t73.5 183.5t179.5 65.5q37 0 70.5 -9t54 -20t37.5 -25.5t23 -21t9 -11.5l-62 -71q-2 2 -5 6.5t-14 15t-24 18.5t-34 14.5t-43 6.5q-62 0 -102 -40.5t-40 -110.5
t40.5 -111t102.5 -41q36 0 66.5 16t43.5 32z" />
    <glyph glyph-name="ccedilla.sc" unicode="&#xe00a;" horiz-adv-x="496" 
d="M418 151l61 -69l-3 -4q-4 -5 -7.5 -9t-10 -10.5t-13.5 -12.5t-16.5 -13t-21 -13t-24.5 -11t-29 -9.5t-33 -6.5l-57 -122h-116l86 124q-36 4 -70 19.5t-65 43.5t-50 75t-19 106q0 118 73.5 183.5t179.5 65.5q37 0 70.5 -9t54 -20t37.5 -25.5t23 -21t9 -11.5l-62 -71
q-2 2 -5 6.5t-14 15t-24 18.5t-34 14.5t-43 6.5q-62 0 -102 -40.5t-40 -110.5t40.5 -111t102.5 -41q36 0 66.5 16t43.5 32z" />
    <glyph glyph-name="d.sc" unicode="&#xe00b;" horiz-adv-x="557" 
d="M527 239q0 -121 -84 -187q-36 -28 -79 -40t-113 -12h-187v478h187q71 0 113.5 -11.5t78.5 -40.5q84 -66 84 -187zM402 239q0 80 -49 122q-36 28 -99 28h-69v-299h69q64 0 98 28q50 39 50 121z" />
    <glyph glyph-name="eth.sc" unicode="&#xe00c;" horiz-adv-x="557" 
d="M527 239q0 -121 -84 -187q-36 -28 -79 -40t-113 -12h-187v210h-42v70h42v198h187q71 0 113.5 -11.5t78.5 -40.5q84 -66 84 -187zM402 239q0 80 -49 122q-36 28 -99 28h-69v-109h95v-70h-95v-120h69q64 0 98 28q50 39 50 121z" />
    <glyph glyph-name="e.sc" unicode="&#xe00d;" horiz-adv-x="459" 
d="M424 0h-360v478h351v-89h-230v-98h216v-87h-216v-114h239v-90z" />
    <glyph glyph-name="eacute.sc" unicode="&#xe00e;" horiz-adv-x="459" 
d="M424 0h-360v478h351v-89h-230v-98h216v-87h-216v-114h239v-90zM363 663l-100 -130h-87l68 130h119z" />
    <glyph glyph-name="ecircumflex.sc" unicode="&#xe00f;" horiz-adv-x="459" 
d="M424 0h-360v478h351v-89h-230v-98h216v-87h-216v-114h239v-90zM384 533h-85l-59 82l-61 -82h-84l88 130h113z" />
    <glyph glyph-name="edieresis.sc" unicode="&#xe010;" horiz-adv-x="459" 
d="M424 0h-360v478h351v-89h-230v-98h216v-87h-216v-114h239v-90zM379 599q0 -25 -15.5 -41.5t-40.5 -16.5t-41 16.5t-16 40.5q0 25 15.5 41t40.5 16t41 -16t16 -40zM212 599q0 -25 -16 -41.5t-41 -16.5t-41 16.5t-16 40.5q0 25 16 41t41 16t41 -16t16 -40z" />
    <glyph glyph-name="egrave.sc" unicode="&#xe011;" horiz-adv-x="459" 
d="M424 0h-360v478h351v-89h-230v-98h216v-87h-216v-114h239v-90zM299 533h-86l-100 130h118z" />
    <glyph glyph-name="f.sc" unicode="&#xe012;" horiz-adv-x="427" 
d="M405 389h-219v-116h197v-89h-197v-184h-122v478h341v-89z" />
    <glyph glyph-name="g.sc" unicode="&#xe013;" horiz-adv-x="564" 
d="M516 0h-83l-14 50q-2 -2 -5 -6.5t-16 -14.5t-28.5 -18t-43.5 -14.5t-60 -6.5q-105 0 -170.5 67.5t-65.5 181.5q0 115 71.5 182t185.5 67q24 0 46 -3t39.5 -8t32.5 -11.5t26.5 -14.5t21 -15t16 -14.5t11 -12.5t7.5 -9l3 -5l-74 -61q-48 64 -126 64q-59 0 -98 -42t-39 -117
q0 -76 37.5 -118t97.5 -42q35 0 63 12t39 24l10 12v59h-104v78h220v-264z" />
    <glyph glyph-name="h.sc" unicode="&#xe014;" horiz-adv-x="574" 
d="M510 0h-121v203h-203v-203h-122v478h122v-184h203v184h121v-478z" />
    <glyph glyph-name="i.sc" unicode="&#xe015;" horiz-adv-x="250" 
d="M186 0h-122v478h122v-478z" />
    <glyph glyph-name="iacute.sc" unicode="&#xe016;" horiz-adv-x="250" 
d="M186 0h-122v478h122v-478zM249 663l-100 -130h-87l68 130h119z" />
    <glyph glyph-name="icircumflex.sc" unicode="&#xe017;" horiz-adv-x="250" 
d="M186 0h-122v478h122v-478zM271 533h-85l-59 82l-61 -82h-84l88 130h113z" />
    <glyph glyph-name="idieresis.sc" unicode="&#xe018;" horiz-adv-x="250" 
d="M186 0h-122v478h122v-478zM265 599q0 -25 -15.5 -41.5t-40.5 -16.5t-41 16.5t-16 40.5q0 25 15.5 41t40.5 16t41 -16t16 -40zM98 599q0 -25 -16 -41.5t-41 -16.5t-41 16.5t-16 40.5q0 25 16 41t41 16t41 -16t16 -40z" />
    <glyph glyph-name="igrave.sc" unicode="&#xe019;" horiz-adv-x="250" 
d="M186 0h-122v478h122v-478zM187 533h-86l-100 130h118z" />
    <glyph glyph-name="j.sc" unicode="&#xe01a;" horiz-adv-x="250" 
d="M64 2v476h122v-468q0 -82 -38 -118q-38 -37 -105 -37q-48 0 -88 18l20 80q20 -9 42 -9q47 0 47 58z" />
    <glyph glyph-name="k.sc" unicode="&#xe01b;" horiz-adv-x="508" 
d="M502 0h-140l-127 204l-49 -52v-152h-122v478h122v-193l165 193h145l-180 -188z" />
    <glyph glyph-name="l.sc" unicode="&#xe01c;" horiz-adv-x="405" 
d="M388 0h-324v478h121v-388h203v-90z" />
    <glyph glyph-name="lslash.sc" unicode="&#xe01d;" horiz-adv-x="405" 
d="M388 0h-324v162l-42 -20v83l42 19v234h121v-180l97 45v-83l-97 -44v-126h203v-90z" />
    <glyph glyph-name="m.sc" unicode="&#xe01e;" horiz-adv-x="692" 
d="M635 0h-116l-7 355l-114 -355h-109l-114 355l-7 -355h-111l18 478h159l112 -359l112 359h159z" />
    <glyph glyph-name="n.sc" unicode="&#xe01f;" horiz-adv-x="574" 
d="M510 0h-121l-210 323v-323h-115v478h131l200 -308v308h115v-478z" />
    <glyph glyph-name="ntilde.sc" unicode="&#xe020;" horiz-adv-x="574" 
d="M510 0h-121l-210 323v-323h-115v478h131l200 -308v308h115v-478zM388 655l58 -7q0 -43 -28 -76t-67 -33q-13 0 -24 2t-20.5 6.5t-14 6.5t-13.5 8l-9 7q-32 20 -46 20q-32 0 -39 -48l-58 7q0 43 28 76t67 33q13 0 24 -2t20.5 -6.5t14 -6.5t13.5 -8l9 -7q32 -20 46 -20
q32 0 39 48z" />
    <glyph glyph-name="o.sc" unicode="&#xe021;" horiz-adv-x="574" 
d="M544 239q0 -115 -71.5 -182t-185.5 -67t-185.5 67t-71.5 182t71.5 182t185.5 67t185.5 -67t71.5 -182zM420 239q0 71 -35.5 113.5t-97.5 42.5q-61 0 -97 -43t-36 -113t35.5 -112.5t97.5 -42.5q61 0 97 42.5t36 112.5z" />
    <glyph glyph-name="oe.sc" unicode="&#xe022;" horiz-adv-x="768" 
d="M733 0h-348v15q-33 -25 -98 -25q-114 0 -185.5 67t-71.5 182t71.5 182t185.5 67q29 0 53.5 -6t34.5 -12l10 -7v15h339v-89h-218v-98h203v-87h-203v-114h227v-90zM385 114v251q-30 30 -98 30q-61 0 -97 -43t-36 -113t35.5 -112.5t97.5 -42.5q68 0 98 30z" />
    <glyph glyph-name="oacute.sc" unicode="&#xe023;" horiz-adv-x="574" 
d="M544 239q0 -115 -71.5 -182t-185.5 -67t-185.5 67t-71.5 182t71.5 182t185.5 67t185.5 -67t71.5 -182zM420 239q0 71 -35.5 113.5t-97.5 42.5q-61 0 -97 -43t-36 -113t35.5 -112.5t97.5 -42.5q61 0 97 42.5t36 112.5zM430 663l-100 -130h-87l68 130h119z" />
    <glyph glyph-name="ocircumflex.sc" unicode="&#xe024;" horiz-adv-x="574" 
d="M544 239q0 -115 -71.5 -182t-185.5 -67t-185.5 67t-71.5 182t71.5 182t185.5 67t185.5 -67t71.5 -182zM420 239q0 71 -35.5 113.5t-97.5 42.5q-61 0 -97 -43t-36 -113t35.5 -112.5t97.5 -42.5q61 0 97 42.5t36 112.5zM432 533h-85l-59 82l-61 -82h-84l88 130h113z" />
    <glyph glyph-name="odieresis.sc" unicode="&#xe025;" horiz-adv-x="574" 
d="M544 239q0 -115 -71.5 -182t-185.5 -67t-185.5 67t-71.5 182t71.5 182t185.5 67t185.5 -67t71.5 -182zM420 239q0 71 -35.5 113.5t-97.5 42.5q-61 0 -97 -43t-36 -113t35.5 -112.5t97.5 -42.5q61 0 97 42.5t36 112.5zM427 599q0 -25 -15.5 -41.5t-40.5 -16.5t-41 16.5
t-16 40.5q0 25 15.5 41t40.5 16t41 -16t16 -40zM260 599q0 -25 -16 -41.5t-41 -16.5t-41 16.5t-16 40.5q0 25 16 41t41 16t41 -16t16 -40z" />
    <glyph glyph-name="ograve.sc" unicode="&#xe026;" horiz-adv-x="574" 
d="M544 239q0 -115 -71.5 -182t-185.5 -67t-185.5 67t-71.5 182t71.5 182t185.5 67t185.5 -67t71.5 -182zM420 239q0 71 -35.5 113.5t-97.5 42.5q-61 0 -97 -43t-36 -113t35.5 -112.5t97.5 -42.5q61 0 97 42.5t36 112.5zM331 533h-86l-100 130h118z" />
    <glyph glyph-name="oslash.sc" unicode="&#xe027;" horiz-adv-x="574" 
d="M544 239q0 -115 -71.5 -182t-185.5 -67q-86 0 -151 41l-46 -51l-41 37l45 48q-64 67 -64 174q0 115 71.5 182t185.5 67q89 0 154 -42l43 48l40 -37l-42 -46q62 -67 62 -172zM369 367q-34 28 -82 28q-62 0 -97.5 -42.5t-35.5 -113.5q0 -49 19 -87zM420 239q0 48 -17 84
l-195 -213q32 -26 79 -26q62 0 97.5 42.5t35.5 112.5z" />
    <glyph glyph-name="otilde.sc" unicode="&#xe028;" horiz-adv-x="574" 
d="M544 239q0 -115 -71.5 -182t-185.5 -67t-185.5 67t-71.5 182t71.5 182t185.5 67t185.5 -67t71.5 -182zM420 239q0 71 -35.5 113.5t-97.5 42.5q-61 0 -97 -43t-36 -113t35.5 -112.5t97.5 -42.5q61 0 97 42.5t36 112.5zM389 655l58 -7q0 -43 -28 -76t-67 -33q-13 0 -24 2
t-20.5 6.5t-14 6.5t-13.5 8l-9 7q-32 20 -46 20q-32 0 -39 -48l-58 7q0 43 28 76t67 33q13 0 24 -2t20.5 -6.5t14 -6.5t13.5 -8l9 -7q32 -20 46 -20q32 0 39 48z" />
    <glyph glyph-name="p.sc" unicode="&#xe029;" horiz-adv-x="493" 
d="M459 316q0 -84 -58 -127q-50 -36 -142 -36h-73v-153h-122v478h195q94 0 142 -36q58 -42 58 -126zM334 316q0 43 -30 63q-22 15 -69 15h-49v-157h49q48 0 69 14q30 20 30 65z" />
    <glyph glyph-name="thorn.sc" unicode="&#xe02a;" horiz-adv-x="490" 
d="M456 251q0 -83 -57 -124q-48 -36 -142 -36h-71v-91h-122v478h122v-67h71q92 0 142 -36q57 -43 57 -124zM332 251q0 41 -29 60q-23 15 -65 15h-53v-151h53q44 0 65 14q29 19 29 62z" />
    <glyph glyph-name="q.sc" unicode="&#xe02b;" horiz-adv-x="574" 
d="M544 239q0 -51 -14.5 -93t-37 -66.5t-39 -37t-30.5 -19.5q6 -22 23 -42.5t37 -30.5l-95 -55q-24 13 -43.5 40t-27.5 58q-15 -3 -30 -3q-114 0 -185.5 67t-71.5 182t71.5 182t185.5 67t185.5 -67t71.5 -182zM420 239q0 71 -35.5 113.5t-97.5 42.5q-61 0 -97 -43t-36 -113
t35.5 -112.5t97.5 -42.5q61 0 97 42.5t36 112.5z" />
    <glyph glyph-name="r.sc" unicode="&#xe02c;" horiz-adv-x="519" 
d="M499 0h-140l-107 172h-66v-172h-122v478h210q91 0 136 -33q59 -45 59 -120q0 -50 -27.5 -85.5t-69.5 -50.5zM344 325q0 36 -27 55q-21 14 -63 14h-68v-138h67q43 0 64 14q27 19 27 55z" />
    <glyph glyph-name="s.sc" unicode="&#xe02d;" horiz-adv-x="439" 
d="M412 148q0 -73 -56 -116q-54 -42 -154 -42q-61 0 -112.5 23t-74.5 52l53 73q25 -23 65 -42t74 -19q39 0 62.5 13.5t23.5 39.5q0 12 -6 21.5t-22 17t-21.5 9.5t-26.5 9q-78 23 -106 38q-73 38 -73 116q0 70 60 112q53 35 132 35q66 0 112.5 -21.5t66.5 -46.5l-51 -72
q-21 20 -56 37t-68 17q-37 0 -59 -12.5t-22 -37.5q0 -12 6 -20.5t22 -16t21.5 -9.5t26.5 -9q81 -24 109 -39q74 -39 74 -110z" />
    <glyph glyph-name="scaron.sc" unicode="&#xe02e;" horiz-adv-x="439" 
d="M412 147q0 -73 -56 -116q-54 -42 -154 -42q-61 0 -112.5 23t-74.5 52l53 73q25 -23 65 -42t74 -19q39 0 62.5 13.5t23.5 39.5q0 12 -6 21.5t-22 17t-21.5 9.5t-26.5 9q-78 23 -106 38q-73 38 -73 116q0 70 60 112q53 35 132 35q66 0 112.5 -21.5t66.5 -46.5l-51 -72
q-21 20 -56 37t-68 17q-37 0 -59 -12.5t-22 -37.5q0 -12 6 -20.5t22 -16t21.5 -9.5t26.5 -9q81 -24 109 -39q74 -39 74 -110zM375 663l-88 -130h-113l-88 130h84l60 -82l60 82h85z" />
    <glyph glyph-name="t.sc" unicode="&#xe02f;" horiz-adv-x="430" 
d="M420 388h-144v-388h-122v388h-144v90h410v-90z" />
    <glyph glyph-name="u.sc" unicode="&#xe030;" horiz-adv-x="554" 
d="M373 187v291h122v-290q0 -99 -51 -146q-29 -28 -67 -40t-100 -12t-99.5 12t-66.5 39q-52 49 -52 146v291h122v-290q0 -53 22 -76q24 -27 74 -27q49 0 74 27q22 25 22 75z" />
    <glyph glyph-name="uacute.sc" unicode="&#xe031;" horiz-adv-x="554" 
d="M373 186v291h122v-290q0 -99 -51 -146q-29 -28 -67 -40t-100 -12t-99.5 12t-66.5 39q-52 49 -52 146v291h122v-290q0 -53 22 -76q24 -27 74 -27q49 0 74 27q22 25 22 75zM409 663l-100 -130h-87l68 130h119z" />
    <glyph glyph-name="ucircumflex.sc" unicode="&#xe032;" horiz-adv-x="554" 
d="M373 186v291h122v-290q0 -99 -51 -146q-29 -28 -67 -40t-100 -12t-99.5 12t-66.5 39q-52 49 -52 146v291h122v-290q0 -53 22 -76q24 -27 74 -27q49 0 74 27q22 25 22 75zM422 533h-85l-59 82l-61 -82h-84l88 130h113z" />
    <glyph glyph-name="udieresis.sc" unicode="&#xe033;" horiz-adv-x="554" 
d="M373 186v291h122v-290q0 -99 -51 -146q-29 -28 -67 -40t-100 -12t-99.5 12t-66.5 39q-52 49 -52 146v291h122v-290q0 -53 22 -76q24 -27 74 -27q49 0 74 27q22 25 22 75zM418 599q0 -25 -15.5 -41.5t-40.5 -16.5t-41 16.5t-16 40.5q0 25 15.5 41t40.5 16t41 -16t16 -40z
M251 599q0 -25 -16 -41.5t-41 -16.5t-41 16.5t-16 40.5q0 25 16 41t41 16t41 -16t16 -40z" />
    <glyph glyph-name="ugrave.sc" unicode="&#xe034;" horiz-adv-x="554" 
d="M373 186v291h122v-290q0 -99 -51 -146q-29 -28 -67 -40t-100 -12t-99.5 12t-66.5 39q-52 49 -52 146v291h122v-290q0 -53 22 -76q24 -27 74 -27q49 0 74 27q22 25 22 75zM329 533h-86l-100 130h118z" />
    <glyph glyph-name="v.sc" unicode="&#xe035;" horiz-adv-x="507" 
d="M502 478l-177 -478h-143l-177 478h128l122 -368l121 368h126z" />
    <glyph glyph-name="w.sc" unicode="&#xe036;" horiz-adv-x="747" 
d="M732 478l-129 -478h-134l-96 343l-95 -343h-134l-129 478h125l79 -355l92 355h126l91 -355l80 355h124z" />
    <glyph glyph-name="x.sc" unicode="&#xe037;" horiz-adv-x="485" 
d="M482 0h-137l-103 175l-102 -175h-137l164 242l-157 236h137l95 -168l96 168h136l-156 -235z" />
    <glyph glyph-name="y.sc" unicode="&#xe038;" horiz-adv-x="487" 
d="M485 478l-181 -298v-180h-121v180l-181 298h133l109 -203l108 203h133z" />
    <glyph glyph-name="yacute.sc" unicode="&#xe039;" horiz-adv-x="487" 
d="M485 478l-181 -298v-180h-121v180l-181 298h133l109 -203l108 203h133zM377 663l-100 -130h-87l68 130h119z" />
    <glyph glyph-name="ydieresis.sc" unicode="&#xe03a;" horiz-adv-x="487" 
d="M485 478l-181 -298v-180h-121v180l-181 298h133l109 -203l108 203h133zM384 599q0 -25 -15.5 -41.5t-40.5 -16.5t-41 16.5t-16 40.5q0 25 15.5 41t40.5 16t41 -16t16 -40zM217 599q0 -25 -16 -41.5t-41 -16.5t-41 16.5t-16 40.5q0 25 16 41t41 16t41 -16t16 -40z" />
    <glyph glyph-name="z.sc" unicode="&#xe03b;" horiz-adv-x="475" 
d="M451 0h-427v77l266 314h-255v87h404v-80l-264 -310h276v-88z" />
    <glyph glyph-name="zcaron.sc" unicode="&#xe03c;" horiz-adv-x="475" 
d="M451 0h-427v77l266 314h-255v87h404v-80l-264 -310h276v-88zM382 663l-88 -130h-113l-88 130h84l60 -82l60 82h85z" />
    <glyph glyph-name="germandbls.sc" unicode="&#xe03d;" horiz-adv-x="878" 
d="M851 148q0 -73 -56 -116q-54 -42 -154 -42q-61 0 -112.5 23t-74.5 52l53 73q25 -23 65 -42t74 -19q39 0 62.5 13.5t23.5 39.5q0 12 -6 21.5t-22 17t-21.5 9.5t-26.5 9q-78 23 -106 38q-73 38 -73 116q0 70 60 112q53 35 132 35q66 0 112.5 -21.5t66.5 -46.5l-51 -72
q-21 20 -56 37t-68 17q-37 0 -59 -12.5t-22 -37.5q0 -12 6 -20.5t22 -16t21.5 -9.5t26.5 -9q81 -24 109 -39q74 -39 74 -110zM412 148q0 -73 -56 -116q-54 -42 -154 -42q-61 0 -112.5 23t-74.5 52l53 73q25 -23 65 -42t74 -19q39 0 62.5 13.5t23.5 39.5q0 12 -6 21.5t-22 17
t-21.5 9.5t-26.5 9q-78 23 -106 38q-73 38 -73 116q0 70 60 112q53 35 132 35q66 0 112.5 -21.5t66.5 -46.5l-51 -72q-21 20 -56 37t-68 17q-37 0 -59 -12.5t-22 -37.5q0 -12 6 -20.5t22 -16t21.5 -9.5t26.5 -9q81 -24 109 -39q74 -39 74 -110z" />
    <glyph glyph-name="f_i.sc" unicode="&#xe03e;" horiz-adv-x="676" 
d="M612 0h-122v478h122v-478zM404 389h-218v-116h197v-89h-197v-184h-122v478h340v-89z" />
    <glyph glyph-name="f_l.sc" unicode="&#xe03f;" horiz-adv-x="831" 
d="M814 0h-324v478h122v-388h202v-90zM404 389h-218v-116h197v-89h-197v-184h-122v478h340v-89z" />
    <glyph glyph-name="abreve.sc" unicode="&#xe040;" horiz-adv-x="511" 
d="M516 0h-131l-33 95h-201l-33 -95h-123l182 478h156zM324 181l-73 207l-73 -207h146zM335 667l64 -11q-13 -61 -50.5 -92.5t-92.5 -31.5q-56 0 -93.5 31t-50.5 92l63 12q7 -30 27.5 -49t52.5 -19t52.5 19t27.5 49z" />
    <glyph glyph-name="amacron.sc" unicode="&#xe041;" horiz-adv-x="511" 
d="M516 0h-131l-33 95h-201l-33 -95h-123l182 478h156zM324 181l-73 207l-73 -207h146zM403 565h-295v66h295v-66z" />
    <glyph glyph-name="aogonek.sc" unicode="&#xe042;" horiz-adv-x="511" 
d="M516 0h-83q-45 -37 -45 -77q0 -46 47 -46q32 0 57 18l22 -40q-47 -43 -100 -43q-46 0 -74.5 25.5t-28.5 69.5q0 63 69 107l-28 81h-201l-33 -95h-123l182 478h156zM324 181l-73 207l-73 -207h146z" />
    <glyph glyph-name="aeacute.sc" unicode="&#xe043;" horiz-adv-x="744" 
d="M709 0h-347v116h-186l-70 -116h-141l308 478h427v-89h-217v-98h203v-87h-203v-114h226v-90zM362 196v205h-15l-125 -205h140zM527 663l-100 -130h-87l68 130h119z" />
    <glyph glyph-name="cacute.sc" unicode="&#xe044;" horiz-adv-x="496" 
d="M418 151l61 -69q-3 -5 -9 -12t-23.5 -22.5t-38.5 -27t-55 -21t-72 -9.5q-107 0 -179 65.5t-72 183.5t73.5 183.5t179.5 65.5q37 0 70.5 -9t54 -20t37.5 -25.5t23 -21t9 -11.5l-62 -71q-2 2 -5 6.5t-14 15t-24 18.5t-34 14.5t-43 6.5q-62 0 -102 -40.5t-40 -110.5
t40.5 -111t102.5 -41q36 0 66.5 16t43.5 32zM399 663l-100 -130h-87l68 130h119z" />
    <glyph glyph-name="ccaron.sc" unicode="&#xe045;" horiz-adv-x="496" 
d="M418 151l61 -69q-3 -5 -9 -12t-23.5 -22.5t-38.5 -27t-55 -21t-72 -9.5q-107 0 -179 65.5t-72 183.5t73.5 183.5t179.5 65.5q37 0 70.5 -9t54 -20t37.5 -25.5t23 -21t9 -11.5l-62 -71q-2 2 -5 6.5t-14 15t-24 18.5t-34 14.5t-43 6.5q-62 0 -102 -40.5t-40 -110.5
t40.5 -111t102.5 -41q36 0 66.5 16t43.5 32zM420 663l-88 -130h-113l-88 130h84l60 -82l60 82h85z" />
    <glyph glyph-name="ccircumflex.sc" unicode="&#xe046;" horiz-adv-x="496" 
d="M418 151l61 -69q-3 -5 -9 -12t-23.5 -22.5t-38.5 -27t-55 -21t-72 -9.5q-107 0 -179 65.5t-72 183.5t73.5 183.5t179.5 65.5q37 0 70.5 -9t54 -20t37.5 -25.5t23 -21t9 -11.5l-62 -71q-2 2 -5 6.5t-14 15t-24 18.5t-34 14.5t-43 6.5q-62 0 -102 -40.5t-40 -110.5
t40.5 -111t102.5 -41q36 0 66.5 16t43.5 32zM420 533h-85l-59 82l-61 -82h-84l88 130h113z" />
    <glyph glyph-name="cdotaccent.sc" unicode="&#xe047;" horiz-adv-x="496" 
d="M418 151l61 -69q-3 -5 -9 -12t-23.5 -22.5t-38.5 -27t-55 -21t-72 -9.5q-107 0 -179 65.5t-72 183.5t73.5 183.5t179.5 65.5q37 0 70.5 -9t54 -20t37.5 -25.5t23 -21t9 -11.5l-62 -71q-2 2 -5 6.5t-14 15t-24 18.5t-34 14.5t-43 6.5q-62 0 -102 -40.5t-40 -110.5
t40.5 -111t102.5 -41q36 0 66.5 16t43.5 32zM336 598q0 -26 -17.5 -43.5t-43.5 -17.5t-43 17.5t-17 43.5t17 43t43 17t43.5 -17t17.5 -43z" />
    <glyph glyph-name="dcaron.sc" unicode="&#xe048;" horiz-adv-x="557" 
d="M527 239q0 -121 -84 -187q-36 -28 -79 -40t-113 -12h-187v478h187q71 0 113.5 -11.5t78.5 -40.5q84 -66 84 -187zM402 239q0 80 -49 122q-36 28 -99 28h-69v-299h69q64 0 98 28q50 39 50 121zM413 663l-88 -130h-113l-88 130h84l60 -82l60 82h85z" />
    <glyph glyph-name="dcroat.sc" unicode="&#xe049;" horiz-adv-x="557" 
d="M527 239q0 -121 -84 -187q-36 -28 -79 -40t-113 -12h-187v210h-42v70h42v198h187q71 0 113.5 -11.5t78.5 -40.5q84 -66 84 -187zM402 239q0 80 -49 122q-36 28 -99 28h-69v-109h95v-70h-95v-120h69q64 0 98 28q50 39 50 121z" />
    <glyph glyph-name="ebreve.sc" unicode="&#xe04a;" horiz-adv-x="459" 
d="M424 0h-360v478h351v-89h-230v-98h216v-87h-216v-114h239v-90zM321 667l64 -11q-13 -61 -50.5 -92.5t-92.5 -31.5q-56 0 -93.5 31t-50.5 92l63 12q7 -30 27.5 -49t52.5 -19t52.5 19t27.5 49z" />
    <glyph glyph-name="ecaron.sc" unicode="&#xe04b;" horiz-adv-x="459" 
d="M424 0h-360v478h351v-89h-230v-98h216v-87h-216v-114h239v-90zM390 663l-88 -130h-113l-88 130h84l60 -82l60 82h85z" />
    <glyph glyph-name="edotaccent.sc" unicode="&#xe04c;" horiz-adv-x="459" 
d="M424 0h-360v478h351v-89h-230v-98h216v-87h-216v-114h239v-90zM306 598q0 -26 -17.5 -43.5t-43.5 -17.5t-43 17.5t-17 43.5t17 43t43 17t43.5 -17t17.5 -43z" />
    <glyph glyph-name="emacron.sc" unicode="&#xe04d;" horiz-adv-x="459" 
d="M424 0h-360v478h351v-89h-230v-98h216v-87h-216v-114h239v-90zM393 565h-295v66h295v-66z" />
    <glyph glyph-name="eng.sc" unicode="&#xe04e;" horiz-adv-x="574" 
d="M510 478v-468q0 -82 -38 -118q-38 -37 -105 -37q-48 0 -88 18l20 80q20 -9 42 -9q50 0 53 48l-215 331v-323h-115v478h131l200 -308v308h115z" />
    <glyph glyph-name="eogonek.sc" unicode="&#xe04f;" horiz-adv-x="459" 
d="M400 -102l22 -40q-5 -6 -17.5 -15.5t-40 -20t-54.5 -10.5q-47 0 -76 25.5t-29 69.5q0 55 51 93h-192v478h351v-89h-230v-98h216v-87h-216v-114h239v-90h-99q-43 -34 -43 -75q0 -48 50 -48q41 0 68 21z" />
    <glyph glyph-name="gbreve.sc" unicode="&#xe050;" horiz-adv-x="564" 
d="M516 0h-83l-14 50q-2 -2 -5 -6.5t-16 -14.5t-28.5 -18t-43.5 -14.5t-60 -6.5q-105 0 -170.5 67.5t-65.5 181.5q0 115 71.5 182t185.5 67q24 0 46 -3t39.5 -8t32.5 -11.5t26.5 -14.5t21 -15t16 -14.5t11 -12.5t7.5 -9l3 -5l-74 -61q-48 64 -126 64q-59 0 -98 -42t-39 -117
q0 -76 37.5 -118t97.5 -42q35 0 63 12t39 24l10 12v59h-104v78h220v-264zM362 667l64 -11q-13 -61 -50.5 -92.5t-92.5 -31.5q-56 0 -93.5 31t-50.5 92l63 12q7 -30 27.5 -49t52.5 -19t52.5 19t27.5 49z" />
    <glyph glyph-name="gcircumflex.sc" unicode="&#xe051;" horiz-adv-x="564" 
d="M516 0h-83l-14 50q-2 -2 -5 -6.5t-16 -14.5t-28.5 -18t-43.5 -14.5t-60 -6.5q-105 0 -170.5 67.5t-65.5 181.5q0 115 71.5 182t185.5 67q24 0 46 -3t39.5 -8t32.5 -11.5t26.5 -14.5t21 -15t16 -14.5t11 -12.5t7.5 -9l3 -5l-74 -61q-48 64 -126 64q-59 0 -98 -42t-39 -117
q0 -76 37.5 -118t97.5 -42q35 0 63 12t39 24l10 12v59h-104v78h220v-264zM427 533h-85l-59 82l-61 -82h-84l88 130h113z" />
    <glyph glyph-name="gcommaaccent.sc" unicode="&#xe052;" horiz-adv-x="564" 
d="M516 0h-83l-14 50q-2 -2 -5 -6.5t-16 -14.5t-28.5 -18t-43.5 -14.5t-60 -6.5q-105 0 -170.5 67.5t-65.5 181.5q0 115 71.5 182t185.5 67q24 0 46 -3t39.5 -8t32.5 -11.5t26.5 -14.5t21 -15t16 -14.5t11 -12.5t7.5 -9l3 -5l-74 -61q-48 64 -126 64q-59 0 -98 -42t-39 -117
q0 -76 37.5 -118t97.5 -42q35 0 63 12t39 24l10 12v59h-104v78h220v-264zM249 -43l108 -3q-14 -98 -94 -155l-73 32q52 52 59 126z" />
    <glyph glyph-name="gdotaccent.sc" unicode="&#xe053;" horiz-adv-x="564" 
d="M516 0h-83l-14 50q-2 -2 -5 -6.5t-16 -14.5t-28.5 -18t-43.5 -14.5t-60 -6.5q-105 0 -170.5 67.5t-65.5 181.5q0 115 71.5 182t185.5 67q24 0 46 -3t39.5 -8t32.5 -11.5t26.5 -14.5t21 -15t16 -14.5t11 -12.5t7.5 -9l3 -5l-74 -61q-48 64 -126 64q-59 0 -98 -42t-39 -117
q0 -76 37.5 -118t97.5 -42q35 0 63 12t39 24l10 12v59h-104v78h220v-264zM347 598q0 -26 -17.5 -43.5t-43.5 -17.5t-43 17.5t-17 43.5t17 43t43 17t43.5 -17t17.5 -43z" />
    <glyph glyph-name="hbar.sc" unicode="&#xe054;" horiz-adv-x="574" 
d="M510 0h-121v189h-203v-189h-122v334h-63v84h63v60h122v-60h203v60h121v-60h63v-84h-63v-334zM186 280h203v54h-203v-54z" />
    <glyph glyph-name="hcircumflex.sc" unicode="&#xe055;" horiz-adv-x="574" 
d="M510 0h-121v203h-203v-203h-122v478h122v-184h203v184h121v-478zM432 533h-85l-59 82l-61 -82h-84l88 130h113z" />
    <glyph glyph-name="ibreve.sc" unicode="&#xe056;" horiz-adv-x="250" 
d="M186 0h-122v478h122v-478zM205 667l64 -11q-13 -61 -50.5 -92.5t-92.5 -31.5q-56 0 -93.5 31t-50.5 92l63 12q7 -30 27.5 -49t52.5 -19t52.5 19t27.5 49z" />
    <glyph glyph-name="ij.sc" unicode="&#xe058;" horiz-adv-x="500" 
d="M186 0h-122v478h122v-478zM314 2v476h122v-468q0 -82 -38 -118q-38 -37 -105 -37q-48 0 -88 18l20 80q20 -9 42 -9q47 0 47 58z" />
    <glyph glyph-name="imacron.sc" unicode="&#xe059;" horiz-adv-x="250" 
d="M186 0h-122v478h122v-478zM273 565h-295v66h295v-66z" />
    <glyph glyph-name="iogonek.sc" unicode="&#xe05a;" horiz-adv-x="250" 
d="M207 -102l22 -40q-5 -6 -17.5 -15.5t-40 -20t-54.5 -10.5q-47 0 -76 25.5t-29 69.5q0 27 13 50t26 33l13 10v478h122v-478h-54q-43 -34 -43 -75q0 -48 50 -48q41 0 68 21z" />
    <glyph glyph-name="itilde.sc" unicode="&#xe05b;" horiz-adv-x="250" 
d="M186 0h-122v478h122v-478zM226 655l58 -7q0 -43 -28 -76t-67 -33q-13 0 -24 2t-20.5 6.5t-14 6.5t-13.5 8l-9 7q-32 20 -46 20q-32 0 -39 -48l-58 7q0 43 28 76t67 33q13 0 24 -2t20.5 -6.5t14 -6.5t13.5 -8l9 -7q32 -20 46 -20q32 0 39 48z" />
    <glyph glyph-name="jcircumflex.sc" unicode="&#xe05c;" horiz-adv-x="250" 
d="M64 2v476h122v-468q0 -82 -38 -118q-38 -37 -105 -37q-48 0 -88 18l20 80q20 -9 42 -9q47 0 47 58zM270 533h-85l-59 82l-61 -82h-84l88 130h113z" />
    <glyph glyph-name="kcommaaccent.sc" unicode="&#xe05d;" horiz-adv-x="508" 
d="M502 0h-140l-127 204l-49 -52v-152h-122v478h122v-193l165 193h145l-180 -188zM227 -43l108 -3q-14 -98 -94 -155l-73 32q52 52 59 126z" />
    <glyph glyph-name="lacute.sc" unicode="&#xe05e;" horiz-adv-x="405" 
d="M388 0h-324v478h121v-388h203v-90zM252 663l-100 -130h-87l68 130h119z" />
    <glyph glyph-name="lcaron.sc" unicode="&#xe05f;" horiz-adv-x="405" 
d="M388 0h-324v478h121v-388h203v-90zM275 481l107 -2q0 -95 -52 -175l-85 6q30 76 30 171z" />
    <glyph glyph-name="lcommaaccent.sc" unicode="&#xe060;" horiz-adv-x="405" 
d="M388 0h-324v478h121v-388h203v-90zM183 -43l108 -3q-14 -98 -94 -155l-73 32q52 52 59 126z" />
    <glyph glyph-name="ldot.sc" unicode="&#xe061;" horiz-adv-x="405" 
d="M388 0h-324v478h121v-388h203v-90zM383 273q0 -26 -17.5 -43.5t-43.5 -17.5t-43 17.5t-17 43.5t17 43t43 17t43.5 -17t17.5 -43z" />
    <glyph glyph-name="nacute.sc" unicode="&#xe062;" horiz-adv-x="574" 
d="M510 0h-121l-210 323v-323h-115v478h131l200 -308v308h115v-478zM415 663l-100 -130h-87l68 130h119z" />
    <glyph glyph-name="ncaron.sc" unicode="&#xe063;" horiz-adv-x="574" 
d="M510 0h-121l-210 323v-323h-115v478h131l200 -308v308h115v-478zM440 663l-88 -130h-113l-88 130h84l60 -82l60 82h85z" />
    <glyph glyph-name="ncommaaccent.sc" unicode="&#xe064;" horiz-adv-x="574" 
d="M510 0h-121l-210 323v-323h-115v478h131l200 -308v308h115v-478zM249 -43l108 -3q-14 -98 -94 -155l-73 32q52 52 59 126z" />
    <glyph glyph-name="obreve.sc" unicode="&#xe065;" horiz-adv-x="574" 
d="M544 239q0 -115 -71.5 -182t-185.5 -67t-185.5 67t-71.5 182t71.5 182t185.5 67t185.5 -67t71.5 -182zM420 239q0 71 -35.5 113.5t-97.5 42.5q-61 0 -97 -43t-36 -113t35.5 -112.5t97.5 -42.5q61 0 97 42.5t36 112.5zM367 667l64 -11q-13 -61 -50.5 -92.5t-92.5 -31.5
q-56 0 -93.5 31t-50.5 92l63 12q7 -30 27.5 -49t52.5 -19t52.5 19t27.5 49z" />
    <glyph glyph-name="ohungarumlaut.sc" unicode="&#xe066;" horiz-adv-x="574" 
d="M544 239q0 -115 -71.5 -182t-185.5 -67t-185.5 67t-71.5 182t71.5 182t185.5 67t185.5 -67t71.5 -182zM420 239q0 71 -35.5 113.5t-97.5 42.5q-61 0 -97 -43t-36 -113t35.5 -112.5t97.5 -42.5q61 0 97 42.5t36 112.5zM495 663l-100 -130h-87l68 130h119zM326 663
l-99 -130h-87l68 130h118z" />
    <glyph glyph-name="omacron.sc" unicode="&#xe067;" horiz-adv-x="574" 
d="M544 239q0 -115 -71.5 -182t-185.5 -67t-185.5 67t-71.5 182t71.5 182t185.5 67t185.5 -67t71.5 -182zM420 239q0 71 -35.5 113.5t-97.5 42.5q-61 0 -97 -43t-36 -113t35.5 -112.5t97.5 -42.5q61 0 97 42.5t36 112.5zM435 565h-295v66h295v-66z" />
    <glyph glyph-name="oslashacute.sc" unicode="&#xe068;" horiz-adv-x="574" 
d="M544 239q0 -115 -71.5 -182t-185.5 -67q-86 0 -151 41l-46 -51l-41 37l45 48q-64 67 -64 174q0 115 71.5 182t185.5 67q89 0 154 -42l43 48l40 -37l-42 -46q62 -67 62 -172zM369 367q-34 28 -82 28q-62 0 -97.5 -42.5t-35.5 -113.5q0 -49 19 -87zM420 239q0 48 -17 84
l-195 -213q32 -26 79 -26q62 0 97.5 42.5t35.5 112.5zM430 663l-100 -130h-87l68 130h119z" />
    <glyph glyph-name="racute.sc" unicode="&#xe069;" horiz-adv-x="519" 
d="M499 0h-140l-107 172h-66v-172h-122v478h210q91 0 136 -33q59 -45 59 -120q0 -50 -27.5 -85.5t-69.5 -50.5zM344 325q0 36 -27 55q-21 14 -63 14h-68v-138h67q43 0 64 14q27 19 27 55zM383 663l-100 -130h-87l68 130h119z" />
    <glyph glyph-name="rcaron.sc" unicode="&#xe06a;" horiz-adv-x="519" 
d="M499 0h-140l-107 172h-66v-172h-122v478h210q91 0 136 -33q59 -45 59 -120q0 -50 -27.5 -85.5t-69.5 -50.5zM344 325q0 36 -27 55q-21 14 -63 14h-68v-138h67q43 0 64 14q27 19 27 55zM404 663l-88 -130h-113l-88 130h84l60 -82l60 82h85z" />
    <glyph glyph-name="rcommaaccent.sc" unicode="&#xe06b;" horiz-adv-x="519" 
d="M499 0h-140l-107 172h-66v-172h-122v478h210q91 0 136 -33q59 -45 59 -120q0 -50 -27.5 -85.5t-69.5 -50.5zM344 325q0 36 -27 55q-21 14 -63 14h-68v-138h67q43 0 64 14q27 19 27 55zM223 -43l108 -3q-14 -98 -94 -155l-73 32q52 52 59 126z" />
    <glyph glyph-name="sacute.sc" unicode="&#xe06c;" horiz-adv-x="439" 
d="M412 148q0 -73 -56 -116q-54 -42 -154 -42q-61 0 -112.5 23t-74.5 52l53 73q25 -23 65 -42t74 -19q39 0 62.5 13.5t23.5 39.5q0 12 -6 21.5t-22 17t-21.5 9.5t-26.5 9q-78 23 -106 38q-73 38 -73 116q0 70 60 112q53 35 132 35q66 0 112.5 -21.5t66.5 -46.5l-51 -72
q-21 20 -56 37t-68 17q-37 0 -59 -12.5t-22 -37.5q0 -12 6 -20.5t22 -16t21.5 -9.5t26.5 -9q81 -24 109 -39q74 -39 74 -110zM359 663l-100 -130h-87l68 130h119z" />
    <glyph glyph-name="scedilla.sc" unicode="&#xe06d;" horiz-adv-x="439" 
d="M412 148q0 -73 -56 -116q-35 -26 -82 -35l-58 -126h-115l81 120q-55 4 -101 25.5t-66 48.5l53 73q25 -23 65 -42t74 -19q39 0 62.5 13.5t23.5 39.5q0 12 -6 21.5t-22 17t-21.5 9.5t-26.5 9q-78 23 -106 38q-73 38 -73 116q0 70 60 112q53 35 132 35q66 0 112.5 -21.5
t66.5 -46.5l-51 -72q-21 20 -56 37t-68 17q-37 0 -59 -12.5t-22 -37.5q0 -12 6 -20.5t22 -16t21.5 -9.5t26.5 -9q81 -24 109 -39q74 -39 74 -110z" />
    <glyph glyph-name="scircumflex.sc" unicode="&#xe06e;" horiz-adv-x="439" 
d="M412 148q0 -73 -56 -116q-54 -42 -154 -42q-61 0 -112.5 23t-74.5 52l53 73q25 -23 65 -42t74 -19q39 0 62.5 13.5t23.5 39.5q0 12 -6 21.5t-22 17t-21.5 9.5t-26.5 9q-78 23 -106 38q-73 38 -73 116q0 70 60 112q53 35 132 35q66 0 112.5 -21.5t66.5 -46.5l-51 -72
q-21 20 -56 37t-68 17q-37 0 -59 -12.5t-22 -37.5q0 -12 6 -20.5t22 -16t21.5 -9.5t26.5 -9q81 -24 109 -39q74 -39 74 -110zM374 533h-85l-59 82l-61 -82h-84l88 130h113z" />
    <glyph glyph-name="scommaaccent.sc" unicode="&#xe06f;" horiz-adv-x="439" 
d="M412 148q0 -73 -56 -116q-54 -42 -154 -42q-61 0 -112.5 23t-74.5 52l53 73q25 -23 65 -42t74 -19q39 0 62.5 13.5t23.5 39.5q0 12 -6 21.5t-22 17t-21.5 9.5t-26.5 9q-78 23 -106 38q-73 38 -73 116q0 70 60 112q53 35 132 35q66 0 112.5 -21.5t66.5 -46.5l-51 -72
q-21 20 -56 37t-68 17q-37 0 -59 -12.5t-22 -37.5q0 -12 6 -20.5t22 -16t21.5 -9.5t26.5 -9q81 -24 109 -39q74 -39 74 -110zM183 -43l108 -3q-14 -98 -94 -155l-73 32q52 52 59 126z" />
    <glyph glyph-name="tbar.sc" unicode="&#xe070;" horiz-adv-x="430" 
d="M392 174h-116v-174h-122v174h-115v84h115v130h-144v90h410v-90h-144v-130h116v-84z" />
    <glyph glyph-name="tcaron.sc" unicode="&#xe071;" horiz-adv-x="430" 
d="M420 388h-144v-388h-122v388h-144v90h410v-90zM360 663l-88 -130h-113l-88 130h84l60 -82l60 82h85z" />
    <glyph glyph-name="tcommaaccent.sc" unicode="&#xe072;" horiz-adv-x="430" 
d="M420 388h-144v-388h-122v388h-144v90h410v-90zM172 -43l108 -3q-14 -98 -94 -155l-73 32q52 52 59 126z" />
    <glyph glyph-name="ubreve.sc" unicode="&#xe073;" horiz-adv-x="554" 
d="M373 187v291h122v-290q0 -99 -51 -146q-29 -28 -67 -40t-100 -12t-99.5 12t-66.5 39q-52 49 -52 146v291h122v-290q0 -53 22 -76q24 -27 74 -27q49 0 74 27q22 25 22 75zM357 667l64 -11q-13 -61 -50.5 -92.5t-92.5 -31.5q-56 0 -93.5 31t-50.5 92l63 12q7 -30 27.5 -49
t52.5 -19t52.5 19t27.5 49z" />
    <glyph glyph-name="uhungarumlaut.sc" unicode="&#xe074;" horiz-adv-x="554" 
d="M373 187v291h122v-290q0 -99 -51 -146q-29 -28 -67 -40t-100 -12t-99.5 12t-66.5 39q-52 49 -52 146v291h122v-290q0 -53 22 -76q24 -27 74 -27q49 0 74 27q22 25 22 75zM492 663l-100 -130h-87l68 130h119zM323 663l-99 -130h-87l68 130h118z" />
    <glyph glyph-name="umacron.sc" unicode="&#xe075;" horiz-adv-x="554" 
d="M373 187v291h122v-290q0 -99 -51 -146q-29 -28 -67 -40t-100 -12t-99.5 12t-66.5 39q-52 49 -52 146v291h122v-290q0 -53 22 -76q24 -27 74 -27q49 0 74 27q22 25 22 75zM425 565h-295v66h295v-66z" />
    <glyph glyph-name="uogonek.sc" unicode="&#xe076;" horiz-adv-x="554" 
d="M446 -102l22 -40q-5 -6 -17.5 -15.5t-40 -20t-54.5 -10.5q-47 0 -76 25.5t-29 69.5q0 47 39 83h-13q-62 0 -99.5 12t-66.5 39q-52 49 -52 146v291h122v-290q0 -53 22 -76q24 -27 74 -27q49 0 74 27q22 25 22 75v291h122v-290q0 -99 -51 -146q-32 -31 -77 -42
q-39 -41 -39 -75q0 -48 50 -48q41 0 68 21z" />
    <glyph glyph-name="uring.sc" unicode="&#xe077;" horiz-adv-x="554" 
d="M373 187v291h122v-290q0 -99 -51 -146q-29 -28 -67 -40t-100 -12t-99.5 12t-66.5 39q-52 49 -52 146v291h122v-290q0 -53 22 -76q24 -27 74 -27q49 0 74 27q22 25 22 75zM367 612q0 -39 -25.5 -64t-64.5 -25t-64.5 25t-25.5 64t25.5 64t64.5 25t64.5 -25t25.5 -64z
M321 612q0 19 -12.5 31.5t-31.5 12.5t-31.5 -12.5t-12.5 -31.5t12.5 -31.5t31.5 -12.5t31.5 12.5t12.5 31.5z" />
    <glyph glyph-name="utilde.sc" unicode="&#xe078;" horiz-adv-x="554" 
d="M373 187v291h122v-290q0 -99 -51 -146q-29 -28 -67 -40t-100 -12t-99.5 12t-66.5 39q-52 49 -52 146v291h122v-290q0 -53 22 -76q24 -27 74 -27q49 0 74 27q22 25 22 75zM378 655l58 -7q0 -43 -28 -76t-67 -33q-13 0 -24 2t-20.5 6.5t-14 6.5t-13.5 8l-9 7q-32 20 -46 20
q-32 0 -39 -48l-58 7q0 43 28 76t67 33q13 0 24 -2t20.5 -6.5t14 -6.5t13.5 -8l9 -7q32 -20 46 -20q32 0 39 48z" />
    <glyph glyph-name="wacute.sc" unicode="&#xe079;" horiz-adv-x="747" 
d="M732 478l-129 -478h-134l-96 343l-95 -343h-134l-129 478h125l79 -355l92 355h126l91 -355l80 355h124zM505 663l-100 -130h-87l68 130h119z" />
    <glyph glyph-name="wcircumflex.sc" unicode="&#xe07a;" horiz-adv-x="747" 
d="M732 478l-129 -478h-134l-96 343l-95 -343h-134l-129 478h125l79 -355l92 355h126l91 -355l80 355h124zM518 533h-85l-59 82l-61 -82h-84l88 130h113z" />
    <glyph glyph-name="wdieresis.sc" unicode="&#xe07b;" horiz-adv-x="747" 
d="M732 478l-129 -478h-134l-96 343l-95 -343h-134l-129 478h125l79 -355l92 355h126l91 -355l80 355h124zM514 599q0 -25 -15.5 -41.5t-40.5 -16.5t-41 16.5t-16 40.5q0 25 15.5 41t40.5 16t41 -16t16 -40zM347 599q0 -25 -16 -41.5t-41 -16.5t-41 16.5t-16 40.5
q0 25 16 41t41 16t41 -16t16 -40z" />
    <glyph glyph-name="wgrave.sc" unicode="&#xe07c;" horiz-adv-x="747" 
d="M732 478l-129 -478h-134l-96 343l-95 -343h-134l-129 478h125l79 -355l92 355h126l91 -355l80 355h124zM434 533h-86l-100 130h118z" />
    <glyph glyph-name="ycircumflex.sc" unicode="&#xe07d;" horiz-adv-x="487" 
d="M485 478l-181 -298v-180h-121v180l-181 298h133l109 -203l108 203h133zM388 533h-85l-59 82l-61 -82h-84l88 130h113z" />
    <glyph glyph-name="ygrave.sc" unicode="&#xe07e;" horiz-adv-x="487" 
d="M306 523h-86l-100 130h118zM485 488l-181 -298v-180h-121v180l-181 298h133l109 -203l108 203h133z" />
    <glyph glyph-name="zacute.sc" unicode="&#xe07f;" horiz-adv-x="475" 
d="M451 0h-427v77l266 314h-255v87h404v-80l-264 -310h276v-88zM371 663l-100 -130h-87l68 130h119z" />
    <glyph glyph-name="zdotaccent.sc" unicode="&#xe080;" horiz-adv-x="475" 
d="M451 0h-427v77l266 314h-255v87h404v-80l-264 -310h276v-88zM298 598q0 -26 -17.5 -43.5t-43.5 -17.5t-43 17.5t-17 43.5t17 43t43 17t43.5 -17t17.5 -43z" />
    <glyph glyph-name="idotaccent.sc" unicode="&#xe081;" horiz-adv-x="250" 
d="M186 0h-122v478h122v-478zM186 598q0 -26 -17.5 -43.5t-43.5 -17.5t-43 17.5t-17 43.5t17 43t43 17t43.5 -17t17.5 -43z" />
    <glyph glyph-name="guillemotleft.sc" unicode="&#xe082;" horiz-adv-x="500" 
d="M454 91l-56 -48l-148 177v55l147 177l57 -47l-128 -157zM248 91l-57 -48l-147 177v55l147 177l57 -47l-128 -157z" />
    <glyph glyph-name="guillemotright.sc" unicode="&#xe083;" horiz-adv-x="500" 
d="M456 220l-147 -177l-57 47l128 157l-128 157l57 48l147 -177v-55zM250 220l-147 -177l-57 47l128 157l-128 157l56 48l148 -177v-55z" />
    <glyph glyph-name="guilsinglleft.sc" unicode="&#xe084;" horiz-adv-x="294" 
d="M248 91l-57 -48l-147 177v55l147 177l57 -47l-128 -157z" />
    <glyph glyph-name="guilsinglright.sc" unicode="&#xe085;" horiz-adv-x="294" 
d="M250 220l-147 -177l-57 47l128 157l-128 157l56 48l148 -177v-55z" />
    <glyph glyph-name="tcedilla.sc" unicode="&#xe08a;" horiz-adv-x="430" 
d="M420 388h-144v-388h-122v388h-144v90h410v-90zM172 -43l108 -3q-14 -98 -94 -155l-73 32q52 52 59 126z" />
    <glyph glyph-name="exclam.sc" unicode="&#xe08b;" horiz-adv-x="265" 
d="M199 481l-18 -316h-97l-18 316h133zM202 55q0 -29 -20 -47t-49 -18q-30 0 -50 18t-20 47t20 47t49 18q30 0 50 -18t20 -47z" />
    <glyph glyph-name="ampersand.sc" unicode="&#xe08c;" horiz-adv-x="610" 
d="M603 0h-153l-38 38q-19 -14 -34.5 -22t-55 -17t-92.5 -9q-86 0 -138.5 37.5t-52.5 97.5q0 85 101 131l22 11l-4 4l-7 7q-7 6 -11.5 11t-12.5 15t-12.5 19.5t-8 23.5t-3.5 29q0 50 44.5 83t123.5 33t124 -33t45 -82q0 -79 -91 -120l-15 -7l85 -82q12 14 31 49q19 33 25 58
l90 -30q-6 -25 -31 -72q-24 -43 -48 -65zM337 374q0 22 -16.5 35.5t-42.5 13.5t-42.5 -13.5t-16.5 -35.5q0 -28 40 -62l18 -15l17 10q43 25 43 67zM346 97l-124 117l-17 -10q-48 -26 -48 -70q0 -28 23.5 -47t66.5 -19q61 0 99 29z" />
    <glyph glyph-name="question.sc" unicode="&#xe08d;" horiz-adv-x="383" 
d="M358 360q0 -11 -2 -21.5t-5.5 -19t-7 -16t-9.5 -14.5t-10.5 -12t-11 -10.5t-9.5 -8t-9 -6.5l-6 -4l-50 -35q-18 -12 -19 -32l-1 -16h-99v17q-2 29 4.5 47.5t31.5 35.5l47 32q1 0 6 3.5t7 5t7 5.5l7.5 6t6.5 6t6 7.5t4.5 7.5t3.5 8.5t1 8.5q0 45 -71 45q-64 0 -115 -46
l-43 73q7 7 19.5 17t56 27t92.5 17q79 0 123.5 -36.5t44.5 -91.5zM238 55q0 -29 -20 -47t-49 -18q-30 0 -50 18t-20 47t20 47t49 18q30 0 50 -18t20 -47z" />
    <glyph glyph-name="exclamdown.sc" unicode="&#xe08f;" horiz-adv-x="265" 
d="M202 423q0 -29 -20 -47t-49 -18q-30 0 -50 18t-20 47t20 47t49 18q30 0 50 -18t20 -47zM199 -3h-133l18 316h97z" />
    <glyph glyph-name="questiondown.sc" unicode="&#xe094;" horiz-adv-x="383" 
d="M283 423q0 -29 -20 -47.5t-49 -18.5q-30 0 -49.5 18t-19.5 47q0 30 19.5 48t49.5 18q29 0 49 -18t20 -47zM360 50l-6.5 -6.5t-20.5 -14.5t-34 -18t-46.5 -14.5t-59.5 -6.5q-79 0 -123.5 36.5t-44.5 90.5q0 65 70 113l50 35q17 12 18 32l2 16h98l1 -18q2 -28 -5 -46.5
t-31 -35.5l-48 -33q-1 -1 -5 -3.5t-6 -4l-6 -4.5t-6.5 -5t-6.5 -5t-6 -6t-5 -6.5t-4.5 -7t-2.5 -7.5t-1 -8q0 -21 18.5 -33.5t52.5 -12.5q65 0 115 47z" />
    <glyph glyph-name="zero.fitted" unicode="&#xe097;" horiz-adv-x="568" 
d="M523 318q0 -147 -62.5 -237.5t-176.5 -90.5t-176.5 90.5t-62.5 237.5t62.5 237t176.5 90t176.5 -90t62.5 -237zM400 318q0 100 -29 165t-87 65t-87 -65t-29 -165q0 -99 29 -164.5t87 -65.5t87 65t29 165z" />
    <glyph glyph-name="two.fitted" unicode="&#xe098;" horiz-adv-x="518" 
d="M489 0h-464q3 28 11 55t16 47.5t24.5 43.5t26 36t30.5 33t28 26.5t29 24.5t23 19q5 4 24.5 20t27 22.5t23 21.5t22.5 24.5t16.5 23t13 27t3.5 26.5q0 47 -31.5 71t-81.5 24q-80 0 -143 -74l-59 79q17 20 41 38.5t74 37.5t107 19q94 0 154 -51.5t60 -135.5q0 -23 -5 -45
t-16 -41.5t-20.5 -34t-27 -31t-26 -24t-26.5 -22t-20 -16.5t-27.5 -22t-36 -29.5t-30 -27.5t-30.5 -34t-17 -31h307v-100z" />
    <glyph glyph-name="three.fitted" unicode="&#xe099;" horiz-adv-x="527" 
d="M475 179q0 -87 -66.5 -138t-164.5 -51q-57 0 -107.5 20.5t-73.5 39.5t-40 40l65 75q72 -75 155 -75q45 0 78.5 25.5t33.5 72.5t-34.5 72t-84.5 25h-68v93h70q46 0 75 23.5t29 63.5t-31 61t-78 21q-75 0 -136 -61l-54 79q17 17 40 32.5t69 31.5t96 16q88 0 149.5 -43.5
t61.5 -120.5q0 -37 -14.5 -66.5t-35 -45.5t-36 -23.5t-25.5 -9.5q14 -3 31 -10.5t41 -24t39.5 -48.5t15.5 -74z" />
    <glyph glyph-name="four.fitted" unicode="&#xe09a;" 
d="M528 135h-85v-135h-122v135h-306v93l280 407h148v-406h85v-94zM321 229v304l-204 -304h204z" />
    <glyph glyph-name="five.fitted" unicode="&#xe09b;" 
d="M496 206q0 -101 -71 -158.5t-171 -57.5q-136 0 -225 95l65 75q63 -70 151 -70q56 0 93 30t37 87t-38 86.5t-93 29.5q-64 0 -100 -38l-75 32l55 318h355v-97h-265l-26 -146q36 18 93 18q89 0 152 -52.5t63 -151.5z" />
    <glyph glyph-name="six.fitted" unicode="&#xe09c;" horiz-adv-x="550" 
d="M514 210q0 -95 -60.5 -157.5t-166.5 -62.5q-121 0 -188 96q-54 77 -54 221q0 172 84 260q71 78 187 78q107 0 176 -56l-47 -80q-16 14 -49.5 28.5t-76.5 14.5q-61 0 -103 -42q-53 -53 -53 -168q64 64 162 64q78 0 133.5 -53.5t55.5 -142.5zM394 202q0 51 -28 83t-82 32
q-71 0 -118 -72q0 -68 31 -115t87 -47q55 0 82.5 33.5t27.5 85.5z" />
    <glyph glyph-name="seven.fitted" unicode="&#xe09d;" horiz-adv-x="478" 
d="M461 543l-267 -543h-131l273 537h-323v98h448v-92z" />
    <glyph glyph-name="eight.fitted" unicode="&#xe09e;" horiz-adv-x="571" 
d="M521 173q0 -88 -67 -135.5t-168 -47.5t-168.5 47.5t-67.5 135.5q0 111 126 159q-41 16 -73 50.5t-32 96.5q0 79 62.5 122.5t152.5 43.5t152.5 -43.5t62.5 -121.5q0 -101 -109 -140q51 -17 90 -58.5t39 -108.5zM385 474q0 41 -27.5 62.5t-71.5 21.5q-43 0 -71 -21t-28 -62
q0 -39 34.5 -63.5t80.5 -33.5q83 28 83 96zM402 181q0 45 -41 72.5t-94 40.5q-97 -34 -97 -112q0 -48 33.5 -75t82.5 -27q50 0 83 26.5t33 74.5z" />
    <glyph glyph-name="nine.fitted" unicode="&#xe09f;" horiz-adv-x="550" 
d="M505 328q0 -170 -84 -260q-73 -78 -187 -78q-111 0 -181 60l48 82q22 -20 59 -33.5t70 -13.5q64 0 103 39q54 54 54 170q-65 -65 -162 -65q-78 0 -133.5 54t-55.5 142q0 96 60.5 158t166.5 62q121 0 188 -96q54 -78 54 -221zM384 392q0 68 -31 115t-87 47
q-55 0 -82.5 -33t-27.5 -85q0 -51 28 -83.5t82 -32.5q39 0 69.5 22t48.5 50z" />
    <glyph glyph-name="zero.taboldstyle" unicode="&#xe100;" horiz-adv-x="547" 
d="M511 240q0 -113 -64.5 -181.5t-172.5 -68.5t-173 68t-65 181q0 114 65 181.5t172 67.5q108 0 173 -67.5t65 -180.5zM387 240q0 70 -29.5 114t-83.5 44t-84 -44t-30 -114q0 -69 29.5 -113.5t83.5 -44.5t84 44t30 114z" />
    <glyph glyph-name="one.taboldstyle" unicode="&#xe101;" horiz-adv-x="547" 
d="M366 0h-122v342q-19 -14 -50 -27q-40 -15 -58 -19l-28 86q44 7 94 35q51 30 65 66h99v-483z" />
    <glyph glyph-name="two.taboldstyle" unicode="&#xe102;" horiz-adv-x="547" 
d="M504 0h-467q16 127 133 210q18 13 41 26t49.5 26.5t33.5 17.5q19 11 28 16.5t18 17.5t9 26q0 24 -24 38.5t-71 14.5q-44 0 -88 -19t-67 -39l-50 80q3 3 9.5 8t27.5 17.5t43.5 22t58 17.5t71.5 8q98 0 155.5 -41t57.5 -112q0 -20 -5.5 -37t-17 -31t-22 -24.5t-28.5 -21
t-27.5 -15.5t-28 -13t-21.5 -10q-33 -16 -48.5 -24t-41 -26t-38.5 -37h310v-96z" />
    <glyph glyph-name="three.taboldstyle" unicode="&#xe103;" horiz-adv-x="547" 
d="M467 30q0 -88 -65 -137.5t-162 -49.5q-55 0 -104 18.5t-69 34t-32 29.5l60 80q18 -21 55 -42.5t80 -21.5q53 0 85 23.5t32 73.5q0 49 -34.5 72.5t-87.5 23.5h-61v93h61q50 0 79.5 22.5t29.5 62.5q0 39 -30 58.5t-74 19.5q-68 0 -128 -50l-52 75q11 11 29.5 24.5t67.5 31
t103 17.5q89 0 145.5 -47t56.5 -116q0 -60 -33 -93.5t-77 -47.5q47 -8 86 -47.5t39 -106.5z" />
    <glyph glyph-name="four.taboldstyle" unicode="&#xe104;" horiz-adv-x="547" 
d="M535 1h-90v-155h-122v155h-306v93l281 385h147v-384h90v-94zM323 94v284l-204 -284h204z" />
    <glyph glyph-name="five.taboldstyle" unicode="&#xe105;" horiz-adv-x="547" 
d="M488 56q0 -99 -70.5 -155.5t-167.5 -56.5q-134 0 -215 81l60 80q63 -63 145 -63q58 0 92.5 29.5t34.5 83.5q0 52 -35 83t-84 31q-67 0 -105 -32l-72 29l55 313h345v-95h-254l-27 -145q45 18 100 18q77 0 137.5 -52t60.5 -149z" />
    <glyph glyph-name="six.taboldstyle" unicode="&#xe106;" horiz-adv-x="547" 
d="M510 205q0 -93 -61 -154t-164 -61q-125 0 -189 97q-49 75 -49 218q0 169 86 255q75 75 189 75q99 0 168 -51l-43 -82q-54 39 -125 39t-112 -49q-46 -55 -46 -152q6 7 18 17.5t52.5 28t84.5 17.5q84 0 137.5 -54.5t53.5 -143.5zM391 197q0 51 -27.5 83.5t-79.5 32.5
q-13 0 -25.5 -2.5t-22 -7t-19 -10.5t-16 -11.5t-13.5 -12.5t-10.5 -11.5t-7.5 -9.5l-4 -6q0 -70 31 -114.5t83 -44.5q51 0 81 32t30 82z" />
    <glyph glyph-name="seven.taboldstyle" unicode="&#xe107;" horiz-adv-x="547" 
d="M492 385l-265 -539h-130l272 537h-320v96h443v-94z" />
    <glyph glyph-name="eight.taboldstyle" unicode="&#xe108;" horiz-adv-x="547" 
d="M503 174q0 -88 -63.5 -136t-165.5 -48q-101 0 -165 47.5t-64 130.5q0 114 119 162q-9 3 -20 9t-32 22t-34 45.5t-13 67.5q0 80 59 124.5t150 44.5q90 0 149.5 -44.5t59.5 -121.5q0 -36 -14 -65t-35 -44t-33 -21.5t-21 -9.5q83 -34 110 -95q13 -31 13 -68zM368 471
q0 39 -26 62t-68 23t-68 -23t-26 -61q0 -37 32 -62.5t78 -34.5q78 28 78 96zM384 181q0 44 -38.5 71.5t-90.5 39.5q-90 -31 -90 -110q0 -48 29.5 -75t79.5 -27q49 0 79.5 27t30.5 74z" />
    <glyph glyph-name="nine.taboldstyle" unicode="&#xe109;" horiz-adv-x="547" 
d="M500 170q0 -80 -23 -145.5t-61 -105.5q-72 -75 -191 -75q-100 0 -172 52l42 81q59 -39 130 -39t114 49q44 50 44 153q-19 -25 -59 -45.5t-94 -20.5q-84 0 -138.5 53.5t-54.5 142.5q0 93 60.5 155.5t162.5 62.5q127 0 191 -98q49 -74 49 -220zM381 237q0 70 -31.5 115
t-82.5 45t-81 -31.5t-30 -82.5t28.5 -83t80.5 -32q37 0 68 21t48 48z" />
    <glyph glyph-name="zero.denominator" unicode="&#xe10a;" horiz-adv-x="415" 
d="M364 191q0 -88 -42.5 -143.5t-113.5 -55.5q-72 0 -114.5 55.5t-42.5 143.5t42.5 143.5t113.5 55.5q72 0 114.5 -55.5t42.5 -143.5zM274 191q0 126 -66 126q-67 0 -67 -125q0 -126 66 -126q67 0 67 125z" />
    <glyph glyph-name="one.denominator" unicode="&#xe10b;" horiz-adv-x="415" 
d="M267 0h-96v285q-28 -20 -72 -27l-19 66q19 0 63 24q41 22 51 43h73v-391z" />
    <glyph glyph-name="two.denominator" unicode="&#xe10c;" horiz-adv-x="415" 
d="M351 0h-305q7 53 35.5 95.5t89.5 89.5q29 22 41 32.5t22 24.5t10 28q0 25 -16.5 39t-44.5 14q-48 0 -94 -46l-38 61q15 18 52.5 37.5t91.5 19.5q62 0 100.5 -31.5t38.5 -84.5q0 -43 -23 -71.5t-70 -61.5q-70 -50 -77 -73h187v-73z" />
    <glyph glyph-name="three.denominator" unicode="&#xe10d;" horiz-adv-x="415" 
d="M347 109q0 -53 -46 -85t-106 -32q-77 0 -139 58l39 57q46 -46 95 -46q31 0 50.5 14.5t19.5 40.5q0 25 -17 39t-43 14h-49v64h44q25 0 40.5 12t15.5 34q0 21 -18 33.5t-44 12.5q-47 0 -86 -34l-32 58q46 46 128 46q56 0 97 -26.5t41 -74.5q0 -37 -20 -59.5t-45 -28.5
q30 -7 52.5 -32t22.5 -65z" />
    <glyph glyph-name="four.denominator" unicode="&#xe10e;" horiz-adv-x="415" 
d="M369 70h-51v-69h-88v69h-188v68l170 245h106v-244h51v-69zM230 139v169l-110 -169h110z" />
    <glyph glyph-name="five.denominator" unicode="&#xe10f;" horiz-adv-x="415" 
d="M351 123q0 -62 -43 -97t-105 -35q-82 0 -143 53l38 62q45 -45 95 -45q33 0 52.5 16t19.5 46q0 29 -20 44.5t-48 15.5q-43 0 -60 -20l-59 20l36 198h227v-70h-162l-16 -76q21 13 65 13q49 0 86 -32.5t37 -92.5z" />
    <glyph glyph-name="six.denominator" unicode="&#xe110;" horiz-adv-x="415" 
d="M364 124q0 -58 -41 -95t-107 -37q-73 0 -115 52t-42 148q0 91 48 144.5t124 53.5t116 -40l-32 -57q-6 7 -30 17.5t-51 10.5q-88 0 -88 -115q32 39 99 39q49 0 84 -33t35 -88zM277 123q0 29 -16 46t-46 17q-18 0 -34.5 -10t-23 -18t-9.5 -14q0 -38 17.5 -61t48.5 -23
t47 17t16 46z" />
    <glyph glyph-name="seven.denominator" unicode="&#xe111;" horiz-adv-x="415" 
d="M351 317l-159 -316h-94l163 307h-191v75h281v-66z" />
    <glyph glyph-name="eight.denominator" unicode="&#xe112;" horiz-adv-x="415" 
d="M359 104q0 -50 -38.5 -81t-111.5 -31q-74 0 -113.5 29t-39.5 79q0 73 77 96q-18 8 -29.5 16t-23 28t-11.5 48q0 46 37 74t102 28q64 0 100.5 -28t36.5 -74q0 -21 -8 -37t-20.5 -25t-21.5 -13.5t-17 -6.5q81 -28 81 -102zM260 285q0 20 -14.5 31.5t-37.5 11.5t-38 -10.5
t-15 -30.5q0 -33 37 -45l24 -9l9 4q35 15 35 48zM271 109q0 33 -44 48l-32 11l-14 -5q-37 -14 -37 -54q0 -23 17.5 -37t44.5 -14q28 0 46.5 12.5t18.5 38.5z" />
    <glyph glyph-name="nine.denominator" unicode="&#xe113;" horiz-adv-x="415" 
d="M355 192q0 -107 -57 -159q-46 -41 -113 -41q-80 0 -120 44l34 57q6 -9 30.5 -21t51.5 -12q31 0 56 20q31 31 31 96q-36 -40 -96 -40q-42 0 -80.5 31t-38.5 93q0 64 44 97t103 33q69 0 112 -47.5t43 -150.5zM267 240q0 37 -18 61.5t-49 24.5q-30 0 -45.5 -17.5
t-15.5 -45.5t16 -44.5t45 -16.5q38 0 67 38z" />
    <glyph glyph-name="zero.numerator" unicode="&#xe11e;" horiz-adv-x="415" 
d="M364 453q0 -88 -42.5 -143.5t-113.5 -55.5q-72 0 -114.5 55.5t-42.5 143.5t42.5 143.5t113.5 55.5q72 0 114.5 -55.5t42.5 -143.5zM274 453q0 126 -66 126q-67 0 -67 -125q0 -126 66 -126q67 0 67 125z" />
    <glyph glyph-name="one.numerator" unicode="&#xe11f;" horiz-adv-x="415" 
d="M267 262h-96v285q-28 -20 -72 -27l-19 66q19 0 63 24q41 22 51 43h73v-391z" />
    <glyph glyph-name="two.numerator" unicode="&#xe120;" horiz-adv-x="415" 
d="M351 262h-305q7 53 35.5 95.5t89.5 89.5q29 22 41 32.5t22 24.5t10 28q0 25 -16.5 39t-44.5 14q-48 0 -94 -46l-38 61q15 18 52.5 37.5t91.5 19.5q62 0 100.5 -31.5t38.5 -84.5q0 -43 -23 -71.5t-70 -61.5q-70 -50 -77 -73h187v-73z" />
    <glyph glyph-name="three.numerator" unicode="&#xe121;" horiz-adv-x="415" 
d="M347 371q0 -53 -46 -85t-106 -32q-77 0 -139 58l39 57q46 -46 95 -46q31 0 50.5 14.5t19.5 40.5q0 25 -17 39t-43 14h-49v64h44q25 0 40.5 12t15.5 34q0 21 -18 33.5t-44 12.5q-47 0 -86 -34l-32 58q46 46 128 46q56 0 97 -26.5t41 -74.5q0 -37 -20 -59.5t-45 -28.5
q30 -7 52.5 -32t22.5 -65z" />
    <glyph glyph-name="four.numerator" unicode="&#xe122;" horiz-adv-x="415" 
d="M369 332h-51v-69h-88v69h-188v68l170 245h106v-244h51v-69zM230 401v169l-110 -169h110z" />
    <glyph glyph-name="five.numerator" unicode="&#xe123;" horiz-adv-x="415" 
d="M351 385q0 -62 -43 -97t-105 -35q-82 0 -143 53l38 62q45 -45 95 -45q33 0 52.5 16t19.5 46q0 29 -20 44.5t-48 15.5q-43 0 -60 -20l-59 20l36 198h227v-70h-162l-16 -76q21 13 65 13q49 0 86 -32.5t37 -92.5z" />
    <glyph glyph-name="six.numerator" unicode="&#xe124;" horiz-adv-x="415" 
d="M364 386q0 -58 -41 -95t-107 -37q-73 0 -115 52t-42 148q0 91 48 144.5t124 53.5t116 -40l-32 -57q-6 7 -30 17.5t-51 10.5q-88 0 -88 -115q32 39 99 39q49 0 84 -33t35 -88zM277 385q0 29 -16 46t-46 17q-18 0 -34.5 -10t-23 -18t-9.5 -14q0 -38 17.5 -61t48.5 -23
t47 17t16 46z" />
    <glyph glyph-name="seven.numerator" unicode="&#xe125;" horiz-adv-x="415" 
d="M351 579l-159 -316h-94l163 307h-191v75h281v-66z" />
    <glyph glyph-name="eight.numerator" unicode="&#xe126;" horiz-adv-x="415" 
d="M359 366q0 -50 -38.5 -81t-111.5 -31q-74 0 -113.5 29t-39.5 79q0 73 77 96q-18 8 -29.5 16t-23 28t-11.5 48q0 46 37 74t102 28q64 0 100.5 -28t36.5 -74q0 -21 -8 -37t-20.5 -25t-21.5 -13.5t-17 -6.5q81 -28 81 -102zM260 547q0 20 -14.5 31.5t-37.5 11.5t-38 -10.5
t-15 -30.5q0 -33 37 -45l24 -9l9 4q35 15 35 48zM271 371q0 33 -44 48l-32 11l-14 -5q-37 -14 -37 -54q0 -23 17.5 -37t44.5 -14q28 0 46.5 12.5t18.5 38.5z" />
    <glyph glyph-name="nine.numerator" unicode="&#xe127;" horiz-adv-x="415" 
d="M355 454q0 -107 -57 -159q-46 -41 -113 -41q-80 0 -120 44l34 57q6 -9 30.5 -21t51.5 -12q31 0 56 20q31 31 31 96q-36 -40 -96 -40q-42 0 -80.5 31t-38.5 93q0 64 44 97t103 33q69 0 112 -47.5t43 -150.5zM267 502q0 37 -18 61.5t-49 24.5q-30 0 -45.5 -17.5
t-15.5 -45.5t16 -44.5t45 -16.5q38 0 67 38z" />
    <glyph glyph-name="guillemotleft.cap" unicode="&#xe134;" horiz-adv-x="500" 
d="M454 166l-56 -48l-148 177v55l147 177l57 -47l-128 -157zM248 166l-57 -48l-147 177v55l147 177l57 -47l-128 -157z" />
    <glyph glyph-name="guillemotright.cap" unicode="&#xe135;" horiz-adv-x="500" 
d="M456 295l-147 -177l-57 47l128 157l-128 157l57 48l147 -177v-55zM250 295l-147 -177l-57 47l128 157l-128 157l56 48l148 -177v-55z" />
    <glyph glyph-name="guilsinglleft.cap" unicode="&#xe136;" horiz-adv-x="294" 
d="M248 166l-57 -48l-147 177v55l147 177l57 -47l-128 -157z" />
    <glyph glyph-name="guilsinglright.cap" unicode="&#xe137;" horiz-adv-x="294" 
d="M250 295l-147 -177l-57 47l128 157l-128 157l56 48l148 -177v-55z" />
    <glyph glyph-name="braceleft.cap" unicode="&#xe139;" horiz-adv-x="340" 
d="M305 -35l-5 -68l-90 8q-58 5 -80.5 37t-25.5 92l-8 130q-3 62 -14 85t-49 23h-18v86h17q38 0 49.5 23.5t14.5 84.5l7 130q3 60 26 92t81 37l89 8l6 -68l-55 -8q-22 -3 -32.5 -14t-13.5 -24t-4 -41l-7 -142q-3 -57 -22.5 -85t-66.5 -34v-4q47 -5 66 -33.5t22 -85.5l8 -142
q2 -29 4.5 -41.5t13 -23.5t32.5 -14z" />
    <glyph glyph-name="braceright.cap" unicode="&#xe13a;" horiz-adv-x="340" 
d="M325 272h-17q-38 0 -49.5 -23.5t-14.5 -84.5l-7 -130q-3 -60 -26 -92t-81 -37l-89 -8l-6 68l55 8q22 3 32.5 13.5t13.5 23.5t4 41l7 143q3 57 22.5 85t66.5 34v4q-47 5 -66 33t-22 85l-8 143q-1 28 -4 41t-13.5 24t-32.5 14l-55 7l5 69l90 -8q57 -5 80 -37t26 -92l8 -130
q3 -62 14 -85t49 -23h18v-86z" />
    <glyph glyph-name="bracketleft.cap" unicode="&#xe13b;" horiz-adv-x="340" 
d="M297 -91h-221v821h221v-67h-121v-686h121v-68z" />
    <glyph glyph-name="bracketright.cap" unicode="&#xe13c;" horiz-adv-x="340" 
d="M264 -91h-221v68h121v685h-121v68h221v-821z" />
    <glyph glyph-name="emdash.cap" unicode="&#xe13d;" horiz-adv-x="800" 
d="M771 285h-742v84h742v-84z" />
    <glyph glyph-name="endash.cap" unicode="&#xe13e;" horiz-adv-x="491" 
d="M457 285h-423v84h423v-84z" />
    <glyph glyph-name="hyphen.cap" unicode="&#xe13f;" horiz-adv-x="315" 
d="M283 281h-251v92h251v-92z" />
    <glyph glyph-name="parenleft.cap" unicode="&#xe140;" horiz-adv-x="340" 
d="M303 -57l-60 -51q-32 26 -62 61t-64 89t-54.5 127.5t-20.5 154.5t20.5 155t54 127.5t63.5 89t62 61.5l61 -51q-154 -159 -154 -381q0 -223 154 -382z" />
    <glyph glyph-name="parenright.cap" unicode="&#xe141;" horiz-adv-x="340" 
d="M298 325q0 -81 -20.5 -155t-54 -127.5t-63.5 -89t-62 -61.5l-61 51q154 159 154 381q0 223 -154 382l60 51q32 -26 62 -61t64 -89t54.5 -127.5t20.5 -154.5z" />
    <glyph glyph-name="exclamdown.cap" unicode="&#xe142;" horiz-adv-x="302" 
d="M224 582q0 -30 -21 -50.5t-52 -20.5q-32 0 -52.5 20t-20.5 50t20.5 50.5t52.5 20.5q31 0 52 -20t21 -50zM217 6h-133l19 438h95z" />
    <glyph glyph-name="questiondown.cap" unicode="&#xe143;" horiz-adv-x="449" 
d="M241 95q43 0 77.5 19t52.5 38l53 -80q-13 -13 -32 -27.5t-66.5 -31.5t-101.5 -17q-87 0 -141 46t-54 112q0 30 7.5 54.5t23.5 44t23 26.5t25 22l60 50q20 16 25.5 28t6.5 32v33h99l1 -42q1 -38 -6.5 -60t-36.5 -44l-53 -44q-1 -1 -10.5 -9t-12.5 -10.5t-11 -10t-11 -12.5
t-7.5 -12t-6 -15t-1.5 -16q0 -32 24.5 -53t72.5 -21zM322 582q0 -30 -20.5 -50.5t-51.5 -20.5q-32 0 -52.5 20t-20.5 50t20.5 50.5t52.5 20.5q31 0 51.5 -20t20.5 -50z" />
    <glyph glyph-name="periodcentered.cap" unicode="&#xe22b;" horiz-adv-x="273" 
d="M209 320q0 -30 -20.5 -50.5t-51.5 -20.5q-32 0 -52.5 20t-20.5 50t20.5 50.5t51.5 20.5q32 0 52.5 -20t20.5 -50z" />
    <glyph glyph-name="caron.alt" unicode="&#xe503;" horiz-adv-x="273" 
d="M103 663l107 -2q0 -95 -52 -175l-85 6q30 76 30 171z" />
    <glyph glyph-name="Euro.oldstyle" unicode="&#xe506;" horiz-adv-x="528" 
d="M458 121l45 -58q-2 -3 -6.5 -8t-20.5 -17.5t-35.5 -22t-52 -17.5t-68.5 -8q-91 0 -144 47t-70 118h-63v60h53q-1 15 -1 25l1 25h-53v60h63q16 67 73.5 115t145.5 48q56 0 99.5 -18t59.5 -36l16 -17l-51 -58q-49 49 -114 49q-47 0 -75.5 -23t-35.5 -60h168v-60h-179
q-1 -15 -1 -25l1 -25h179v-60h-169q4 -30 35.5 -56t79.5 -26q72 0 120 48z" />
    <glyph glyph-name="sterling.oldstyle" unicode="&#xe508;" horiz-adv-x="528" 
d="M490 0h-440v75l100 12q25 33 25 68q0 23 -9 44l-2 6h-94v60h74l-4 10q-14 34 -14 70q0 59 49 100q53 44 145 44q49 0 94.5 -22.5t68.5 -51.5l-55 -65q-5 6 -14 14t-37 22t-57 14q-44 0 -64 -19t-20 -46q0 -35 14 -60l5 -10h155v-60h-135l2 -5q6 -15 6 -40q0 -35 -28 -70
h235v-90z" />
    <glyph glyph-name="yen.oldstyle" unicode="&#xe509;" horiz-adv-x="528" 
d="M494 479l-127 -199h114v-60h-151l-9 -14v-36h160v-60h-160v-110h-114v110h-160v60h160v36l-9 14h-151v60h113l-126 199h128l104 -194l102 194h126z" />
    <glyph glyph-name="florin.oldstyle" unicode="&#xe50a;" horiz-adv-x="528" 
d="M508 510l-28 -70q-33 19 -62 19q-58 0 -70 -61l-16 -80h103v-58h-115l-37 -175q-20 -89 -50 -120q-41 -43 -115 -43q-24 0 -49 7t-39 14l-13 7l30 73q25 -18 63 -18q48 0 65 82l35 173h-92v57h104l18 85q16 79 62 110q42 28 100 28q64 0 106 -30z" />
    <glyph glyph-name="zero.sc" unicode="&#xe50b;" horiz-adv-x="513" 
d="M476 239q0 -111 -59 -180t-160 -69q-102 0 -161 69t-59 180t59 180t160 69q102 0 161 -69t59 -180zM353 239q0 74 -24.5 119t-71.5 45t-72 -44.5t-25 -118.5t24.5 -119t71.5 -45t72 44.5t25 118.5z" />
    <glyph glyph-name="one.sc" unicode="&#xe50c;" horiz-adv-x="395" 
d="M292 0h-120v339q-40 -27 -104 -45l-28 86q40 8 87 36q54 31 64 63h101v-479z" />
    <glyph glyph-name="two.sc" unicode="&#xe50d;" horiz-adv-x="503" 
d="M463 0h-423q14 128 160 227q10 7 31 20t32.5 21t25.5 20t20.5 23.5t6.5 23.5q0 30 -24.5 46.5t-63.5 16.5q-72 0 -130 -56l-56 68q12 14 31.5 29t66.5 32t101 17q89 0 143 -40.5t54 -104.5q0 -30 -12.5 -56t-39 -49t-37.5 -30.5t-38 -24.5q-4 -3 -23.5 -15.5t-29 -19
t-24 -17.5t-24 -21t-15.5 -20h268v-90z" />
    <glyph glyph-name="three.sc" unicode="&#xe50e;" horiz-adv-x="498" 
d="M440 133q0 -61 -55.5 -102t-154.5 -41q-39 0 -72.5 7t-54 16.5t-37 21t-22.5 18.5t-9 11l53 68q4 -6 18.5 -18t46 -25.5t62.5 -13.5q103 0 103 67q0 32 -26 49.5t-69 17.5h-66v80h65q41 0 63.5 15.5t22.5 43.5t-25.5 43.5t-67.5 15.5q-36 0 -68.5 -15t-48.5 -30l-43 65
q17 20 64 40.5t121 20.5q82 0 133.5 -37t51.5 -91q0 -48 -30 -75t-70 -33q47 -4 81 -34.5t34 -84.5z" />
    <glyph glyph-name="four.sc" unicode="&#xe50f;" horiz-adv-x="508" 
d="M483 87h-73v-87h-120v87h-268v85l243 306h145v-305h73v-86zM290 173v223l-172 -223h172z" />
    <glyph glyph-name="five.sc" unicode="&#xe510;" horiz-adv-x="503" 
d="M453 155q0 -77 -61 -121t-150 -44q-112 0 -202 70l52 70q62 -56 135 -56q48 0 77 20t29 61q0 40 -30 60.5t-70 20.5q-59 0 -86 -24l-81 24l51 242h322v-84h-235l-22 -99q29 16 93 16q69 0 123.5 -40.5t54.5 -115.5z" />
    <glyph glyph-name="six.sc" unicode="&#xe511;" horiz-adv-x="503" 
d="M471 155q0 -72 -56.5 -118.5t-150.5 -46.5q-116 0 -181 88q-39 55 -39 162q0 133 83 197q65 51 158 51q109 0 166 -50l-46 -66q-9 9 -42.5 22t-72.5 13q-46 0 -79 -25q-48 -38 -48 -124q6 7 18.5 16.5t46.5 21t74 11.5q70 0 119.5 -41.5t49.5 -110.5zM351 154
q0 36 -23 58.5t-65 22.5q-26 0 -50 -12.5t-33.5 -22t-14.5 -17.5q0 -49 26 -81t70 -32q43 0 66.5 23t23.5 61z" />
    <glyph glyph-name="seven.sc" unicode="&#xe512;" horiz-adv-x="488" 
d="M448 395l-227 -395h-129l232 390h-277v88h401v-83z" />
    <glyph glyph-name="eight.sc" unicode="&#xe513;" horiz-adv-x="513" 
d="M473 130q0 -63 -55 -101.5t-160 -38.5q-106 0 -162 36.5t-56 98.5q0 37 21 64.5t42.5 38t46.5 17.5q-18 7 -30.5 14t-28 20.5t-24 33.5t-8.5 47q0 57 53 92.5t145 35.5t144 -35.5t52 -92.5q0 -26 -11.5 -46.5t-29.5 -31.5t-30.5 -16t-24.5 -8q116 -35 116 -128zM334 358
q0 27 -22 41t-55 14q-35 0 -57 -13.5t-22 -39.5q0 -21 17 -36t40 -21l34 -11l13 5q52 20 52 61zM350 135q0 43 -65 61l-47 14l-20 -6q-55 -20 -55 -69q0 -29 26.5 -47t65.5 -18q41 0 68 16.5t27 48.5z" />
    <glyph glyph-name="nine.sc" unicode="&#xe514;" horiz-adv-x="503" 
d="M458 240q0 -133 -82 -199q-65 -51 -158 -51q-116 0 -171 55l48 68q10 -12 44 -27t73 -15q47 0 81 26q46 37 46 123q-50 -50 -139 -50q-26 0 -54 8.5t-54 25.5t-43 48.5t-17 72.5q0 80 62 121.5t146 41.5q66 0 111.5 -27.5t66.5 -59.5q40 -60 40 -161zM338 300
q0 46 -27 78t-71 32q-43 0 -66 -22.5t-23 -57.5t23 -57.5t66 -22.5q58 0 98 50z" />
    <glyph glyph-name="quotesingle.sc" unicode="&#xe515;" horiz-adv-x="243" 
d="M181 489l-20 -189h-79l-20 189h119z" />
    <glyph glyph-name="quotedbl.sc" unicode="&#xe516;" horiz-adv-x="415" 
d="M353 489l-20 -189h-79l-20 189h119zM181 489l-20 -189h-79l-20 189h119z" />
    <glyph glyph-name="degree.sc" unicode="&#xe517;" horiz-adv-x="372" 
d="M321 391q0 -56 -39 -95.5t-96 -39.5q-56 0 -95.5 39t-39.5 96q0 56 39 95.5t96 39.5q56 0 95.5 -39t39.5 -96zM260 391q0 31 -21 52.5t-53 21.5t-53 -21.5t-21 -52.5t21 -52.5t53 -21.5t53 21.5t21 52.5z" />
    <glyph glyph-name="slash.sc" unicode="&#xe518;" horiz-adv-x="496" 
d="M448 581l-334 -678l-66 34l334 678z" />
    <glyph glyph-name="fraction.sc" unicode="&#xe519;" horiz-adv-x="270" 
d="M327 462l-337 -474l-48 36l338 474z" />
    <glyph glyph-name="backslash.sc" unicode="&#xe51a;" horiz-adv-x="496" 
d="M448 -63l-66 -34l-334 678l66 34z" />
    <glyph glyph-name="parenleft.sc" unicode="&#xe51b;" horiz-adv-x="304" 
d="M268 -66l-57 -50q-28 22 -54.5 49.5t-57 71.5t-49 105t-18.5 129t18.5 128.5t48.5 104.5t56 72t54 50l59 -51q-129 -129 -129 -304q0 -179 129 -305z" />
    <glyph glyph-name="parenright.sc" unicode="&#xe51c;" horiz-adv-x="304" 
d="M272 239q0 -68 -18.5 -128.5t-48.5 -104.5t-56 -72t-54 -50l-59 51q129 129 129 304q0 179 -129 305l57 50q28 -22 54.5 -49.5t57 -71.5t49 -105t18.5 -129z" />
    <glyph glyph-name="bracketleft.sc" unicode="&#xe51d;" horiz-adv-x="304" 
d="M265 -112h-204v702h204v-68h-104v-566h104v-68z" />
    <glyph glyph-name="bracketright.sc" unicode="&#xe51e;" horiz-adv-x="304" 
d="M243 -112h-204v68h104v566h-104v68h204v-702z" />
    <glyph glyph-name="braceleft.sc" unicode="&#xe51f;" horiz-adv-x="304" 
d="M287 -49l-7 -68l-74 8q-57 6 -79 37t-26 90l-7 103q-3 42 -14.5 59.5t-43.5 17.5h-19v84h19q32 0 43.5 18t13.5 60l8 102q4 60 26 91t79 37l73 8l8 -68l-40 -7q-22 -4 -33.5 -16t-14 -25t-4.5 -42l-8 -110q-3 -42 -21.5 -64t-63.5 -23v-4q44 -2 63 -24t22 -64l7 -109
q2 -23 3.5 -33t6.5 -22.5t15 -18.5t27 -9z" />
    <glyph glyph-name="braceright.sc" unicode="&#xe520;" horiz-adv-x="304" 
d="M287 199h-19q-32 0 -43.5 -18t-13.5 -60l-8 -102q-4 -60 -26 -91t-79 -37l-73 -8l-8 68l40 7q22 4 33.5 16t14 25t4.5 42l8 110q3 42 21.5 64t63.5 23v4q-44 2 -63 24t-22 64l-7 109q-2 23 -3.5 33t-6.5 22.5t-15 18.5t-27 9l-41 8l7 68l74 -8q57 -6 79 -37t26 -90
l7 -103q3 -42 14.5 -59.5t43.5 -17.5h19v-84z" />
    <glyph glyph-name="asterisk.sc" unicode="&#xe521;" horiz-adv-x="398" 
d="M348 398l-107 -30l69 -79l-49 -41l-62 90l-62 -90l-48 41l68 79l-106 30l22 61l98 -37l-5 106h67l-6 -106l98 37z" />
    <glyph glyph-name="hyphen.sc" unicode="&#xe522;" horiz-adv-x="315" 
d="M283 208h-251v95h251v-95z" />
    <glyph glyph-name="endash.sc" unicode="&#xe523;" horiz-adv-x="468" 
d="M445 213h-422v86h422v-86z" />
    <glyph glyph-name="emdash.sc" unicode="&#xe524;" horiz-adv-x="800" 
d="M773 213h-746v86h746v-86z" />
    <glyph glyph-name="at.sc" unicode="&#xe525;" horiz-adv-x="791" 
d="M739 274q0 -110 -68 -184q-53 -56 -126 -56q-36 0 -62.5 17t-29.5 49q-45 -64 -115 -64q-55 0 -89 38t-34 108q0 54 21 102t52 78q50 48 113 48q40 0 64 -15.5t31 -29.5l20 35h66l-59 -225q-6 -21 -6 -39q0 -44 42 -44q41 0 79 48.5t38 135.5q0 99 -72.5 167.5
t-192.5 68.5q-125 0 -207.5 -82.5t-82.5 -211.5q0 -130 76 -205.5t203 -75.5q63 0 117.5 12.5t76.5 24.5l23 12l22 -46q-9 -7 -27 -16.5t-81.5 -26t-136.5 -16.5q-151 0 -245 91.5t-94 248.5q0 154 106.5 252t247.5 98q155 0 251 -98q79 -81 79 -199zM477 296q-3 19 -20 36
t-48 17q-45 0 -76 -41q-39 -53 -39 -124q0 -80 65 -80q28 0 53.5 22.5t35.5 61.5z" />
    <glyph glyph-name="bar.sc" unicode="&#xe526;" horiz-adv-x="305" 
d="M195 -115h-85v708h85v-708z" />
    <glyph glyph-name="dagger.sc" unicode="&#xe527;" horiz-adv-x="513" 
d="M451 333l-159 10l11 -157l-17 -239h-61l-15 239l11 157l-159 -10v87l159 -10l-11 156h93l-11 -156l159 10v-87z" />
    <glyph glyph-name="daggerdbl.sc" unicode="&#xe528;" horiz-adv-x="513" 
d="M451 93l-159 10l11 -157h-93l11 157l-159 -10v87l159 -10l-11 86l11 87l-159 -10v87l159 -10l-11 156h93l-11 -156l159 10v-87l-159 10l11 -87l-11 -86l159 10v-87z" />
    <glyph glyph-name="section.sc" unicode="&#xe529;" horiz-adv-x="543" 
d="M483 240q0 -37 -19 -65.5t-43 -44.5q17 -10 31 -36t14 -58q0 -61 -50 -103q-57 -49 -158 -49q-60 0 -114 23t-84 53l50 70q73 -63 151 -63q44 0 69 16.5t25 43.5q0 39 -57 55l-104 32q-58 20 -83 42q-39 34 -39 88q0 37 19.5 65t42.5 43q-43 29 -43 93t58 104
q56 39 147 39q58 0 105 -19.5t71 -40.5l-42 -68q-65 50 -140 50q-91 0 -91 -55q0 -7 2.5 -13.5t5.5 -11.5t9 -9.5t10 -7t12 -5.5t11 -4l10.5 -3.5t8.5 -2.5l92 -29q55 -15 83 -42q40 -35 40 -87zM386 217q0 42 -62 63l-63 20q-55 17 -60 20q-4 -2 -9 -5.5t-14 -17.5t-9 -31
q0 -43 62 -62l62 -20q9 -3 23 -7.5t24 -7.5t14 -5q4 2 9 5t14 17t9 31z" />
    <glyph glyph-name="paragraph.sc" unicode="&#xe52a;" horiz-adv-x="513" 
d="M498 524h-51v-678h-70v678h-71v-379h-39q-110 0 -172 57.5t-62 161.5q0 105 62 162.5t172 57.5h231v-60z" />
    <glyph glyph-name="bullet.sc" unicode="&#xe52b;" horiz-adv-x="513" 
d="M375 274q0 -50 -34 -84.5t-84 -34.5q-51 0 -85 34.5t-34 84.5t34 84.5t84 34.5q51 0 85 -34.5t34 -84.5z" />
    <glyph glyph-name="registered.sc" unicode="&#xe52c;" horiz-adv-x="548" 
d="M513 345q0 -100 -69.5 -169.5t-169.5 -69.5t-169.5 69t-69.5 170t69.5 170t169.5 69t169.5 -69.5t69.5 -169.5zM475 345q0 86 -58 144t-143 58t-143 -58t-58 -144q0 -85 58 -143t143 -58t143 58t58 143zM393 214h-67l-56 100h-28v-100h-59v264h107q40 0 65.5 -21
t25.5 -61q0 -19 -6.5 -34t-16.5 -23.5t-16 -12.5t-12 -6zM319 396q0 19 -11.5 29t-29.5 10h-38v-78h37q42 0 42 39z" />
    <glyph glyph-name="copyright.sc" unicode="&#xe52d;" horiz-adv-x="590" 
d="M550 245q0 -108 -73.5 -181.5t-181.5 -73.5t-181.5 73.5t-73.5 181.5t73.5 181.5t181.5 73.5t181.5 -73.5t73.5 -181.5zM510 245q0 89 -63 152t-152 63t-151.5 -63t-62.5 -152t62.5 -152t151.5 -63t152 63t63 152zM407 346l-31 -44q-7 10 -27 22.5t-48 12.5
q-35 0 -58.5 -23t-23.5 -69t23.5 -68.5t58.5 -22.5q47 0 75 34l31 -44l-4 -4q-4 -5 -9.5 -9.5t-15 -10.5t-20.5 -10.5t-27 -8t-34 -3.5q-58 0 -99.5 40.5t-41.5 106.5t41.5 106.5t99.5 40.5q75 0 110 -46z" />
    <glyph glyph-name="trademark.sc" unicode="&#xe52e;" horiz-adv-x="615" 
d="M569 214h-60l-7 201l-59 -201h-53l-58 201l-7 -201h-59l14 264h85l52 -187l52 187h87zM245 429h-74v-215h-60v215h-75v49h209v-49z" />
    <glyph glyph-name="zero.tabsc" unicode="&#xe52f;" horiz-adv-x="513" 
d="M476 239q0 -111 -59 -180t-160 -69q-102 0 -161 69t-59 180t59 180t160 69q102 0 161 -69t59 -180zM353 239q0 74 -24.5 119t-71.5 45t-72 -44.5t-25 -118.5t24.5 -119t71.5 -45t72 44.5t25 118.5z" />
    <glyph glyph-name="one.tabsc" unicode="&#xe530;" horiz-adv-x="395" 
d="M292 0h-120v339q-40 -27 -104 -45l-28 86q40 8 87 36q54 31 64 63h101v-479z" />
    <glyph glyph-name="two.tabsc" unicode="&#xe531;" horiz-adv-x="503" 
d="M463 0h-423q14 128 160 227q10 7 31 20t32.5 21t25.5 20t20.5 23.5t6.5 23.5q0 30 -24.5 46.5t-63.5 16.5q-72 0 -130 -56l-56 68q12 14 31.5 29t66.5 32t101 17q89 0 143 -40.5t54 -104.5q0 -30 -12.5 -56t-39 -49t-37.5 -30.5t-38 -24.5q-4 -3 -23.5 -15.5t-29 -19
t-24 -17.5t-24 -21t-15.5 -20h268v-90z" />
    <glyph glyph-name="three.tabsc" unicode="&#xe532;" horiz-adv-x="498" 
d="M440 133q0 -61 -55.5 -102t-154.5 -41q-39 0 -72.5 7t-54 16.5t-37 21t-22.5 18.5t-9 11l53 68q4 -6 18.5 -18t46 -25.5t62.5 -13.5q103 0 103 67q0 32 -26 49.5t-69 17.5h-66v80h65q41 0 63.5 15.5t22.5 43.5t-25.5 43.5t-67.5 15.5q-36 0 -68.5 -15t-48.5 -30l-43 65
q17 20 64 40.5t121 20.5q82 0 133.5 -37t51.5 -91q0 -48 -30 -75t-70 -33q47 -4 81 -34.5t34 -84.5z" />
    <glyph glyph-name="four.tabsc" unicode="&#xe533;" horiz-adv-x="508" 
d="M483 87h-73v-87h-120v87h-268v85l243 306h145v-305h73v-86zM290 173v223l-172 -223h172z" />
    <glyph glyph-name="five.tabsc" unicode="&#xe534;" horiz-adv-x="503" 
d="M453 155q0 -77 -61 -121t-150 -44q-112 0 -202 70l52 70q62 -56 135 -56q48 0 77 20t29 61q0 40 -30 60.5t-70 20.5q-59 0 -86 -24l-81 24l51 242h322v-84h-235l-22 -99q29 16 93 16q69 0 123.5 -40.5t54.5 -115.5z" />
    <glyph glyph-name="six.tabsc" unicode="&#xe535;" horiz-adv-x="503" 
d="M471 155q0 -72 -56.5 -118.5t-150.5 -46.5q-116 0 -181 88q-39 55 -39 162q0 133 83 197q65 51 158 51q109 0 166 -50l-46 -66q-9 9 -42.5 22t-72.5 13q-46 0 -79 -25q-48 -38 -48 -124q6 7 18.5 16.5t46.5 21t74 11.5q70 0 119.5 -41.5t49.5 -110.5zM351 154
q0 36 -23 58.5t-65 22.5q-26 0 -50 -12.5t-33.5 -22t-14.5 -17.5q0 -49 26 -81t70 -32q43 0 66.5 23t23.5 61z" />
    <glyph glyph-name="seven.tabsc" unicode="&#xe536;" horiz-adv-x="488" 
d="M448 395l-227 -395h-129l232 390h-277v88h401v-83z" />
    <glyph glyph-name="eight.tabsc" unicode="&#xe537;" horiz-adv-x="513" 
d="M473 130q0 -63 -55 -101.5t-160 -38.5q-106 0 -162 36.5t-56 98.5q0 37 21 64.5t42.5 38t46.5 17.5q-18 7 -30.5 14t-28 20.5t-24 33.5t-8.5 47q0 57 53 92.5t145 35.5t144 -35.5t52 -92.5q0 -26 -11.5 -46.5t-29.5 -31.5t-30.5 -16t-24.5 -8q116 -35 116 -128zM334 358
q0 27 -22 41t-55 14q-35 0 -57 -13.5t-22 -39.5q0 -21 17 -36t40 -21l34 -11l13 5q52 20 52 61zM350 135q0 43 -65 61l-47 14l-20 -6q-55 -20 -55 -69q0 -29 26.5 -47t65.5 -18q41 0 68 16.5t27 48.5z" />
    <glyph glyph-name="nine.tabsc" unicode="&#xe538;" horiz-adv-x="503" 
d="M458 240q0 -133 -82 -199q-65 -51 -158 -51q-116 0 -171 55l48 68q10 -12 44 -27t73 -15q47 0 81 26q46 37 46 123q-50 -50 -139 -50q-26 0 -54 8.5t-54 25.5t-43 48.5t-17 72.5q0 80 62 121.5t146 41.5q66 0 111.5 -27.5t66.5 -59.5q40 -60 40 -161zM338 300
q0 46 -27 78t-71 32q-43 0 -66 -22.5t-23 -57.5t23 -57.5t66 -22.5q58 0 98 50z" />
    <glyph glyph-name="perthousand.oldstyle" unicode="&#xe900;" horiz-adv-x="1156" 
d="M1113 144q0 -73 -43 -113.5t-109 -40.5q-67 0 -110 40.5t-43 112.5q0 73 43.5 113.5t109.5 40.5t109 -40.5t43 -112.5zM778 144q0 -73 -43 -113.5t-109 -40.5q-67 0 -110 40.5t-43 112.5q0 73 43.5 113.5t109.5 40.5t109 -40.5t43 -112.5zM581 456l-286 -469l-55 35
l286 469zM347 335q0 -73 -43 -113.5t-109 -40.5q-67 0 -110 40.5t-43 112.5t43.5 113t109.5 41t109 -40.5t43 -112.5zM1027 143q0 39 -18 61.5t-48 22.5t-48.5 -22.5t-18.5 -60.5q0 -39 18.5 -61.5t48.5 -22.5q29 0 47.5 22.5t18.5 60.5zM692 143q0 39 -18 61.5t-48 22.5
t-48.5 -22.5t-18.5 -60.5q0 -39 18.5 -61.5t48.5 -22.5q29 0 47.5 22.5t18.5 60.5zM261 335q0 38 -18 60.5t-48 22.5t-48.5 -22.5t-18.5 -60.5q0 -39 18.5 -61.5t48.5 -22.5q29 0 47.5 22.5t18.5 61.5z" />
    <glyph glyph-name="commaaccent" unicode="&#xf6c3;" horiz-adv-x="273" 
d="M113 -43l108 -3q-14 -98 -94 -155l-73 32q52 52 59 126z" />
    <glyph glyph-name="one.fitted" unicode="&#xf6dc;" horiz-adv-x="403" 
d="M295 0h-123v497q-9 -8 -46 -25q-26 -11 -58 -20l-27 87q39 6 90 35q52 31 63 63h101v-637z" />
    <glyph glyph-name="dollar.oldstyle" unicode="&#xf724;" horiz-adv-x="528" 
d="M465 148q0 -73 -60 -113q-43 -29 -106 -35l-1 -78h-68l2 79q-54 4 -102.5 26t-72.5 52l56 72q21 -21 55.5 -40.5t67.5 -22.5l2 112l-28 8q-54 16 -80 36q-50 38 -50 102q0 65 55 104q43 30 107 36v64h68l-2 -65q47 -5 86 -24t61 -41l-47 -68q-16 16 -46 30.5t-58 18.5
l-2 -111l33 -10q45 -14 73 -32q57 -38 57 -100zM241 403q-56 -5 -56 -45q0 -34 40 -48l16 -5v98zM360 135q0 31 -45 45l-15 5l-1 -100q30 3 45.5 16.5t15.5 33.5z" />
    <glyph glyph-name="zero.oldstyle" unicode="&#xf730;" horiz-adv-x="565" 
d="M520 240q0 -113 -64.5 -181.5t-172.5 -68.5t-173 68t-65 181q0 114 65 181.5t172 67.5q108 0 173 -67.5t65 -180.5zM396 240q0 70 -29.5 114t-83.5 44t-84 -44t-30 -114q0 -69 29.5 -113.5t83.5 -44.5t84 44t30 114z" />
    <glyph glyph-name="one.oldstyle" unicode="&#xf731;" horiz-adv-x="392" 
d="M300 0h-122v342q-19 -14 -50 -27q-40 -15 -58 -19l-28 86q44 7 94 35q51 30 65 66h99v-483z" />
    <glyph glyph-name="two.oldstyle" unicode="&#xf732;" horiz-adv-x="545" 
d="M505 0h-467q16 127 133 210q18 13 41 26t49.5 26.5t33.5 17.5q19 11 28 16.5t18 17.5t9 26q0 24 -24 38.5t-71 14.5q-44 0 -88 -19t-67 -39l-50 80q3 3 9.5 8t27.5 17.5t43.5 22t58 17.5t71.5 8q98 0 155.5 -41t57.5 -112q0 -20 -5.5 -37t-17 -31t-22 -24.5t-28.5 -21
t-27.5 -15.5t-28 -13t-21.5 -10q-33 -16 -48.5 -24t-41 -26t-38.5 -37h310v-96z" />
    <glyph glyph-name="three.oldstyle" unicode="&#xf733;" horiz-adv-x="510" 
d="M452 30q0 -88 -65 -137.5t-162 -49.5q-55 0 -104 18.5t-69 34t-32 29.5l60 80q18 -21 55 -42.5t80 -21.5q53 0 85 23.5t32 73.5q0 49 -34.5 72.5t-87.5 23.5h-61v93h61q50 0 79.5 22.5t29.5 62.5q0 39 -30 58.5t-74 19.5q-68 0 -128 -50l-52 75q11 11 29.5 24.5t67.5 31
t103 17.5q89 0 145.5 -47t56.5 -116q0 -60 -33 -93.5t-77 -47.5q47 -8 86 -47.5t39 -106.5z" />
    <glyph glyph-name="four.oldstyle" unicode="&#xf734;" horiz-adv-x="555" 
d="M538 1h-90v-155h-122v155h-306v93l281 385h147v-384h90v-94zM326 94v284l-204 -284h204z" />
    <glyph glyph-name="five.oldstyle" unicode="&#xf735;" horiz-adv-x="543" 
d="M488 56q0 -99 -70.5 -155.5t-167.5 -56.5q-134 0 -215 81l60 80q63 -63 145 -63q58 0 92.5 29.5t34.5 83.5q0 52 -35 83t-84 31q-67 0 -105 -32l-72 29l55 313h345v-95h-254l-27 -145q45 18 100 18q77 0 137.5 -52t60.5 -149z" />
    <glyph glyph-name="six.oldstyle" unicode="&#xf736;" horiz-adv-x="565" 
d="M518 205q0 -93 -61 -154t-164 -61q-125 0 -189 97q-49 75 -49 218q0 169 86 255q75 75 189 75q99 0 168 -51l-43 -82q-54 39 -125 39t-112 -49q-46 -55 -46 -152q6 7 18 17.5t52.5 28t84.5 17.5q84 0 137.5 -54.5t53.5 -143.5zM399 197q0 51 -27.5 83.5t-79.5 32.5
q-13 0 -25.5 -2.5t-22 -7t-19 -10.5t-16 -11.5t-13.5 -12.5t-10.5 -11.5t-7.5 -9.5l-4 -6q0 -70 31 -114.5t83 -44.5q51 0 81 32t30 82z" />
    <glyph glyph-name="seven.oldstyle" unicode="&#xf737;" horiz-adv-x="517" 
d="M480 385l-265 -539h-130l272 537h-320v96h443v-94z" />
    <glyph glyph-name="eight.oldstyle" unicode="&#xf738;" horiz-adv-x="558" 
d="M508 174q0 -88 -63.5 -136t-165.5 -48q-101 0 -165 47.5t-64 130.5q0 114 119 162q-9 3 -20 9t-32 22t-34 45.5t-13 67.5q0 80 59 124.5t150 44.5q90 0 149.5 -44.5t59.5 -121.5q0 -36 -14 -65t-35 -44t-33 -21.5t-21 -9.5q83 -34 110 -95q13 -31 13 -68zM373 471
q0 39 -26 62t-68 23t-68 -23t-26 -61q0 -37 32 -62.5t78 -34.5q78 28 78 96zM389 181q0 44 -38.5 71.5t-90.5 39.5q-90 -31 -90 -110q0 -48 29.5 -75t79.5 -27q49 0 79.5 27t30.5 74z" />
    <glyph glyph-name="nine.oldstyle" unicode="&#xf739;" horiz-adv-x="565" 
d="M510 170q0 -80 -23 -145.5t-61 -105.5q-72 -75 -191 -75q-100 0 -172 52l42 81q59 -39 130 -39t114 49q44 50 44 153q-19 -25 -59 -45.5t-94 -20.5q-84 0 -138.5 53.5t-54.5 142.5q0 93 60.5 155.5t162.5 62.5q127 0 191 -98q49 -74 49 -220zM391 237q0 70 -31.5 115
t-82.5 45t-81 -31.5t-30 -82.5t28.5 -83t80.5 -32q37 0 68 21t48 48z" />
    <glyph glyph-name="cent.oldstyle" unicode="&#xf7a2;" horiz-adv-x="528" 
d="M460 86q-7 -8 -21.5 -18.5t-44.5 -24t-62 -15.5v-76h-69v75q-88 8 -142 65.5t-54 146.5q0 88 54.5 145.5t141.5 66.5v74h69v-75q71 -6 127 -55l-40 -74q-46 38 -87 43v-247q49 5 87 43zM263 117v247q-36 -8 -59.5 -39.5t-23.5 -84.5t23 -84t60 -39z" />
    <glyph glyph-name="numbersign.oldstyle" unicode="&#xfe5f;" horiz-adv-x="513" 
d="M487 293h-93l-27 -107h85v-68h-103l-29 -118h-73l29 118h-103l-28 -118h-73l29 118h-75v67h93l27 108h-85v67h103l29 119h73l-29 -119h103l28 119h73l-29 -118h75v-68zM321 293h-103l-26 -108h103z" />
    <glyph glyph-name="percent.oldstyle" unicode="&#xfe6a;" horiz-adv-x="821" 
d="M778 144q0 -73 -43 -113.5t-109 -40.5q-67 0 -110 40.5t-43 112.5q0 73 43.5 113.5t109.5 40.5t109 -40.5t43 -112.5zM581 456l-286 -469l-55 35l286 469zM347 335q0 -73 -43 -113.5t-109 -40.5q-67 0 -110 40.5t-43 112.5t43.5 113t109.5 41t109 -40.5t43 -112.5z
M692 143q0 39 -18 61.5t-48 22.5t-48.5 -22.5t-18.5 -60.5q0 -39 18.5 -61.5t48.5 -22.5q29 0 47.5 22.5t18.5 60.5zM261 335q0 38 -18 60.5t-48 22.5t-48.5 -22.5t-18.5 -60.5q0 -39 18.5 -61.5t48.5 -22.5q29 0 47.5 22.5t18.5 61.5z" />
    </font>
</defs>
</svg>
